<svg width="480" height="392" viewBox="0 0 480 392" fill="none" xmlns="http://www.w3.org/2000/svg">
<g clip-path="url(#clip0)">
<path d="M384.577 391.5C432.66 391.5 471.64 382.719 471.64 371.888C471.64 361.056 432.66 352.276 384.577 352.276C336.493 352.276 297.514 361.056 297.514 371.888C297.514 382.719 336.493 391.5 384.577 391.5Z" fill="#8C87E6"/>
<path d="M392.649 385.732C440.732 385.732 479.712 376.951 479.712 366.12C479.712 355.288 440.732 346.507 392.649 346.507C344.565 346.507 305.586 355.288 305.586 366.12C305.586 376.951 344.565 385.732 392.649 385.732Z" stroke="#3F3D56" stroke-miterlimit="10"/>
<path d="M251.676 193.359C261.229 193.359 268.973 185.612 268.973 176.055C268.973 166.497 261.229 158.75 251.676 158.75C242.123 158.75 234.378 166.497 234.378 176.055C234.378 185.612 242.123 193.359 251.676 193.359Z" fill="#8C87E6"/>
<path d="M321.441 193.359C330.994 193.359 338.739 185.612 338.739 176.055C338.739 166.497 330.994 158.75 321.441 158.75C311.888 158.75 304.144 166.497 304.144 176.055C304.144 185.612 311.888 193.359 321.441 193.359Z" fill="#8C87E6"/>
<path d="M391.207 193.359C400.76 193.359 408.504 185.612 408.504 176.055C408.504 166.497 400.76 158.75 391.207 158.75C381.654 158.75 373.91 166.497 373.91 176.055C373.91 185.612 381.654 193.359 391.207 193.359Z" fill="#6C63FF"/>
<path d="M7.20721 13.9659C8.16251 13.9659 8.93694 13.1911 8.93694 12.2354C8.93694 11.2796 8.16251 10.5049 7.20721 10.5049C6.2519 10.5049 5.47748 11.2796 5.47748 12.2354C5.47748 13.1911 6.2519 13.9659 7.20721 13.9659Z" fill="#F86B75"/>
<path d="M12.3964 13.9659C13.3517 13.9659 14.1261 13.1911 14.1261 12.2354C14.1261 11.2796 13.3517 10.5049 12.3964 10.5049C11.4411 10.5049 10.6667 11.2796 10.6667 12.2354C10.6667 13.1911 11.4411 13.9659 12.3964 13.9659Z" fill="#FAD375"/>
<path d="M17.5856 13.9659C18.5409 13.9659 19.3153 13.1911 19.3153 12.2354C19.3153 11.2796 18.5409 10.5049 17.5856 10.5049C16.6303 10.5049 15.8559 11.2796 15.8559 12.2354C15.8559 13.1911 16.6303 13.9659 17.5856 13.9659Z" fill="#8BCC55"/>
<path d="M157.405 39.0579H38.6306V75.9749H157.405V39.0579Z" fill="#8C87E6"/>
<path d="M210.162 6.46704H0.288284V131.062H210.162V6.46704Z" stroke="#3F3D56" stroke-miterlimit="10"/>
<path d="M0.288284 15.903H210.162" stroke="#3F3D56" stroke-miterlimit="10"/>
<path d="M7.78378 12.8122C8.73908 12.8122 9.51351 12.0374 9.51351 11.0817C9.51351 10.126 8.73908 9.3512 7.78378 9.3512C6.82847 9.3512 6.05405 10.126 6.05405 11.0817C6.05405 12.0374 6.82847 12.8122 7.78378 12.8122Z" stroke="#3F3D56" stroke-miterlimit="10"/>
<path d="M12.973 12.8122C13.9283 12.8122 14.7027 12.0374 14.7027 11.0817C14.7027 10.126 13.9283 9.3512 12.973 9.3512C12.0177 9.3512 11.2432 10.126 11.2432 11.0817C11.2432 12.0374 12.0177 12.8122 12.973 12.8122Z" stroke="#3F3D56" stroke-miterlimit="10"/>
<path d="M18.1622 12.8122C19.1175 12.8122 19.8919 12.0374 19.8919 11.0817C19.8919 10.126 19.1175 9.3512 18.1622 9.3512C17.2069 9.3512 16.4324 10.126 16.4324 11.0817C16.4324 12.0374 17.2069 12.8122 18.1622 12.8122Z" stroke="#3F3D56" stroke-miterlimit="10"/>
<path d="M164.613 31.8475H45.8378V68.7646H164.613V31.8475Z" stroke="#3F3D56" stroke-miterlimit="10"/>
<path d="M182.775 92.1261H23.6396V96.8999H182.775V92.1261Z" fill="#F2F2F2"/>
<path d="M182.775 103.583H23.6396V108.357H182.775V103.583Z" fill="#F2F2F2"/>
<path d="M182.775 115.04H23.6396V119.814H182.775V115.04Z" fill="#F2F2F2"/>
<path d="M184.504 89.8187H25.3694V94.5925H184.504V89.8187Z" stroke="#3F3D56" stroke-miterlimit="10"/>
<path d="M184.504 101.276H25.3694V106.05H184.504V101.276Z" stroke="#3F3D56" stroke-miterlimit="10"/>
<path d="M184.504 112.733H25.3694V117.507H184.504V112.733Z" stroke="#3F3D56" stroke-miterlimit="10"/>
<path d="M55.6396 229.7C56.5949 229.7 57.3694 228.925 57.3694 227.969C57.3694 227.013 56.5949 226.239 55.6396 226.239C54.6843 226.239 53.9099 227.013 53.9099 227.969C53.9099 228.925 54.6843 229.7 55.6396 229.7Z" fill="#F86B75"/>
<path d="M60.8288 229.7C61.7841 229.7 62.5586 228.925 62.5586 227.969C62.5586 227.013 61.7841 226.239 60.8288 226.239C59.8735 226.239 59.0991 227.013 59.0991 227.969C59.0991 228.925 59.8735 229.7 60.8288 229.7Z" fill="#FAD375"/>
<path d="M66.018 229.7C66.9733 229.7 67.7477 228.925 67.7477 227.969C67.7477 227.013 66.9733 226.239 66.018 226.239C65.0627 226.239 64.2883 227.013 64.2883 227.969C64.2883 228.925 65.0627 229.7 66.018 229.7Z" fill="#8BCC55"/>
<path d="M205.838 254.792H87.063V291.709H205.838V254.792Z" fill="#8C87E6"/>
<path d="M258.595 247.582V346.796H48.7207V222.201H219.387" stroke="#3F3D56" stroke-miterlimit="10"/>
<path d="M48.7207 231.637H219.676" stroke="#3F3D56" stroke-miterlimit="10"/>
<path d="M56.2162 228.546C57.1715 228.546 57.9459 227.771 57.9459 226.816C57.9459 225.86 57.1715 225.085 56.2162 225.085C55.2609 225.085 54.4865 225.86 54.4865 226.816C54.4865 227.771 55.2609 228.546 56.2162 228.546Z" stroke="#3F3D56" stroke-miterlimit="10"/>
<path d="M61.4054 228.546C62.3607 228.546 63.1351 227.771 63.1351 226.816C63.1351 225.86 62.3607 225.085 61.4054 225.085C60.4501 225.085 59.6757 225.86 59.6757 226.816C59.6757 227.771 60.4501 228.546 61.4054 228.546Z" stroke="#3F3D56" stroke-miterlimit="10"/>
<path d="M66.5946 228.546C67.5499 228.546 68.3243 227.771 68.3243 226.816C68.3243 225.86 67.5499 225.085 66.5946 225.085C65.6393 225.085 64.8649 225.86 64.8649 226.816C64.8649 227.771 65.6393 228.546 66.5946 228.546Z" stroke="#3F3D56" stroke-miterlimit="10"/>
<path d="M213.045 247.581H94.2703V284.498H213.045V247.581Z" stroke="#3F3D56" stroke-miterlimit="10"/>
<path d="M226.306 129.908C227.262 129.908 228.036 129.134 228.036 128.178C228.036 127.222 227.262 126.447 226.306 126.447C225.351 126.447 224.577 127.222 224.577 128.178C224.577 129.134 225.351 129.908 226.306 129.908Z" fill="#F86B75"/>
<path d="M231.495 129.908C232.451 129.908 233.225 129.134 233.225 128.178C233.225 127.222 232.451 126.447 231.495 126.447C230.54 126.447 229.766 127.222 229.766 128.178C229.766 129.134 230.54 129.908 231.495 129.908Z" fill="#FAD375"/>
<path d="M236.685 129.908C237.64 129.908 238.414 129.134 238.414 128.178C238.414 127.222 237.64 126.447 236.685 126.447C235.729 126.447 234.955 127.222 234.955 128.178C234.955 129.134 235.729 129.908 236.685 129.908Z" fill="#8BCC55"/>
<path d="M429.261 122.41H219.387V247.005H429.261V122.41Z" stroke="#3F3D56" stroke-miterlimit="10"/>
<path d="M219.387 131.845H429.261" stroke="#3F3D56" stroke-miterlimit="10"/>
<path d="M226.883 128.755C227.838 128.755 228.613 127.98 228.613 127.024C228.613 126.068 227.838 125.294 226.883 125.294C225.928 125.294 225.153 126.068 225.153 127.024C225.153 127.98 225.928 128.755 226.883 128.755Z" stroke="#3F3D56" stroke-miterlimit="10"/>
<path d="M232.072 128.755C233.027 128.755 233.802 127.98 233.802 127.024C233.802 126.068 233.027 125.294 232.072 125.294C231.117 125.294 230.342 126.068 230.342 127.024C230.342 127.98 231.117 128.755 232.072 128.755Z" stroke="#3F3D56" stroke-miterlimit="10"/>
<path d="M237.261 128.755C238.217 128.755 238.991 127.98 238.991 127.024C238.991 126.068 238.217 125.294 237.261 125.294C236.306 125.294 235.532 126.068 235.532 127.024C235.532 127.98 236.306 128.755 237.261 128.755Z" stroke="#3F3D56" stroke-miterlimit="10"/>
<path d="M254.559 190.475C264.112 190.475 271.856 182.728 271.856 173.17C271.856 163.613 264.112 155.866 254.559 155.866C245.006 155.866 237.261 163.613 237.261 173.17C237.261 182.728 245.006 190.475 254.559 190.475Z" stroke="#3F3D56" stroke-miterlimit="10"/>
<path d="M324.324 190.475C333.877 190.475 341.622 182.728 341.622 173.17C341.622 163.613 333.877 155.866 324.324 155.866C314.771 155.866 307.027 163.613 307.027 173.17C307.027 182.728 314.771 190.475 324.324 190.475Z" stroke="#3F3D56" stroke-miterlimit="10"/>
<path d="M394.09 190.475C403.643 190.475 411.387 182.728 411.387 173.17C411.387 163.613 403.643 155.866 394.09 155.866C384.537 155.866 376.793 163.613 376.793 173.17C376.793 182.728 384.537 190.475 394.09 190.475Z" stroke="#3F3D56" stroke-miterlimit="10"/>
<path d="M275.604 205.184H228.324V209.799H275.604V205.184Z" fill="#F2F2F2"/>
<path d="M345.946 205.184H298.667V209.799H345.946V205.184Z" fill="#F2F2F2"/>
<path d="M416.288 205.184H369.009V209.799H416.288V205.184Z" fill="#F2F2F2"/>
<path d="M277.91 203.454H230.631V208.069H277.91V203.454Z" stroke="#3F3D56" stroke-miterlimit="10"/>
<path d="M348.252 203.454H300.973V208.069H348.252V203.454Z" stroke="#3F3D56" stroke-miterlimit="10"/>
<path d="M418.595 203.454H371.315V208.069H418.595V203.454Z" stroke="#3F3D56" stroke-miterlimit="10"/>
<path d="M92.8288 306.129H56.5045V337.278H92.8288V306.129Z" fill="#F2F2F2"/>
<path d="M160 306.418H123.676V337.567H160V306.418Z" fill="#F2F2F2"/>
<path d="M227.171 306.706H190.847V337.855H227.171V306.706Z" fill="#F2F2F2"/>
<path d="M98.018 300.361H61.6937V331.51H98.018V300.361Z" stroke="#3F3D56" stroke-miterlimit="10"/>
<path d="M165.189 300.65H128.865V331.798H165.189V300.65Z" stroke="#3F3D56" stroke-miterlimit="10"/>
<path d="M232.36 300.938H196.036V332.087H232.36V300.938Z" stroke="#3F3D56" stroke-miterlimit="10"/>
<path d="M346.399 118.457L330.22 127.425L347.474 121.336L346.399 118.457Z" fill="#79758C"/>
<path d="M353.691 127.28C356.062 126.51 356.726 122.011 355.175 117.233C353.623 112.454 350.443 109.204 348.072 109.975C345.701 110.745 345.037 115.244 346.588 120.023C348.14 124.801 351.32 128.051 353.691 127.28Z" fill="#3F3D56"/>
<path d="M366.936 117.8C368.725 117.219 369.287 114.012 368.191 110.638C367.096 107.264 364.758 104.999 362.969 105.581C361.18 106.162 360.618 109.369 361.714 112.743C362.809 116.117 365.147 118.381 366.936 117.8Z" fill="#3F3D56"/>
<path d="M351.922 113.374L362.653 109.498L364.934 115.819L354.548 122.838L351.922 113.374Z" fill="#3F3D56"/>
<path d="M350.896 136.613L353.779 130.268C353.779 130.268 360.698 111.81 354.355 115.271C348.013 118.732 345.707 127.961 345.707 127.961L343.977 133.729L350.896 136.613Z" fill="#A0616A"/>
<path d="M429.887 232.367C429.887 232.367 420.085 251.402 417.202 251.979C414.319 252.556 414.319 234.674 414.319 234.674C414.319 234.674 420.085 229.483 422.391 230.06C424.698 230.636 429.887 232.367 429.887 232.367Z" fill="#A0616A"/>
<path d="M415.472 352.347C415.472 352.347 420.661 355.231 418.355 361.576C416.049 367.922 414.896 366.191 413.743 371.383C412.589 376.574 402.211 375.997 401.635 373.69C401.058 371.383 399.905 362.153 402.788 358.692C405.671 355.231 415.472 352.347 415.472 352.347Z" fill="#55536E"/>
<path d="M364.157 352.347C364.157 352.347 358.968 355.231 361.274 361.576C363.58 367.922 364.734 366.191 365.887 371.383C367.04 376.574 377.418 375.997 377.995 373.69C378.571 371.383 379.725 362.153 376.842 358.692C373.959 355.231 364.157 352.347 364.157 352.347Z" fill="#55536E"/>
<path d="M412.589 236.981C412.589 236.981 417.202 239.866 418.355 257.747C419.508 275.629 417.779 295.818 417.202 300.433C416.626 305.047 417.779 311.969 418.932 315.43C420.085 318.891 416.049 345.425 416.049 345.425C416.9 347.229 417.341 349.199 417.341 351.193C417.341 353.188 416.9 355.158 416.049 356.962C413.166 363.307 404.517 369.652 402.211 363.307C402.09 361.093 401.501 358.93 400.481 356.962C398.752 353.501 401.635 339.657 401.635 339.657C401.635 339.657 399.328 317.737 399.905 311.969C400.481 306.201 392.986 272.168 391.833 266.4C390.68 260.631 391.256 256.017 390.68 257.747C390.103 259.478 379.725 307.354 379.725 307.354C379.725 307.354 380.878 337.926 380.301 341.964C379.725 346.002 382.608 354.078 380.878 356.962C379.148 359.846 375.689 370.229 369.346 363.884C363.004 357.539 364.157 355.231 363.58 352.347C363.004 349.463 363.58 346.002 363.58 341.387C363.58 336.773 358.968 310.815 361.274 306.778C363.58 302.74 362.427 297.548 361.851 288.319C361.274 279.09 360.698 234.674 366.463 226.599C372.229 218.523 412.589 236.981 412.589 236.981Z" fill="#3F3D56"/>
<path d="M398.463 128.826C406.106 128.826 412.301 122.628 412.301 114.982C412.301 107.337 406.106 101.138 398.463 101.138C390.821 101.138 384.625 107.337 384.625 114.982C384.625 122.628 390.821 128.826 398.463 128.826Z" fill="#A0616A"/>
<path d="M407.4 120.462C407.4 120.462 406.824 141.228 409.707 144.689C412.589 148.15 384.914 141.805 384.914 141.805C384.914 141.805 391.256 128.538 387.22 119.885C383.184 111.233 407.4 120.462 407.4 120.462Z" fill="#A0616A"/>
<path d="M412.589 142.382C412.589 142.382 411.436 137.767 404.517 136.613C397.598 135.46 389.416 134.306 386.877 136.613C384.337 138.921 383.184 141.805 381.454 141.805H373.382L360.698 164.301C360.698 164.301 367.04 171.8 365.31 185.644C363.58 199.488 360.698 224.868 360.698 224.868C365.32 231.025 369.373 237.589 372.806 244.48C378.571 256.017 418.355 254.863 416.049 234.674C416.049 234.674 413.166 229.483 414.319 224.868C415.472 220.254 418.932 189.105 418.932 189.105L432.193 153.918C432.193 153.918 413.743 144.689 412.589 142.382Z" fill="#55536E"/>
<path d="M428.157 153.341H432.193C432.193 153.341 434.499 166.608 433.923 174.684C433.346 182.76 433.346 201.795 433.346 201.795C433.346 201.795 435.653 206.41 435.076 210.447C434.499 214.485 433.346 225.445 433.346 225.445C433.346 225.445 432.77 241.019 421.815 232.944C421.815 232.944 418.355 231.213 420.085 223.714C421.815 216.216 418.932 208.14 418.932 208.14C418.932 208.14 420.662 202.949 420.085 199.488C419.508 196.027 417.202 185.067 417.202 185.067L428.157 153.341Z" fill="#55536E"/>
<path d="M376.265 143.535L373.382 141.805C373.382 141.805 369.346 140.074 363.581 141.805C357.815 143.535 354.932 142.958 352.626 142.382C350.319 141.805 352.049 136.037 352.049 136.037C352.049 136.037 347.436 127.961 342.824 132.576C338.211 137.19 338.211 146.419 338.211 146.419C338.211 146.419 335.328 152.188 345.707 155.649C356.085 159.11 360.698 164.301 360.698 164.301H372.229L376.265 143.535Z" fill="#55536E"/>
<path d="M397.526 131.507C397.508 130.992 397.342 130.494 397.048 130.071C396.754 129.649 396.344 129.32 395.868 129.125C395.231 128.908 394.569 128.777 393.897 128.735C391.934 128.482 389.914 127.762 388.771 126.261C387.248 124.263 387.664 121.468 386.444 119.299C385.876 118.445 385.254 117.628 384.583 116.853C382.453 114.002 382.078 110.361 381.884 106.897C381.788 106.195 381.869 105.48 382.118 104.817C382.484 104.22 382.926 103.674 383.434 103.193C384.294 102.193 384.758 100.912 384.738 99.593C384.676 96.9104 388.513 95.1078 391.23 94.1814C393.947 93.255 396.894 93.1075 399.789 93.0683C401.453 93.0458 403.171 93.0655 404.7 93.6735C405.58 94.056 406.407 94.5489 407.163 95.1403C410.369 97.4879 413.379 100.374 414.455 104.027C414.878 105.695 415.074 107.411 415.04 109.131C415.091 109.665 415.012 110.204 414.811 110.702C414.427 111.476 413.52 111.895 412.933 112.551C411.838 113.777 412.033 115.551 411.894 117.137C411.717 118.773 411.158 120.344 410.262 121.724C409.366 123.104 408.159 124.254 406.737 125.081C406.147 125.37 405.604 125.746 405.125 126.197C404.764 126.675 404.465 127.197 404.235 127.75C403.082 129.963 400.176 131.429 397.526 131.507Z" fill="#3F3D56"/>
<path d="M111.047 6.65533L103.368 10.9118L111.558 8.02184L111.047 6.65533Z" fill="#79758C"/>
<path d="M114.509 10.8437C115.634 10.478 115.95 8.34258 115.213 6.07413C114.477 3.80569 112.967 2.26322 111.842 2.62894C110.716 2.99466 110.401 5.13008 111.137 7.39852C111.874 9.66696 113.383 11.2094 114.509 10.8437Z" fill="#3F3D56"/>
<path d="M120.796 6.3435C121.645 6.06759 121.912 4.54547 121.392 2.94376C120.872 1.34206 119.762 0.267287 118.913 0.543201C118.064 0.819115 117.797 2.34122 118.317 3.94293C118.837 5.54464 119.947 6.61942 120.796 6.3435Z" fill="#3F3D56"/>
<path d="M113.669 4.24246L118.763 2.40295L119.846 5.40304L114.916 8.7348L113.669 4.24246Z" fill="#3F3D56"/>
<path d="M162.939 221.235L155.259 225.492L163.45 222.602L162.939 221.235Z" fill="#79758C"/>
<path d="M166.401 225.424C167.526 225.058 167.841 222.923 167.105 220.654C166.368 218.386 164.859 216.843 163.734 217.209C162.608 217.575 162.293 219.71 163.029 221.979C163.766 224.247 165.275 225.79 166.401 225.424Z" fill="#3F3D56"/>
<path d="M172.688 220.924C173.537 220.648 173.804 219.126 173.284 217.524C172.764 215.922 171.654 214.847 170.805 215.123C169.956 215.399 169.689 216.921 170.209 218.523C170.729 220.125 171.839 221.2 172.688 220.924Z" fill="#3F3D56"/>
<path d="M165.561 218.823L170.655 216.983L171.738 219.983L166.808 223.315L165.561 218.823Z" fill="#3F3D56"/>
</g>
<defs>
<clipPath id="clip0">
<rect y="0.5" width="480" height="391" fill="white"/>
</clipPath>
</defs>
</svg>
