<svg width="331" height="266" viewBox="0 0 331 266" fill="none" xmlns="http://www.w3.org/2000/svg">
<g clip-path="url(#clip0)">
<path opacity="0.1" d="M192.232 30.7941C171.076 30.1854 150.928 24.5006 131.701 18.2803C112.474 12.0601 93.3871 5.18028 72.738 1.88534C59.4576 -0.233741 44.2705 -0.533281 33.5697 5.39059C23.2706 11.0914 19.945 20.9348 18.1562 30.0707C16.8074 36.941 16.0167 44.1746 19.7058 50.6051C22.2567 55.0663 26.8131 58.8233 29.9571 63.0997C40.8938 77.9843 33.1647 96.3359 21.3097 110.867C15.7488 117.683 9.29838 124.187 5.00657 131.443C0.714771 138.698 -1.26214 147.019 2.48442 154.411C6.20547 161.741 15.0729 167.257 24.68 171.135C44.1908 179.006 67.1835 181.258 89.6023 182.536C139.229 185.36 189.124 184.13 238.884 182.912C257.298 182.46 275.795 182.001 293.912 179.63C303.972 178.314 314.357 176.227 321.653 171.186C330.925 164.787 333.221 153.949 327.01 145.926C316.59 132.465 287.79 129.123 280.492 114.678C276.481 106.727 280.6 97.8686 286.426 90.4949C298.925 74.6766 319.877 60.799 320.98 42.7183C321.736 30.2906 311.666 17.8629 296.093 11.9868C279.771 5.82715 257.136 6.60149 245.076 16.7986C232.702 27.2952 210.911 31.3454 192.232 30.7941Z" fill="#6C63FF"/>
<path opacity="0.1" d="M139.346 265.5C190.547 265.5 232.053 261.317 232.053 256.157C232.053 250.997 190.547 246.814 139.346 246.814C88.1449 246.814 46.6384 250.997 46.6384 256.157C46.6384 261.317 88.1449 265.5 139.346 265.5Z" fill="#6C63FF"/>
<path d="M54.5365 255.144C54.5365 255.144 50.4233 231.853 35.1564 220.311C28.7506 215.467 24.0634 208.881 22.0164 201.379C21.053 197.825 20.4358 194.186 20.1734 190.513" stroke="#535461" stroke-width="2" stroke-miterlimit="10"/>
<path d="M10.6013 183.184C11.8768 185.679 20.3998 190.73 20.3998 190.73C20.3998 190.73 21.4711 181.294 20.1862 178.796C18.9012 176.298 15.7222 175.256 13.0693 176.467C10.4164 177.678 9.31636 180.686 10.6013 183.184Z" fill="#6C63FF"/>
<path d="M9.78829 200.643C12.3073 202.081 22.364 201.953 22.364 201.953C22.364 201.953 17.8267 193.483 15.3173 192.046C12.8079 190.609 9.52682 191.367 8.00269 193.741C6.47856 196.115 7.27251 199.206 9.78829 200.643Z" fill="#6C63FF"/>
<path d="M22.2906 224.135C25.2305 224.176 33.8428 219.275 33.8428 219.275C33.8428 219.275 25.3963 214.126 22.4533 214.081C19.5102 214.037 17.0901 216.254 17.0327 219.03C16.9753 221.806 19.3476 224.084 22.2906 224.135Z" fill="#6C63FF"/>
<path d="M35.9887 239.886C38.8775 240.399 48.2455 236.939 48.2455 236.939C48.2455 236.939 40.8416 230.508 37.956 230.005C35.0704 229.501 32.2804 231.279 31.7383 234.02C31.1963 236.76 33.0966 239.376 35.9887 239.886Z" fill="#6C63FF"/>
<path d="M32.6758 197.83C31.6714 200.439 23.7478 206.29 23.7478 206.29C23.7478 206.29 21.6497 197.011 22.6541 194.401C23.6585 191.791 26.7164 190.443 29.4808 191.389C32.2453 192.336 33.6802 195.223 32.6758 197.83Z" fill="#6C63FF"/>
<path d="M48.4496 216.452C46.664 218.66 37.2513 222.006 37.2513 222.006C37.2513 222.006 38.2079 212.558 39.9808 210.353C40.8763 209.283 42.1428 208.59 43.5272 208.413C44.9116 208.236 46.3119 208.587 47.4484 209.397C48.0001 209.777 48.4669 210.267 48.8195 210.836C49.1721 211.406 49.4027 212.042 49.4968 212.705C49.5909 213.368 49.5464 214.043 49.3661 214.688C49.1859 215.333 48.8738 215.934 48.4496 216.452Z" fill="#6C63FF"/>
<path d="M61.1464 236.537C59.7817 238.997 51.1056 243.796 51.1056 243.796C51.1056 243.796 50.3436 234.335 51.7083 231.875C53.073 229.415 56.2902 228.465 58.8984 229.753C61.5067 231.04 62.5079 234.077 61.1464 236.537Z" fill="#6C63FF"/>
<path opacity="0.25" d="M10.6013 183.184C11.8768 185.679 20.3998 190.73 20.3998 190.73C20.3998 190.73 21.4711 181.294 20.1862 178.796C18.9012 176.298 15.7222 175.256 13.0693 176.467C10.4164 177.678 9.31636 180.686 10.6013 183.184Z" fill="black"/>
<path opacity="0.25" d="M9.78829 200.643C12.3073 202.081 22.364 201.953 22.364 201.953C22.364 201.953 17.8267 193.483 15.3173 192.046C12.8079 190.609 9.52682 191.367 8.00269 193.741C6.47856 196.115 7.27251 199.206 9.78829 200.643Z" fill="black"/>
<path opacity="0.25" d="M22.2906 224.135C25.2305 224.176 33.8428 219.275 33.8428 219.275C33.8428 219.275 25.3963 214.126 22.4533 214.081C19.5102 214.037 17.0901 216.254 17.0327 219.03C16.9753 221.806 19.3476 224.084 22.2906 224.135Z" fill="black"/>
<path opacity="0.25" d="M35.9887 239.886C38.8775 240.399 48.2455 236.939 48.2455 236.939C48.2455 236.939 40.8416 230.508 37.956 230.005C35.0704 229.501 32.2804 231.279 31.7383 234.02C31.1963 236.76 33.0966 239.376 35.9887 239.886Z" fill="black"/>
<path opacity="0.25" d="M32.6758 197.83C31.6714 200.439 23.7478 206.29 23.7478 206.29C23.7478 206.29 21.6497 197.011 22.6541 194.401C23.6585 191.791 26.7164 190.443 29.4808 191.389C32.2453 192.336 33.6802 195.223 32.6758 197.83Z" fill="black"/>
<path opacity="0.25" d="M48.4496 216.452C46.664 218.66 37.2513 222.006 37.2513 222.006C37.2513 222.006 38.2079 212.558 39.9808 210.353C40.8763 209.283 42.1428 208.59 43.5272 208.413C44.9116 208.236 46.3119 208.587 47.4484 209.397C48.0001 209.777 48.4669 210.267 48.8195 210.836C49.1721 211.406 49.4027 212.042 49.4968 212.705C49.5909 213.368 49.5464 214.043 49.3661 214.688C49.1859 215.333 48.8738 215.934 48.4496 216.452Z" fill="black"/>
<path opacity="0.25" d="M61.1464 236.537C59.7817 238.997 51.1056 243.796 51.1056 243.796C51.1056 243.796 50.3436 234.335 51.7083 231.875C53.073 229.415 56.2902 228.465 58.8984 229.753C61.5067 231.04 62.5079 234.077 61.1464 236.537Z" fill="black"/>
<path d="M54.02 254.532C54.02 254.532 60.26 231.665 51.2619 215.273C47.4866 208.396 46.0295 200.583 47.3814 192.941C48.0304 189.308 49.0288 185.746 50.3627 182.304" stroke="#535461" stroke-width="2" stroke-miterlimit="10"/>
<path d="M44.7572 171.945C44.8593 174.717 50.4743 182.591 50.4743 182.591C50.4743 182.591 55.5059 174.373 55.4038 171.598C55.3018 168.822 52.8371 166.652 49.8972 166.748C46.9574 166.843 44.652 169.169 44.7572 171.945Z" fill="#6C63FF"/>
<path d="M36.518 187.597C38.2015 189.873 47.4484 193.601 47.4484 193.601C47.4484 193.601 46.9382 184.124 45.2546 181.846C44.4031 180.742 43.1659 180 41.7908 179.769C40.4156 179.538 39.0038 179.835 37.838 180.6C37.2715 180.955 36.7846 181.424 36.4078 181.976C36.0311 182.529 35.7726 183.153 35.6487 183.81C35.5248 184.467 35.538 185.143 35.6876 185.795C35.8372 186.446 36.1199 187.06 36.518 187.597Z" fill="#6C63FF"/>
<path d="M37.8572 213.845C40.5292 215.008 50.5094 213.823 50.5094 213.823C50.5094 213.823 44.9964 205.882 42.3243 204.719C39.6523 203.556 36.4893 204.655 35.2553 207.176C34.0213 209.696 35.1883 212.682 37.8572 213.845Z" fill="#6C63FF"/>
<path d="M43.6125 233.491C46.039 235.065 56.0862 235.482 56.0862 235.482C56.0862 235.482 52.075 226.78 49.6517 225.209C48.4838 224.448 47.0715 224.157 45.6979 224.394C44.3243 224.63 43.0908 225.376 42.2447 226.483C41.8471 227.024 41.566 227.641 41.4192 228.296C41.2723 228.95 41.2628 229.628 41.3914 230.287C41.5199 230.945 41.7837 231.57 42.166 232.121C42.5483 232.673 43.0408 233.139 43.6125 233.491Z" fill="#6C63FF"/>
<path d="M58.6498 193.776C56.6091 195.777 46.8521 198.101 46.8521 198.101C46.8521 198.101 48.9215 188.812 50.959 186.81C51.9672 185.845 53.3025 185.294 54.6988 185.268C56.0951 185.242 57.45 185.743 58.4935 186.67C58.9951 187.112 59.3995 187.652 59.6813 188.258C59.9632 188.864 60.1163 189.521 60.131 190.189C60.1456 190.857 60.0216 191.52 59.7667 192.138C59.5117 192.755 59.1314 193.313 58.6498 193.776Z" fill="#6C63FF"/>
<path d="M65.0588 216.831C62.4793 218.166 52.4385 217.628 52.4385 217.628C52.4385 217.628 57.3584 209.343 59.938 208.017C62.5175 206.691 65.7571 207.574 67.1696 210.009C68.5822 212.443 67.6511 215.496 65.0588 216.831Z" fill="#6C63FF"/>
<path d="M68.0529 240.049C65.7475 241.776 55.7546 242.846 55.7546 242.846C55.7546 242.846 59.1217 233.902 61.427 232.175C62.5476 231.343 63.9407 230.966 65.328 231.116C66.7153 231.267 67.9947 231.935 68.9106 232.987C69.3436 233.496 69.6665 234.089 69.8589 234.729C70.0513 235.369 70.109 236.042 70.0285 236.706C69.9479 237.369 69.7308 238.008 69.3908 238.584C69.0507 239.159 68.5952 239.658 68.0529 240.049Z" fill="#6C63FF"/>
<path d="M316.872 121.004C317.063 120.481 315.629 117.585 315.629 117.441C315.629 117.298 314.146 115.682 314.146 114.781C314.146 113.879 312.182 111.932 312.182 111.932C312.182 111.932 309.551 110.839 309.264 108.465C308.977 106.091 306.111 106.04 306.104 106.04C306.104 106.04 306.104 105.823 306.123 105.495C306.123 104.756 306.101 103.436 305.77 102.716C305.428 102.061 304.843 101.565 304.14 101.336C304.14 101.336 303.853 99.485 303.279 98.9146C302.959 98.5798 302.729 98.1689 302.611 97.7207C302.493 97.2724 302.492 96.8016 302.606 96.3526C302.893 95.4508 302.224 93.166 300.834 92.8473C299.443 92.5287 297.868 91.9933 297.868 91.9933C297.868 91.9933 297.712 92.022 297.486 92.0539L297.294 91.9933C296.961 92.0547 296.625 92.0962 296.287 92.1176C295.993 92.128 295.706 92.033 295.477 91.8499C294.995 91.3273 291.118 90.3299 290.401 90.3299C289.683 90.3299 287.623 89.3739 287.623 89.3739L285.57 87.8061C284.993 87.3664 283.925 85.5755 283.768 85.3238L283.749 85.2887C283.573 84.8841 283.428 84.4665 283.316 84.0396C284.016 83.3082 284.614 82.4862 285.095 81.5955C285.146 81.5031 285.191 81.4075 285.235 81.3151C285.343 81.3132 285.451 81.296 285.554 81.2641C285.596 81.2641 285.637 81.2322 285.678 81.2163C286.164 80.9608 286.529 80.5247 286.696 80.0022C286.731 79.9002 286.763 79.7951 286.788 79.6835C286.788 79.6485 286.788 79.6102 286.81 79.5752C286.833 79.5401 286.842 79.4318 286.855 79.3585C286.868 79.2852 286.871 79.2756 286.877 79.2374C286.884 79.1992 286.9 79.094 286.909 79.0207C286.919 78.9474 286.909 78.941 286.909 78.9028C286.909 78.8104 286.932 78.7212 286.944 78.632C286.977 78.295 287.027 77.9599 287.094 77.6282C287.381 76.3535 288.156 75.251 288.708 74.0592C288.787 73.8903 288.861 73.715 288.928 73.5398C288.995 73.3645 289.061 73.1574 289.116 72.963L289.164 72.7846C289.199 72.6444 289.23 72.501 289.259 72.3576C289.259 72.2938 289.285 72.2301 289.294 72.1664C289.326 71.9688 289.355 71.7712 289.371 71.5705C289.474 70.4324 289.311 69.286 288.896 68.2214C288.535 67.3291 288.003 66.5261 287.639 65.6339C287.088 64.2827 286.944 62.7659 286.272 61.4658C285.146 59.3053 282.493 58.225 280.312 59.0376C279.269 59.4232 278.367 60.1752 277.312 60.513C275.896 60.9623 274.385 60.6245 272.921 60.4206C271.457 60.2167 269.838 60.2007 268.661 61.1567C267.306 62.2561 266.933 64.3242 265.661 65.5319C265.128 66.0385 264.462 66.3636 263.897 66.832C263.501 67.1494 263.196 67.5662 263.014 68.0397C263.014 68.0748 262.992 68.1066 262.982 68.1417C262.973 68.1768 262.96 68.2214 262.95 68.2628C262.941 68.3042 262.931 68.3584 262.925 68.4062C262.918 68.454 262.925 68.4731 262.925 68.505C262.918 68.5898 262.918 68.675 262.925 68.7599C262.934 68.8403 262.948 68.9201 262.966 68.9989C262.966 69.0212 262.966 69.0435 262.966 69.0658C262.966 69.0881 263.005 69.1965 263.027 69.2634C263.026 69.2761 263.026 69.2889 263.027 69.3016C263.052 69.3749 263.081 69.445 263.11 69.5183L263.158 69.6266L263.196 69.7159C263.383 70.0664 263.531 70.4361 263.639 70.8184C263.699 71.0603 263.684 71.3145 263.598 71.5482C263.468 71.8126 263.287 72.0487 263.065 72.2428C262.113 73.2329 261.378 74.4104 260.906 75.7003C260.852 75.8469 260.798 75.9935 260.75 76.1464L260.817 76.1623C260.954 76.2041 261.093 76.235 261.235 76.2548C261.315 76.2548 261.394 76.2739 261.477 76.2803C261.804 76.2975 262.132 76.2718 262.453 76.2038C262.533 76.1878 262.616 76.1687 262.695 76.1464C263.024 76.0558 263.344 75.9375 263.652 75.7927C263.652 75.8883 263.652 75.9871 263.652 76.0827C263.652 76.1783 263.652 76.191 263.652 76.2452C263.655 78.3462 264.244 80.4047 265.353 82.1896C266.462 83.9745 268.047 85.4152 269.93 86.3499C269.93 86.4518 269.959 86.557 269.972 86.6685C269.984 86.7801 269.994 86.8406 270.003 86.9266L269.876 86.8024C269.876 86.8024 269.012 86.3754 268.199 87.6086C267.386 88.8418 265.855 89.4154 265.855 89.4154C265.855 89.4154 257.144 90.792 256.809 91.9328L252.741 92.1686C252.741 92.1686 251.303 92.3598 251.146 95.3552C250.99 98.3506 250.238 98.6342 250.238 98.6342C250.238 98.6342 248.564 101.579 248.707 103.095C248.851 104.612 247.432 105.377 247.432 105.377L247.24 108.082C247.24 108.082 245.646 107.847 245.228 109.698C244.811 111.549 244.033 112.407 244.033 112.407C244.033 112.407 241.399 114.593 241.255 116.444L239.629 117.441C239.629 117.441 235.848 116.587 234.987 115.067L234.722 114.819C234.713 114.807 234.706 114.794 234.7 114.781C234.699 114.787 234.699 114.793 234.7 114.8C234.132 114.264 232.933 113.149 233.105 113.404C233.217 113.643 233.244 113.913 233.182 114.169L232.901 113.85L232.149 113.015C232.149 113.015 226.036 107.279 222.446 106.84C222.398 106.747 222.169 105.845 221.556 106.409C221.048 106.874 220.641 107.439 220.362 108.068C220.083 108.697 219.937 109.378 219.933 110.066C219.93 110.755 220.069 111.437 220.343 112.069C220.616 112.701 221.017 113.269 221.521 113.739L227.245 119.083L227.392 119.191L228.622 120.784C228.415 121.281 228.24 121.762 228.096 122.202C228.096 122.202 228.096 122.231 228.08 122.244C228.052 122.339 228.02 122.428 227.991 122.518L227.962 122.613C227.937 122.702 227.908 122.792 227.883 122.875C227.857 122.957 227.854 122.98 227.838 123.031C227.822 123.082 227.838 123.091 227.812 123.12C227.679 123.598 227.589 123.964 227.545 124.168L227.226 124.07L227.545 124.203C227.545 124.219 227.545 124.238 227.545 124.254L227.525 124.353L227.819 124.481C229.496 125.21 237.866 128.878 238.296 129.436C238.775 130.051 241.931 131.858 244.804 130.338C247.677 128.818 248.312 126.488 248.312 126.488C248.312 126.488 251.086 122.642 251.181 122.072C251.277 121.501 253.433 120.835 253.433 120.835C253.433 120.835 253.624 127.208 252.524 129.528C251.424 131.848 249.364 142.166 249.364 142.166C249.498 142.139 249.635 142.131 249.772 142.141C249.696 142.514 249.651 142.737 249.651 142.737C249.819 142.706 249.99 142.706 250.158 142.737C250.005 143.909 249.125 149.352 249.125 149.352C249.125 149.352 248.838 151.822 248.36 152.676C247.881 153.53 247.833 157.997 247.833 157.997L247.068 161.225C247.155 161.416 247.252 161.602 247.358 161.783C247.358 161.783 248.181 163.606 249.562 164.628C249.498 165.136 249.369 165.633 249.176 166.107C248.876 166.827 248.745 167.607 248.793 168.385C248.793 168.385 247.98 172.044 248.076 173.089C248.171 174.134 247.55 176.699 247.55 176.699L246.66 184.94C246.66 184.94 246.086 192.113 246.373 194.063C246.66 196.013 246.179 198.668 246.179 198.668C246.179 198.668 246.752 204.321 246.609 204.939C246.466 205.557 245.748 208.215 246.179 209.69C246.609 211.165 246.373 215.2 246.373 215.2C246.373 215.2 246.66 220.518 246.992 222.229C247.323 223.94 246.896 226.126 246.896 226.126C246.896 226.126 246.577 229.781 246.418 229.781C246.258 229.781 245.031 232.299 247.566 234.772C250.1 237.244 248.522 236.859 248.522 236.859C248.522 236.859 246.513 235.861 246.749 237.904C246.979 239.848 247.295 239.341 247.323 239.287L246.845 240.848L247.164 240.896L246.886 241.215C246.599 241.578 246.279 241.913 245.93 242.216C245.353 242.643 245.292 243.592 245.292 243.592C245.292 243.592 241.753 247.442 238.449 249.389C236.712 250.415 235.213 251.281 234.559 251.998C233.97 252.636 234.065 253.165 235.29 253.569C237.876 254.423 242.419 254.844 245.675 253.761C247.615 253.112 249.36 251.984 250.748 250.482C250.748 250.482 252.808 249.436 254.82 249.816C256.832 250.195 260.849 247.585 260.849 247.585L260.776 246.909L260.562 244.969C260.427 244.805 260.327 244.615 260.27 244.411C260.212 244.207 260.198 243.993 260.227 243.783C260.251 243.209 260.194 242.634 260.058 242.075C260.026 241.887 259.988 241.699 259.953 241.524L260.32 241.457C260.32 241.457 259.845 239.032 260.706 238.557C261.567 238.083 261.324 231.865 261.324 231.865C261.324 231.865 260.227 230.441 259.65 230.205C259.073 229.969 259.602 227.019 259.701 226.639C259.8 226.26 260.562 218.896 260.562 218.896C260.562 218.896 260.275 216.57 260.658 215.572C261.04 214.575 260.199 210.751 260.199 210.751C260.199 210.751 259.912 210.276 260.441 209.706C260.97 209.136 260.76 204.053 260.76 204.053C260.76 204.053 260.715 201.488 260.715 200.822C260.715 200.156 261.289 197.734 261.815 196.928C262.341 196.122 262.007 193.601 262.007 193.601L262.035 193.413C262.035 193.34 262.061 193.25 262.08 193.142L262.121 192.89C262.355 191.491 262.671 190.107 263.068 188.745C263.706 186.75 264.408 183.235 264.408 183.235L268.872 171.636L268.923 171.499C268.923 171.499 270.979 175.3 270.979 178.828C270.979 178.828 271.505 183.056 271.362 184.197C271.218 185.338 271.786 190.676 271.786 190.676C271.786 190.676 272.408 198.371 272.408 198.706C272.408 199.04 273.173 204.977 273.654 205.879C274.136 206.781 273.173 209.537 272.886 209.821C272.599 210.104 272.982 217.089 272.982 217.089C272.982 217.089 272.264 222.599 272.121 223.74C271.977 224.88 271.403 229.252 271.882 230.96C272.36 232.669 272.168 232.908 272.168 232.908C272.168 232.908 273.894 234.667 272.886 234.819C272.52 234.899 272.175 235.056 271.874 235.28C271.574 235.504 271.324 235.79 271.143 236.118C270.962 236.446 270.853 236.809 270.824 237.182C270.794 237.556 270.845 237.931 270.973 238.283C271.569 240.025 272.273 241.728 273.08 243.382C273.08 243.382 273.377 243.315 273.871 243.216V243.78L273.929 246.61C273.929 246.61 274.247 249.318 274.072 249.937C273.932 250.389 273.753 252.518 273.648 253.63C273.613 254.035 273.594 254.305 273.594 254.305C273.594 254.305 273.594 256.823 278.906 256.064C284.218 255.306 285.175 253.216 285.175 253.216C285.175 253.216 285.175 253.117 285.213 252.954C285.293 252.473 285.465 251.453 285.605 250.886C285.796 250.125 284.075 246.705 284.075 246.705C284.075 246.705 283.788 244.379 283.306 243.857C283.109 243.555 282.978 243.215 282.924 242.859C282.879 242.668 282.841 242.467 282.809 242.273C282.928 242.288 283.046 242.309 283.163 242.337C283.163 242.337 282.876 240.673 283.979 240.151C285.082 239.628 284.792 238.538 284.649 238.06C284.505 237.582 285.079 234.925 285.079 234.925C285.002 234.661 284.997 234.381 285.064 234.114C285.131 233.848 285.269 233.604 285.462 233.408C286.134 232.739 286.657 228.086 286.657 228.086L286.753 210.13C286.753 210.13 287.091 206.943 286.708 205.669C286.326 204.394 285.94 201.918 286.466 201.252C286.992 200.586 286.514 197.501 286.514 197.501C286.514 197.501 286.514 190.991 287.234 189.379C287.955 187.766 287.713 177.55 287.713 177.55L287.901 170.858C287.901 170.858 289.466 169.38 289.097 161.671C290.764 161.566 292.645 161.506 292.923 161.735C293.449 162.165 296.848 164.348 298.857 162.971C299.287 162.78 301.248 161.12 301.248 161.12L300.406 146.876C300.932 147.669 301.251 148.198 301.251 148.198C301.251 146.204 306.898 139.741 306.898 139.741C306.898 139.741 312.163 132.951 313.31 132.141C314.458 131.332 316.709 127.059 316.709 127.059C317.042 126.243 317.427 125.45 317.861 124.685C318.406 123.808 316.681 121.527 316.872 121.004ZM304.52 125.988C303.085 126.131 300.056 129.41 300.021 130.13C299.998 130.506 299.679 131.01 299.383 131.405C299.361 131.118 299.335 130.825 299.313 130.529C298.975 126.332 298.608 121.218 298.774 120.72C299.064 119.866 298.965 116.02 298.965 116.02L299.016 115.947C299.973 118.926 302.98 122.441 302.98 122.441C302.98 122.441 303.506 123.961 304.127 124.009C304.749 124.057 304.52 125.988 304.52 125.988Z" fill="url(#paint0_linear)"/>
<path d="M227.784 124.908C227.784 124.908 229.528 115.762 235.143 115.714L239.247 124.152L236.511 126.039C236.511 126.039 230.567 126.227 227.784 124.908Z" fill="#65617D"/>
<path opacity="0.1" d="M239.247 124.152L236.511 126.039C236.511 126.039 232.327 126.173 229.337 125.437C228.803 125.31 228.283 125.133 227.784 124.908C227.784 124.908 227.784 124.857 227.816 124.761C227.816 124.761 227.816 124.739 227.816 124.726C228.073 123.578 228.428 122.455 228.877 121.367C229.053 120.956 229.247 120.532 229.458 120.109C230.28 118.515 231.435 116.979 233.016 116.211C233.601 115.925 234.237 115.759 234.888 115.724H235.054H235.137L235.226 115.912L236.613 118.761L239.247 124.152Z" fill="black"/>
<path d="M285.851 162.149C285.851 162.149 291.749 161.585 292.266 162.009C292.783 162.433 296.134 164.6 298.117 163.233C300.1 161.866 298.777 157.105 298.777 156.917C298.777 156.729 298.589 149.986 298.589 149.986L295.05 145.225L290.618 136.883L281.562 135.984L281.798 149.234L281.75 156.021L285.851 162.149Z" fill="#65617D"/>
<path opacity="0.1" d="M285.851 162.149C285.851 162.149 291.749 161.585 292.266 162.009C292.783 162.433 296.134 164.6 298.117 163.233C300.1 161.866 298.777 157.105 298.777 156.917C298.777 156.729 298.589 149.986 298.589 149.986L295.05 145.225L290.618 136.883L281.562 135.984L281.798 149.234L281.75 156.021L285.851 162.149Z" fill="black"/>
<path d="M233.963 115.472C233.963 115.472 233.491 121.224 229.907 121.316C229.907 121.316 228.89 120.705 227.522 119.685C224.372 117.33 219.376 112.802 220.756 108.589C222.736 102.557 232.359 113.688 232.359 113.688L233.096 114.516L233.963 115.472Z" fill="#FBBEBE"/>
<path opacity="0.1" d="M233.963 115.472C233.963 115.472 233.491 121.224 229.907 121.316C229.907 121.316 228.89 120.704 227.522 119.685L227.219 119.293C227.828 119.61 228.498 119.79 229.183 119.822C229.723 119.843 230.255 119.7 230.711 119.412C231.167 119.123 231.524 118.703 231.734 118.206C232.111 117.467 232.443 116.705 232.726 115.925C232.9 115.47 233.025 114.998 233.096 114.516L233.963 115.472Z" fill="black"/>
<path d="M232.407 125.899L231.6 124.86L228.884 121.355L227.5 119.567C228.108 119.886 228.778 120.066 229.464 120.096C230.367 120.118 231.377 119.777 232.015 118.484C232.391 117.743 232.723 116.98 233.007 116.199C233.453 114.924 233.447 114.287 233.287 114.054C233.128 113.822 234.288 114.908 234.846 115.437L234.866 115.456L235.127 115.702L235.223 115.893L236.591 118.624C236.591 118.624 236.591 118.662 236.591 118.738C236.724 119.615 237.187 125.118 232.407 125.899Z" fill="#E7EFFD"/>
<path d="M260.664 247.241C260.664 247.241 256.701 249.835 254.721 249.471C252.741 249.108 250.71 250.134 250.71 250.134C249.344 251.624 247.623 252.744 245.707 253.388C242.518 254.471 238.022 254.044 235.475 253.197C234.269 252.795 234.17 252.279 234.751 251.638C235.388 250.924 236.874 250.067 238.577 249.048C241.833 247.117 245.321 243.312 245.321 243.312C245.321 243.312 245.369 242.356 245.936 241.948C246.286 241.647 246.606 241.314 246.893 240.954C247.4 240.355 247.875 239.73 247.875 239.73L259.532 240.068C259.532 240.068 259.73 240.906 259.886 241.763C260.019 242.319 260.074 242.891 260.049 243.461C260.019 243.669 260.032 243.88 260.087 244.082C260.141 244.285 260.237 244.473 260.368 244.637L260.578 246.549L260.664 247.241Z" fill="#65617D"/>
<path d="M285.05 250.494C284.91 251.058 284.731 252.069 284.664 252.543L284.623 252.805C284.623 252.805 283.666 254.879 278.447 255.634C273.227 256.39 273.211 253.888 273.211 253.888C273.211 253.888 273.23 253.621 273.262 253.216C273.355 252.113 273.543 250.001 273.683 249.551C273.868 248.939 273.54 246.25 273.54 246.25L273.485 243.443L273.444 241.492L282.126 240.594C282.18 241.243 282.274 241.888 282.407 242.525C282.46 242.879 282.59 243.217 282.786 243.516C283.258 244.035 283.539 246.346 283.539 246.346C283.539 246.346 285.238 249.739 285.05 250.494Z" fill="#65617D"/>
<path opacity="0.1" d="M259.532 240.068C259.532 240.068 259.73 240.906 259.886 241.763C258.627 241.996 253.123 242.949 251.749 242.283C250.19 241.527 246.842 241.104 246.842 241.104L246.896 240.912C247.403 240.313 247.878 239.689 247.878 239.689L259.532 240.068Z" fill="black"/>
<path opacity="0.1" d="M282.407 242.525C280.207 242.152 275.392 243.054 273.479 243.443L273.438 241.492L282.12 240.594C282.176 241.243 282.271 241.888 282.407 242.525Z" fill="black"/>
<path d="M287.301 171.059L287.113 177.706C287.113 177.706 287.349 187.843 286.641 189.446C285.934 191.048 285.934 197.508 285.934 197.508C285.934 197.508 286.405 200.57 285.886 201.23C285.366 201.889 285.745 204.34 286.122 205.614C286.498 206.889 286.17 210.047 286.17 210.047L286.074 227.866C286.074 227.866 285.557 232.484 284.894 233.146C284.704 233.342 284.569 233.585 284.503 233.849C284.437 234.114 284.442 234.392 284.518 234.654C284.518 234.654 283.953 237.292 284.094 237.767C284.234 238.242 284.518 239.322 283.434 239.838C282.35 240.355 282.63 242.008 282.63 242.008C280.038 241.393 272.679 243.047 272.679 243.047C271.884 241.409 271.19 239.723 270.603 238C270.476 237.651 270.425 237.279 270.454 236.909C270.482 236.539 270.589 236.179 270.768 235.854C270.947 235.528 271.193 235.245 271.49 235.022C271.787 234.799 272.128 234.642 272.491 234.561C273.479 234.418 271.783 232.675 271.783 232.675C271.783 232.675 271.971 232.439 271.499 230.744C271.027 229.049 271.591 224.689 271.735 223.574C271.878 222.459 272.583 216.975 272.583 216.975C272.583 216.975 272.207 210.047 272.491 209.763C272.774 209.48 273.715 206.746 273.246 205.85C272.778 204.955 272.015 199.063 272.015 198.731C272.015 198.4 271.406 190.765 271.406 190.765C271.406 190.765 270.839 185.437 270.982 184.306C271.126 183.174 270.603 178.981 270.603 178.981C270.603 175.476 268.575 171.719 268.575 171.719L268.524 171.856L264.153 183.366C264.153 183.366 263.445 186.852 262.832 188.831C262.445 190.176 262.138 191.544 261.911 192.925L261.869 193.177C261.869 193.282 261.838 193.371 261.828 193.442L261.799 193.633C261.799 193.633 262.118 196.131 261.608 196.934C261.098 197.737 260.524 200.14 260.524 200.799C260.524 201.459 260.572 204.005 260.572 204.005C260.572 204.005 260.76 209.049 260.253 209.617C259.746 210.184 260.014 210.652 260.014 210.652C260.014 210.652 260.862 214.476 260.486 215.461C260.109 216.446 260.393 218.759 260.393 218.759C260.393 218.759 259.638 226.069 259.545 226.445C259.453 226.821 258.93 229.746 259.497 229.982C260.065 230.218 261.146 231.63 261.146 231.63C261.146 231.63 261.385 237.808 260.533 238.277C259.682 238.745 260.154 241.145 260.154 241.145C260.154 241.145 253.318 242.464 251.762 241.709C250.206 240.954 246.855 240.53 246.855 240.53L247.323 238.981C247.295 239.035 246.982 239.539 246.759 237.608C246.526 235.581 248.506 236.569 248.506 236.569C248.506 236.569 250.062 236.948 247.55 234.498C245.037 232.047 246.274 229.546 246.418 229.546C246.561 229.546 246.893 225.919 246.893 225.919C246.893 225.919 247.317 223.749 246.985 222.051C246.654 220.352 246.373 215.072 246.373 215.072C246.373 215.072 246.609 211.067 246.185 209.607C245.761 208.148 246.466 205.503 246.609 204.891C246.753 204.279 246.169 198.684 246.169 198.684C246.169 198.684 246.641 196.045 246.357 194.114C246.073 192.183 246.641 185.061 246.641 185.061L247.489 176.859C247.489 176.859 248.101 174.309 248.009 173.274C247.916 172.238 248.72 168.608 248.72 168.608C248.672 167.836 248.8 167.062 249.096 166.346C249.568 165.39 249.756 162.293 249.756 162.293L254.287 151.92L256.519 142.775L286.469 142.491C286.469 142.491 286.581 143.285 286.763 144.722C286.944 146.159 287.199 148.294 287.483 150.929C287.745 153.322 288.032 156.136 288.309 159.269C289.215 169.268 287.301 171.059 287.301 171.059Z" fill="#3F3D56"/>
<path d="M284.531 88.5136L277.548 95.9639C277.548 95.9639 268.588 92.379 269.532 91.1553C269.895 90.6805 269.85 89.1828 269.627 87.5322C269.308 84.9192 268.588 81.9142 268.588 81.9142C268.588 81.9142 284.247 79.365 282.936 82.0066C282.455 82.9626 282.538 84.097 282.837 85.139C283.217 86.3475 283.788 87.487 284.531 88.5136Z" fill="#FBBEBE"/>
<path opacity="0.1" d="M282.927 82.0131C282.445 82.969 282.216 83.071 282.515 84.113C280.468 86.3022 277.863 88.7049 274.624 88.7049C272.89 88.7076 271.179 88.3072 269.627 87.5354C269.308 84.9224 268.588 81.9175 268.588 81.9175C268.588 81.9175 284.247 79.3682 282.927 82.0131Z" fill="black"/>
<path d="M285.854 77.1981C285.804 80.1415 284.599 82.9476 282.499 85.0116C280.399 87.0756 277.571 88.2322 274.625 88.2322C271.68 88.2322 268.852 87.0756 266.752 85.0116C264.651 82.9476 263.446 80.1415 263.397 77.1981C263.397 77.144 263.397 77.0898 263.397 77.0388C263.418 74.0631 264.621 71.2176 266.741 69.1284C267.791 68.0939 269.035 67.2763 270.401 66.7221C271.767 66.1679 273.229 65.888 274.703 65.8985C276.178 65.9089 277.636 66.2095 278.994 66.783C280.352 67.3566 281.584 68.1918 282.619 69.2411C283.654 70.2903 284.472 71.5331 285.027 72.8984C285.581 74.2636 285.861 75.7247 285.851 77.1981H285.854Z" fill="#FBBEBE"/>
<path opacity="0.1" d="M287.477 151.219C285.991 151.219 281.039 151.273 275.504 151.359H275.437L273.61 151.391H273.552C266.99 151.496 260.521 150.215 257.928 150.458C252.412 150.974 259.912 145.359 259.912 145.359C264.024 146.358 268.255 146.787 272.484 146.634L274.078 146.551C279.091 146.267 284.132 145.796 286.766 145.005C286.941 146.465 287.193 148.584 287.477 151.219Z" fill="black"/>
<path d="M287.477 150.936C285.991 150.936 281.039 150.99 275.504 151.076H275.437L273.61 151.108H273.552C266.99 151.213 260.521 149.932 257.928 150.174C252.412 150.694 259.912 145.076 259.912 145.076C264.024 146.074 268.255 146.503 272.484 146.35L274.078 146.267C279.091 145.984 284.132 145.512 286.766 144.725C286.941 146.185 287.193 148.294 287.477 150.936Z" fill="#5F5D7E"/>
<path opacity="0.1" d="M271.607 91.6237L262.928 95.6803L256.232 147.44C256.232 147.44 260.192 145.649 262.459 146.78C264.726 147.912 271.706 146.876 271.706 146.876C271.706 146.876 276.808 146.592 277.557 147.16C278.306 147.727 287.174 144.789 287.174 144.789C287.174 144.789 288.768 141.207 287.55 140.646C286.332 140.085 287.939 134.525 287.939 134.525L287.174 97.1875L285.662 92.379L281.607 89.9285L277.461 93.2266L275.481 93.5102L271.607 91.6237Z" fill="black"/>
<path d="M271.607 91.0598L262.928 95.1131L256.232 146.876C256.232 146.876 260.192 145.085 262.459 146.216C264.726 147.348 271.706 146.309 271.706 146.309C271.706 146.309 276.808 146.028 277.557 146.592C278.306 147.156 287.18 144.234 287.18 144.234C287.18 144.234 288.774 140.653 287.556 140.092C286.338 139.531 287.939 133.954 287.939 133.954L287.174 96.6204L285.662 91.815L281.607 89.3613L277.461 92.6626L275.481 92.9462L271.607 91.0598Z" fill="#E7EFFD"/>
<path opacity="0.1" d="M271.464 93.4623C271.464 93.4623 273.964 96.4322 273.919 97.0472C273.874 97.6623 273.776 99.1217 273.776 99.1217L271.888 102.946C271.888 102.946 270.852 107.706 270.852 108.697C270.852 109.688 269.2 118.257 269.2 118.257L267.213 131.459L264.714 148.762L267.264 153.144L270.281 150.595L274.292 119.761L275.14 113.681C275.14 113.681 276.036 102.745 276.036 101.614C276.036 100.482 275.52 97.5125 275.52 97.5125C275.52 97.5125 276.132 94.6828 278.68 94.0072C281.227 93.3317 278.491 93.8638 278.491 93.8638L277.028 92.688L275.752 93.2042C275.752 93.2042 272.22 92.1431 271.464 93.4623Z" fill="black"/>
<path d="M271.18 93.182C271.18 93.182 273.683 96.1519 273.635 96.7637C273.587 97.3755 273.492 98.8382 273.492 98.8382L271.607 102.662C271.607 102.662 270.568 107.423 270.568 108.414C270.568 109.405 268.916 117.974 268.916 117.974L266.936 131.173L264.436 148.476L266.987 152.86L270.007 150.311L274.015 119.481L274.866 113.404C274.866 113.404 275.762 102.468 275.762 101.336C275.762 100.205 275.245 97.2353 275.245 97.2353C275.245 97.2353 275.858 94.4056 278.405 93.746C280.953 93.0864 278.217 93.6058 278.217 93.6058L276.754 92.4268L275.478 92.9462C275.478 92.9462 271.936 91.8595 271.18 93.182Z" fill="#6C63FF"/>
<path opacity="0.1" d="M269.532 88.23C269.532 88.23 269.152 88.5136 269.06 90.4C268.967 92.2865 267.644 96.5278 267.644 96.5278C267.644 96.5278 272.551 93.1341 275.003 93.5101L269.532 88.23Z" fill="black"/>
<path d="M269.532 87.666C269.532 87.666 269.152 87.9464 269.06 89.8329C268.967 91.7194 267.644 95.9607 267.644 95.9607C267.644 95.9607 272.551 92.567 275.003 92.9462L269.532 87.666Z" fill="#E7EFFD"/>
<path opacity="0.1" d="M282.927 86.7227L275.185 93.5101C275.185 93.5101 281.696 97.3754 282.544 98.3186C283.392 99.2619 284.24 89.0775 284.24 89.0775L282.927 86.7227Z" fill="black"/>
<path d="M283.21 86.1555L275.475 92.9461C275.475 92.9461 281.983 96.8115 282.837 97.7547C283.692 98.6979 284.534 88.5136 284.534 88.5136L283.21 86.1555Z" fill="#E7EFFD"/>
<path opacity="0.1" d="M269.812 88.2299C269.812 88.2299 268.964 87.8061 268.164 89.033C267.574 89.8327 266.774 90.4527 265.852 90.8238C265.852 90.8238 257.265 92.1909 256.924 93.3221L252.913 93.5579C252.913 93.5579 251.497 93.7459 251.357 96.7158C251.216 99.6857 250.461 99.9693 250.461 99.9693C250.461 99.9693 248.809 102.891 248.953 104.399C249.096 105.906 247.677 106.664 247.677 106.664L253.573 121.985C253.573 121.985 253.764 128.301 252.677 130.612C251.589 132.922 249.565 143.151 249.565 143.151C249.565 143.151 250.413 142.963 250.365 143.527C250.317 144.091 249.358 150.27 249.358 150.27C249.358 150.27 249.074 152.72 248.602 153.571C248.13 154.422 248.082 158.848 248.082 158.848L247.33 162.054C247.33 162.054 249.122 166.062 251.857 165.495C254.593 164.928 259.545 154.231 259.545 154.231L262.708 142.679L265.16 131.271L265.868 123.541L267 106.429L268.651 95.113C268.651 95.113 270.475 89.0234 269.812 88.2299Z" fill="black"/>
<path d="M269.532 87.6659C269.532 87.6659 268.68 87.2421 267.88 88.4658C267.292 89.2666 266.491 89.8869 265.568 90.2566C265.568 90.2566 256.985 91.6237 256.64 92.7549L252.629 92.9907C252.629 92.9907 251.216 93.1819 251.073 96.1518C250.929 99.1217 250.177 99.4022 250.177 99.4022C250.177 99.4022 248.525 102.327 248.669 103.835C248.812 105.342 247.393 106.097 247.393 106.097L253.292 121.418C253.292 121.418 253.48 127.734 252.396 130.044C251.312 132.355 249.281 142.587 249.281 142.587C249.281 142.587 250.129 142.396 250.085 142.963C250.04 143.53 249.045 149.702 249.045 149.702C249.045 149.702 248.761 152.156 248.289 153.004C247.817 153.851 247.773 158.284 247.773 158.284L247.017 161.49C247.017 161.49 248.809 165.495 251.545 164.931C254.281 164.367 259.242 153.663 259.242 153.663L262.402 142.115L264.854 130.707L265.562 122.973L266.694 105.861L268.345 94.549C268.345 94.549 270.192 88.4658 269.532 87.6659Z" fill="#65617D"/>
<path opacity="0.1" d="M239.247 124.152L236.511 126.039C236.511 126.039 232.327 126.173 229.337 125.437L227.816 124.761L227.497 124.627L227.816 124.726C229.394 125.194 230.628 125.185 231.594 124.86C235.465 123.556 235.038 117.167 234.888 115.724C234.888 115.577 234.862 115.485 234.856 115.45C234.855 115.443 234.855 115.437 234.856 115.431L234.878 115.469C234.932 115.556 234.991 115.639 235.057 115.717C235.111 115.778 235.168 115.842 235.229 115.902L236.597 118.633C236.597 118.633 236.597 118.671 236.597 118.748L239.247 124.152Z" fill="black"/>
<path d="M248.72 105.721L247.397 106.097L247.208 108.784C247.208 108.784 245.652 108.548 245.228 110.377C244.804 112.206 244.049 113.066 244.049 113.066C244.049 113.066 241.453 115.233 241.313 117.072L239.719 118.063C239.719 118.063 235.991 117.212 235.143 115.705C235.143 115.705 236.842 127.868 227.784 124.898C227.784 124.898 237.927 129.327 238.398 129.942C238.87 130.557 241.982 132.345 244.814 130.838C247.645 129.331 248.257 127.014 248.257 127.014C248.257 127.014 250.993 123.19 251.086 122.629C251.178 122.068 253.318 121.402 253.318 121.402L257.374 111.597L248.72 105.721Z" fill="#65617D"/>
<path opacity="0.1" d="M281.843 92.3789L283.21 86.1555C283.21 86.1555 283.823 88.1822 284.438 88.6538L286.466 90.212C286.466 90.212 288.494 91.1521 289.202 91.1521C289.91 91.1521 293.73 92.1431 294.201 92.6625C294.673 93.182 296.561 92.8027 296.561 92.8027C296.561 92.8027 298.117 93.3222 299.485 93.6504C300.853 93.9786 301.513 96.2443 301.229 97.1556C301.114 97.6016 301.114 98.0695 301.23 98.5155C301.345 98.9614 301.572 99.3707 301.889 99.7049C302.457 100.272 302.74 102.111 302.74 102.111C303.431 102.339 304.004 102.83 304.335 103.478C304.807 104.513 304.654 106.776 304.654 106.776L297.639 116.677C297.639 116.677 297.731 120.501 297.451 121.345C297.17 122.189 298.439 136.618 298.439 136.618L299.903 161.413C299.903 161.413 297.967 163.064 297.543 163.252C297.119 163.44 296.695 154.486 296.695 154.154C296.695 153.823 285.8 137.842 285.8 137.842C285.8 137.842 284.336 135.487 284.336 134.974C284.336 134.461 282.968 129.694 282.968 129.694L280.892 120.501L281.843 92.3789Z" fill="black"/>
<path d="M305.256 106.231C305.256 106.55 305.256 106.773 305.256 106.773L298.241 116.651C298.241 116.651 298.337 120.475 298.056 121.316C297.891 121.81 298.251 126.883 298.586 131.051C298.822 134.056 299.045 136.59 299.045 136.59L299.667 147.105L300.505 161.381C300.505 161.381 298.573 163.032 298.149 163.22C297.725 163.408 297.301 154.454 297.301 154.122C297.301 153.791 286.402 137.813 286.402 137.813C286.402 137.813 284.939 135.452 284.939 134.945C284.939 134.439 283.571 129.665 283.571 129.665L281.498 120.472L282.439 92.3757L283.21 86.1555C283.21 86.1555 284.39 88.1854 285.002 88.6538L287.03 90.2089C287.03 90.2089 289.058 91.1648 289.766 91.1648C290.474 91.1648 294.297 92.1527 294.769 92.6721C295.241 93.1915 297.125 92.8123 297.125 92.8123C297.125 92.8123 298.681 93.3317 300.049 93.6599C301.417 93.9882 302.08 96.2538 301.797 97.1652C301.681 97.6111 301.681 98.0792 301.796 98.5253C301.912 98.9713 302.139 99.3806 302.457 99.7145C303.021 100.278 303.305 102.117 303.305 102.117C303.996 102.347 304.568 102.839 304.899 103.487C305.237 104.173 305.269 105.482 305.256 106.231Z" fill="#65617D"/>
<path opacity="0.1" d="M247.597 231.827C247.83 231.827 257.737 232.203 257.549 233.806C257.361 235.409 247.597 231.827 247.597 231.827Z" fill="black"/>
<path opacity="0.1" d="M249.813 234.513C249.813 234.513 256.465 235.597 254.717 236.588C252.97 237.579 249.813 234.513 249.813 234.513Z" fill="black"/>
<path opacity="0.1" d="M274.547 230.789C274.547 230.789 285.586 231.745 283.934 232.959C282.283 234.173 278.367 234.37 278.195 234.418C278.023 234.466 274.547 230.789 274.547 230.789Z" fill="black"/>
<path opacity="0.1" d="M273.211 235.645C273.211 235.645 279.343 236.68 279.531 237.875C279.719 239.07 273.211 235.645 273.211 235.645Z" fill="black"/>
<path opacity="0.1" d="M276.607 207.265C276.607 207.265 282.219 208.584 282.55 209.496L276.607 207.265Z" fill="black"/>
<path opacity="0.1" d="M254.953 211.318C254.953 211.318 252.03 212.166 254.861 213.868C257.692 215.569 254.953 211.318 254.953 211.318Z" fill="black"/>
<path opacity="0.1" d="M267.928 166.015C268.246 166.015 273.399 164.319 275.191 165.059C276.474 165.54 277.829 165.798 279.199 165.82L267.928 166.015Z" fill="black"/>
<path opacity="0.1" d="M268.588 171.387L268.537 171.856L264.152 183.365C264.152 183.365 263.445 186.852 262.832 188.83C262.445 190.176 262.138 191.543 261.911 192.925L265.804 168.796L268.588 171.387Z" fill="black"/>
<path d="M275.437 151.076L273.61 151.108H273.552L272.481 146.357L274.075 146.271L275.437 151.076Z" fill="#3F3D56"/>
<path d="M297.693 145.321L296.516 146.277L292.598 149.505C292.598 149.505 281.983 155.164 279.059 149.788C276.483 145.053 288.516 141.672 291.415 140.936C291.807 140.837 292.03 140.786 292.03 140.786L297.693 145.321Z" fill="#FBBEBE"/>
<path opacity="0.1" d="M252.361 98.9783C252.361 98.9783 254.437 99.9342 254.912 101.241C255.387 102.547 252.361 98.9783 252.361 98.9783Z" fill="black"/>
<path opacity="0.1" d="M245.946 113.12C245.946 113.12 242.926 116.798 244.154 118.219C245.381 119.64 245.946 113.12 245.946 113.12Z" fill="black"/>
<path opacity="0.1" d="M299.909 101.053C299.909 101.053 297.077 101.336 296.985 103.787L299.909 101.053Z" fill="black"/>
<path opacity="0.1" d="M273.683 139.709C273.964 139.426 280.475 129.809 281.973 130.659L273.683 139.709Z" fill="black"/>
<path opacity="0.1" d="M285.854 77.1981C285.857 79.0463 285.4 80.8662 284.524 82.4943L284.441 82.4783C283.73 82.3285 283.36 81.5 282.815 80.9838C282.481 80.6653 282.055 80.4595 281.597 80.3955C281.14 80.3315 280.673 80.4124 280.264 80.6269C279.852 80.8744 279.517 81.2318 279.296 81.6589C279.075 82.0861 278.978 82.5662 279.014 83.0455C278.654 81.5351 278.769 79.9322 278.418 78.4186C278.067 76.905 277.012 75.3754 275.564 75.3499C274.927 75.3499 274.216 75.5762 273.763 75.1109C273.492 74.8305 273.444 74.3876 273.233 74.0434C272.2 72.3736 269.053 73.2181 267.768 74.0753C266.483 74.9325 264.994 76.3059 263.397 77.0388C263.418 74.0631 264.621 71.2176 266.741 69.1284C267.791 68.0939 269.035 67.2763 270.401 66.7221C271.767 66.1679 273.229 65.888 274.703 65.8985C276.178 65.9089 277.636 66.2095 278.994 66.783C280.352 67.3566 281.584 68.1918 282.619 69.2411C283.654 70.2903 284.472 71.5331 285.027 72.8984C285.581 74.2636 285.861 75.7247 285.851 77.1981H285.854Z" fill="black"/>
<path d="M273.237 73.7629C273.441 74.1039 273.495 74.5468 273.766 74.8272C274.216 75.2956 274.946 75.0535 275.567 75.0662C277.015 75.0917 278.071 76.6213 278.421 78.1349C278.772 79.6485 278.657 81.2514 279.018 82.7618C278.98 82.2821 279.078 81.8015 279.299 81.3741C279.521 80.9468 279.857 80.5898 280.271 80.3432C280.68 80.1287 281.146 80.0478 281.603 80.1118C282.061 80.1758 282.487 80.3816 282.821 80.7001C283.367 81.2163 283.737 82.0448 284.448 82.1946C285.159 82.3444 285.844 81.6625 286.102 80.92C286.361 80.1775 286.342 79.349 286.511 78.5715C286.829 77.1024 287.786 75.8947 288.322 74.4958C288.954 72.7948 288.937 70.9208 288.274 69.2316C287.92 68.3457 287.394 67.549 287.034 66.6664C286.491 65.3216 286.351 63.7984 285.688 62.5238C284.578 60.3792 281.964 59.3085 279.811 60.1147C278.788 60.4971 277.898 61.2428 276.856 61.5774C275.462 62.0267 273.97 61.6889 272.529 61.4881C271.088 61.2874 269.49 61.2683 268.329 62.2147C266.993 63.3077 266.63 65.3598 265.374 66.558C264.848 67.0615 264.194 67.3833 263.639 67.8326C263.084 68.282 262.603 68.9894 262.683 69.7446C262.765 70.7197 263.722 71.6056 263.368 72.5106C263.241 72.773 263.063 73.0079 262.845 73.2021C261.795 74.3025 261.013 75.6309 260.562 77.0833C263.084 77.8736 265.817 75.0917 267.794 73.7756C269.06 72.9376 272.204 72.0899 273.237 73.7629Z" fill="#7C5C5C"/>
<path opacity="0.1" d="M297.693 145.321L296.516 146.277C295.48 144.556 291.23 141.115 291.23 141.115L291.415 140.936C291.807 140.837 292.03 140.786 292.03 140.786L297.693 145.321Z" fill="black"/>
<path d="M298.825 143.575C298.825 143.575 298.401 144.626 297.967 145.531C297.534 146.436 297.055 147.265 297.033 146.592C296.985 145.273 291.514 140.841 291.514 140.841L292.256 140.121L293.114 139.286L298.825 143.575Z" fill="#E7EFFD"/>
<path opacity="0.1" d="M299.013 136.596L299.635 147.112C298.168 144.833 294.144 138.996 291.558 139.184L297.824 131.979C298.085 131.689 298.325 131.381 298.544 131.058C298.78 134.063 299.013 136.596 299.013 136.596Z" fill="black"/>
<path opacity="0.1" d="M298.825 143.575C298.825 143.575 298.401 144.626 297.967 145.531C296.322 143.278 294.061 140.617 292.256 140.114L293.114 139.279L298.825 143.575Z" fill="black"/>
<path d="M303.541 105.438L305.24 106.757C305.24 106.757 308.069 106.805 308.352 109.163C308.636 111.521 311.222 112.604 311.222 112.604C311.222 112.604 313.154 114.535 313.154 115.431C313.154 116.326 314.618 117.929 314.618 118.072C314.618 118.216 316.034 121.09 315.842 121.606C315.651 122.122 317.354 124.388 316.834 125.236C316.408 125.997 316.03 126.785 315.702 127.594C315.702 127.594 313.486 131.838 312.354 132.638C311.222 133.438 306.031 140.181 306.031 140.181C306.031 140.181 300.467 146.592 300.467 148.571C300.467 148.571 295.046 139.521 291.832 139.757L298.107 132.543C298.107 132.543 299.192 131.367 299.239 130.659C299.287 129.952 302.259 126.698 303.675 126.558C303.675 126.558 303.907 124.624 303.295 124.576C302.683 124.528 302.163 123.021 302.163 123.021C302.163 123.021 298.018 118.12 297.964 115.007C297.91 111.894 303.541 105.438 303.541 105.438Z" fill="#65617D"/>
<path opacity="0.1" d="M306.041 109.915C306.041 109.915 302.08 112.84 302.929 113.78C303.777 114.72 306.041 109.915 306.041 109.915Z" fill="black"/>
<path opacity="0.1" d="M306.229 121.986C306.229 121.986 313.588 119.627 314.344 121.986H306.229Z" fill="black"/>
<path opacity="0.1" d="M260.664 247.241C260.664 247.241 256.701 249.835 254.721 249.472C252.741 249.108 250.71 250.134 250.71 250.134C249.344 251.624 247.623 252.744 245.707 253.388C242.518 254.471 238.022 254.044 235.475 253.197C234.269 252.795 234.17 252.279 234.751 251.638C237.522 252.19 243.711 253.289 245.378 252.489C247.546 251.45 250.662 249.188 250.662 249.188C250.662 249.188 254.721 248.624 255.285 248.624C255.687 248.624 258.821 247.33 260.591 246.591L260.664 247.241Z" fill="black"/>
<path opacity="0.1" d="M284.664 252.543L284.623 252.805C284.623 252.805 283.666 254.879 278.447 255.634C273.227 256.39 273.211 253.888 273.211 253.888C273.211 253.888 273.23 253.621 273.262 253.216C274.92 253.844 278.536 254.545 284.664 252.543Z" fill="black"/>
<path opacity="0.1" d="M254.319 109.351C254.319 109.351 254.319 120.099 253.397 121.16C252.476 122.221 254.319 109.351 254.319 109.351Z" fill="black"/>
<path opacity="0.1" d="M296.842 112.814L298.209 116.657C298.209 116.657 298.755 112.885 296.842 112.814Z" fill="black"/>
<g opacity="0.1">
<path opacity="0.1" d="M263.489 71.6087C263.834 70.7229 262.928 69.8561 262.81 68.9065C262.69 69.1744 262.639 69.4678 262.66 69.7605C262.721 70.4743 263.247 71.1403 263.387 71.8031C263.427 71.7414 263.461 71.6763 263.489 71.6087Z" fill="black"/>
<path opacity="0.1" d="M279.145 81.7612C278.807 80.2762 278.906 78.7021 278.562 77.2139C278.217 75.7258 277.155 74.1707 275.711 74.1452C275.073 74.1452 274.359 74.3747 273.909 73.9094C273.635 73.629 273.591 73.1829 273.377 72.8419C272.344 71.1689 269.2 72.0166 267.912 72.8738C265.999 74.1484 263.333 76.8347 260.859 76.2293C260.741 76.5129 260.632 76.8028 260.54 77.0992C263.062 77.8895 265.795 75.1076 267.771 73.7915C269.047 72.9375 272.204 72.0899 273.237 73.7628C273.441 74.1038 273.495 74.5467 273.766 74.8272C274.216 75.2956 274.946 75.0534 275.567 75.0662C277.015 75.0916 278.07 76.6212 278.421 78.1348C278.772 79.6485 278.657 81.2513 279.017 82.7618C278.994 82.4231 279.038 82.0832 279.145 81.7612Z" fill="black"/>
<path opacity="0.1" d="M286.236 79.9957C285.981 80.7414 285.309 81.4297 284.582 81.2704C283.855 81.1111 283.501 80.2921 282.959 79.7727C282.622 79.4576 282.196 79.2544 281.739 79.1911C281.283 79.1278 280.817 79.2074 280.408 79.419C280.014 79.6532 279.691 79.9883 279.471 80.3894C279.25 80.7905 279.141 81.2432 279.155 81.7006C279.346 81.125 279.742 80.6396 280.267 80.3367C280.677 80.1222 281.143 80.0413 281.6 80.1053C282.058 80.1693 282.484 80.3751 282.818 80.6936C283.364 81.2098 283.733 82.0383 284.444 82.1881C285.155 82.3379 285.841 81.656 286.099 80.9135C286.234 80.4726 286.32 80.0185 286.358 79.5592C286.327 79.7071 286.286 79.853 286.236 79.9957Z" fill="black"/>
<path opacity="0.1" d="M288.456 73.5715C287.926 74.9704 286.963 76.175 286.645 77.6472C286.581 77.9435 286.543 78.2462 286.507 78.5522C286.826 77.0863 287.783 75.885 288.315 74.4893C288.55 73.8614 288.697 73.204 288.752 72.5359C288.68 72.8881 288.58 73.2343 288.456 73.5715Z" fill="black"/>
</g>
<path d="M220.287 107.706C220.351 107.706 220.402 107.655 220.402 107.592C220.402 107.528 220.351 107.477 220.287 107.477C220.224 107.477 220.173 107.528 220.173 107.592C220.173 107.655 220.224 107.706 220.287 107.706Z" fill="#E6E8EC"/>
<path opacity="0.1" d="M261.018 255.774C276.223 255.774 288.548 254.518 288.548 252.967C288.548 251.417 276.223 250.16 261.018 250.16C245.814 250.16 233.488 251.417 233.488 252.967C233.488 254.518 245.814 255.774 261.018 255.774Z" fill="#6C63FF"/>
<path d="M159.785 68.8173L76.4005 122.881L130.816 220.964C131.071 221.423 131.417 221.824 131.834 222.142C132.251 222.46 132.73 222.688 133.24 222.812L182.544 234.832C183.389 235.036 184.279 234.945 185.064 234.573C185.85 234.202 186.484 233.572 186.862 232.79L211.318 182.011L238.121 146.204L174.516 71.0001C172.746 68.9084 170.274 67.5329 167.562 67.1311C164.851 66.7293 162.086 67.3288 159.785 68.8173Z" fill="#DCDFED"/>
<path opacity="0.1" d="M238.969 146.627L238.733 146.946L223.033 167.923L222.749 168.303L212.166 182.441L191.249 225.878L190.663 227.092L187.71 233.22C187.332 234.004 186.697 234.634 185.91 235.006C185.123 235.378 184.232 235.468 183.386 235.262L134.082 223.236C133.572 223.112 133.093 222.884 132.676 222.566C132.259 222.248 131.912 221.847 131.658 221.388L126.917 212.857L126.066 211.322L91.8427 149.61L91.5494 149.084L77.2455 123.305L78.9737 122.183L92.0755 113.691L92.3784 113.493L119.969 95.6037L121.71 94.4756L160.626 69.241C162.927 67.7497 165.694 67.1483 168.407 67.5496C171.12 67.9508 173.594 69.3272 175.364 71.4207L204.38 105.74L205.655 107.27L226.716 132.17L226.83 132.307L237.42 144.824L238.752 146.401L238.969 146.627Z" fill="black"/>
<path opacity="0.1" d="M226.014 131.883L223.444 149.728L222.669 155.113L222.226 166.585L222.191 167.481L219.886 227.42C219.864 227.976 219.719 228.521 219.464 229.015C219.208 229.51 218.846 229.942 218.405 230.281C217.964 230.621 217.453 230.859 216.91 230.98C216.366 231.101 215.803 231.101 215.259 230.98L190.407 225.435L190.14 225.375L126.404 211.159L125.233 210.898L90.1942 203.078L90.9977 149.186L91.0232 147.386L91.2656 131.074L91.5334 113.07L119.124 95.1801L120.865 94.052C146.456 96.6746 180.491 101.719 203.548 105.317L204.823 106.846L225.867 131.746L226.014 131.883Z" fill="black"/>
<path d="M228.925 110.724L225.899 131.756L223.125 151.015L222.35 156.388L221.907 167.86L219.567 228.695C219.545 229.251 219.4 229.795 219.145 230.29C218.889 230.784 218.528 231.216 218.086 231.556C217.645 231.895 217.135 232.134 216.591 232.254C216.047 232.375 215.484 232.375 214.94 232.254L189.821 226.649L126.085 212.434L89.8753 204.352L90.7043 148.66L90.9467 132.348L91.2304 113.267L91.5206 93.6407C97.5087 93.3571 107.361 93.9976 119.124 95.1798C145.461 97.8215 181.365 103.165 204.839 106.846C219.213 109.099 228.925 110.724 228.925 110.724Z" fill="#6C63FF"/>
<path opacity="0.1" d="M236.603 144.4L223.125 151.006L154.338 184.72L90.9467 132.361L78.1319 121.759L76.4037 122.881L90.7076 148.66L89.8785 204.352L126.088 212.434L130.82 220.964C131.074 221.423 131.42 221.824 131.837 222.142C132.254 222.461 132.733 222.689 133.243 222.812L182.548 234.832C183.392 235.036 184.281 234.944 185.066 234.572C185.851 234.201 186.484 233.571 186.862 232.79L189.814 226.662L214.934 232.267C215.477 232.388 216.041 232.388 216.585 232.267C217.128 232.146 217.639 231.908 218.08 231.568C218.521 231.229 218.883 230.797 219.138 230.302C219.394 229.808 219.538 229.264 219.56 228.708L221.901 167.872L237.885 146.522L237.93 145.984L236.603 144.4Z" fill="black"/>
<path d="M76.4005 122.881L70.7153 220.177C70.6627 221.078 70.9325 221.968 71.4764 222.688C72.0203 223.407 72.8028 223.91 73.6838 224.106L224.668 257.613C225.198 257.729 225.746 257.731 226.276 257.617C226.806 257.504 227.305 257.279 227.741 256.957C228.177 256.635 228.539 256.224 228.802 255.75C229.066 255.277 229.225 254.753 229.27 254.213L238.118 146.204L154.338 187.269L76.4005 122.881Z" fill="#DCDFED"/>
<path opacity="0.1" d="M71.7547 222.405L150.193 174.042C151.355 173.338 152.728 173.067 154.07 173.277C155.412 173.487 156.636 174.164 157.527 175.189L227.733 257.017C227.988 257.31 228.112 257.1 227.733 257.017L71.7547 222.405C71.3083 222.306 71.3657 222.637 71.7547 222.405Z" fill="black"/>
<path d="M72.3159 222.325L149.945 175.46C151.172 174.719 152.621 174.435 154.038 174.657C155.454 174.88 156.746 175.595 157.686 176.677L227.258 256.638C227.373 256.771 227.443 256.937 227.459 257.112C227.474 257.287 227.434 257.463 227.344 257.614C227.254 257.766 227.119 257.885 226.957 257.955C226.796 258.025 226.617 258.042 226.445 258.005L72.5678 223.858C72.404 223.822 72.2546 223.738 72.1391 223.617C72.0235 223.495 71.9472 223.342 71.92 223.177C71.8929 223.011 71.9161 222.842 71.9867 222.69C72.0573 222.538 72.172 222.411 72.3159 222.325Z" fill="#E3E5F1"/>
</g>
<defs>
<linearGradient id="paint0_linear" x1="268.964" y1="256.198" x2="268.964" y2="58.7667" gradientUnits="userSpaceOnUse">
<stop stop-color="#808080" stop-opacity="0.25"/>
<stop offset="0.54" stop-color="#808080" stop-opacity="0.12"/>
<stop offset="1" stop-color="#808080" stop-opacity="0.1"/>
</linearGradient>
<clipPath id="clip0">
<rect x="0.5" y="0.5" width="330" height="265" fill="white"/>
</clipPath>
</defs>
</svg>
