<svg width="25" height="25" viewBox="0 0 25 25" fill="none" xmlns="http://www.w3.org/2000/svg">
<g clip-path="url(#clip0)">
<path d="M24.8964 12.625C24.8964 5.997 19.5244 0.625 12.8974 0.625C6.27044 0.625 0.898438 5.997 0.898438 12.625C0.898438 18.613 5.28644 23.577 11.0224 24.477V16.093H7.97644V12.624H11.0224V9.981C11.0224 6.973 12.8144 5.312 15.5544 5.312C16.8674 5.312 18.2404 5.546 18.2404 5.546V8.499H16.7284C15.2384 8.499 14.7734 9.424 14.7734 10.373V12.625H18.1014L17.5694 16.094H14.7734V24.478C20.5094 23.578 24.8974 18.614 24.8974 12.625H24.8964Z" fill="white"/>
</g>
<defs>
<clipPath id="clip0">
<rect x="0.898438" y="0.625" width="24" height="24" fill="white"/>
</clipPath>
</defs>
</svg>
