<svg width="476" height="342" viewBox="0 0 476 342" fill="none" xmlns="http://www.w3.org/2000/svg">
<g clip-path="url(#clip0)">
<path d="M476 205.643C476 265.224 440.538 286.028 396.793 286.028C353.049 286.028 317.587 265.224 317.587 205.643C317.587 146.062 396.793 70.266 396.793 70.266C396.793 70.266 476 146.062 476 205.643Z" fill="#F2F2F2"/>
<path d="M393.908 276.914L394.719 227.05L428.479 165.361L394.847 219.228L395.211 196.807L418.478 152.176L395.307 190.873V190.874L395.963 150.548L420.878 115.016L396.066 144.208L396.476 70.2659L393.901 168.151L394.113 164.113L368.782 125.386L393.706 171.865L391.346 216.901L391.276 215.706L362.073 174.95L391.187 219.928L390.892 225.56L390.839 225.645L390.864 226.108L384.876 340.368H392.876L393.836 281.35L422.879 236.482L393.908 276.914Z" fill="#3F3D56"/>
<path d="M42.8386 304.352C42.8386 320.464 33.2489 326.089 21.4193 326.089C9.58977 326.089 0 320.464 0 304.352C0 288.24 21.4193 267.742 21.4193 267.742C21.4193 267.742 42.8386 288.239 42.8386 304.352Z" fill="#F2F2F2"/>
<path d="M20.6393 323.625L20.8583 310.141L29.9877 293.458L20.8927 308.025L20.9913 301.962L27.2833 289.892L21.0176 300.358L21.1948 289.453L27.9326 279.844L21.223 287.738L21.3337 267.743L20.6373 294.213L20.6941 293.121L13.8442 282.648L20.5844 295.217L19.9463 307.396L19.9274 307.073L12.0304 296.051L19.9031 308.215L19.8234 309.738L19.8094 309.76L19.8157 309.886L18.1962 340.784H20.36L20.6194 324.824L28.4736 312.691L20.6393 323.625Z" fill="#3F3D56"/>
<path d="M3.01886 340.84H434.238" stroke="#3F3D56" stroke-width="2" stroke-miterlimit="10"/>
<path d="M434.468 326.343C434.468 337.241 427.982 341.046 419.98 341.046C419.795 341.046 419.61 341.044 419.425 341.04C419.054 341.032 418.687 341.015 418.324 340.99C411.103 340.479 405.493 336.478 405.493 326.343C405.493 315.854 418.912 302.619 419.92 301.64L419.922 301.638C419.961 301.6 419.98 301.581 419.98 301.581C419.98 301.581 434.468 315.445 434.468 326.343Z" fill="#6C63FF"/>
<path d="M419.452 339.379L424.751 331.984L419.439 340.191L419.425 341.04C419.054 341.032 418.687 341.015 418.324 340.99L418.895 330.087L418.891 330.002L418.901 329.986L418.954 328.956L413.629 320.729L418.971 328.184L418.984 328.403L419.415 320.165L414.856 311.663L419.471 318.719L419.92 301.64L419.922 301.581V301.638L419.847 315.106L424.386 309.766L419.828 316.266L419.708 323.642L423.946 316.563L419.691 324.727L419.623 328.828L425.776 318.975L419.601 330.258L419.452 339.379Z" fill="#3F3D56"/>
<path d="M279.998 77.6698H277.216C276.602 77.6698 276.104 78.1675 276.104 78.7814V117.796C276.104 118.41 276.602 118.907 277.216 118.907H279.998C280.613 118.907 281.111 118.41 281.111 117.796V78.7814C281.111 78.1675 280.613 77.6698 279.998 77.6698Z" fill="#3F3D56"/>
<path d="M111.71 45.3638H110.36C109.956 45.3638 109.63 45.6902 109.63 46.0929V58.2103C109.63 58.613 109.956 58.9395 110.36 58.9395H111.71C112.113 58.9395 112.44 58.613 112.44 58.2103V46.0929C112.44 45.6902 112.113 45.3638 111.71 45.3638Z" fill="#3F3D56"/>
<path d="M111.872 70.2185H110.35C109.896 70.2185 109.527 70.5865 109.527 71.0405V93.0265C109.527 93.4804 109.896 93.8484 110.35 93.8484H111.872C112.327 93.8484 112.695 93.4804 112.695 93.0265V71.0405C112.695 70.5865 112.327 70.2185 111.872 70.2185Z" fill="#3F3D56"/>
<path d="M111.81 102.116H110.362C109.929 102.116 109.578 102.466 109.578 102.898V125.168C109.578 125.6 109.929 125.95 110.362 125.95H111.81C112.243 125.95 112.593 125.6 112.593 125.168V102.898C112.593 102.466 112.243 102.116 111.81 102.116Z" fill="#3F3D56"/>
<path d="M261.473 0.5H128.554C118.982 0.5 111.221 8.25115 111.221 17.8127V323.376C111.221 332.937 118.982 340.688 128.554 340.688H261.473C271.046 340.688 278.806 332.937 278.806 323.376V17.8127C278.806 8.25115 271.046 0.5 261.473 0.5Z" fill="#3F3D56"/>
<path d="M201.016 10.659H180.082C179.401 10.659 178.848 11.211 178.848 11.8919V14.1725C178.848 14.8534 179.401 15.4054 180.082 15.4054H201.016C201.698 15.4054 202.25 14.8534 202.25 14.1725V11.8919C202.25 11.211 201.698 10.659 201.016 10.659Z" fill="#E6E8EC"/>
<path d="M208.484 15.7243C209.973 15.7243 211.18 14.519 211.18 13.0322C211.18 11.5453 209.973 10.34 208.484 10.34C206.996 10.34 205.789 11.5453 205.789 13.0322C205.789 14.519 206.996 15.7243 208.484 15.7243Z" fill="#E6E8EC"/>
<path d="M268.457 22.6562V318.535C268.457 322.06 267.054 325.441 264.558 327.933C262.061 330.426 258.676 331.826 255.147 331.825H134.881C131.352 331.826 127.967 330.426 125.47 327.933C122.974 325.441 121.572 322.06 121.571 318.535V22.6562C121.571 20.9103 121.915 19.1814 122.584 17.5684C123.253 15.9553 124.233 14.4897 125.469 13.2551C126.705 12.0206 128.173 11.0413 129.787 10.3732C131.402 9.70515 133.133 9.36137 134.881 9.36152H152.878V11.6703C152.879 14.5734 154.034 17.3573 156.089 19.4102C158.144 21.463 160.932 22.6166 163.838 22.6174H225C227.907 22.6174 230.695 21.4641 232.75 19.4111C234.806 17.3581 235.96 14.5736 235.96 11.6703V9.36152H255.147C256.895 9.36137 258.626 9.70515 260.241 10.3732C261.856 11.0413 263.323 12.0206 264.559 13.2551C265.795 14.4897 266.776 15.9553 267.444 17.5684C268.113 19.1814 268.457 20.9103 268.457 22.6562Z" fill="white"/>
<path d="M268.54 77.9532H121.401V246.744H268.54V77.9532Z" fill="#F2F2F2"/>
<path d="M132.084 270.1L131.31 269.402C128.559 266.88 126.743 265.242 126.743 263.203C126.736 262.815 126.807 262.429 126.952 262.069C127.097 261.709 127.313 261.382 127.587 261.106C127.861 260.831 128.187 260.613 128.547 260.466C128.906 260.319 129.292 260.246 129.681 260.25C130.139 260.253 130.592 260.355 131.007 260.55C131.422 260.744 131.789 261.027 132.084 261.378C132.379 261.027 132.747 260.744 133.162 260.55C133.577 260.355 134.029 260.253 134.488 260.25C134.877 260.246 135.262 260.319 135.622 260.466C135.981 260.613 136.308 260.831 136.582 261.106C136.856 261.382 137.072 261.709 137.217 262.069C137.362 262.429 137.433 262.815 137.426 263.203C137.426 265.242 135.61 266.88 132.859 269.402L132.084 270.1Z" fill="#FF6584"/>
<path d="M160.168 267.52L161.666 267.947C161.933 267.172 162.385 266.475 162.983 265.914C163.581 265.353 164.306 264.946 165.097 264.728C165.887 264.51 166.719 264.487 167.521 264.662C168.322 264.837 169.068 265.205 169.696 265.732L167.409 267.947H173.118V262.404L170.817 264.607C169.995 263.886 169.006 263.38 167.94 263.135C166.874 262.89 165.763 262.913 164.708 263.201C163.653 263.49 162.686 264.036 161.894 264.789C161.101 265.543 160.509 266.481 160.168 267.52L160.168 267.52Z" fill="#F2F2F2"/>
<path d="M131.113 65.3423C134.868 65.3423 137.911 62.3022 137.911 58.5519C137.911 54.8016 134.868 51.7615 131.113 51.7615C127.358 51.7615 124.315 54.8016 124.315 58.5519C124.315 62.3022 127.358 65.3423 131.113 65.3423Z" fill="#6C63FF"/>
<path d="M206.382 54.6716H143.253V62.4321H206.382V54.6716Z" fill="#6C63FF"/>
<path d="M189.871 281.666H126.743V289.427H189.871V281.666Z" fill="#F2F2F2"/>
<path d="M260.284 298.584H126.743V306.345H260.284V298.584Z" fill="#F2F2F2"/>
<path d="M153.936 269.609L152.264 266.685C152.664 265.726 152.703 264.654 152.376 263.668C152.048 262.682 151.374 261.847 150.479 261.317C149.584 260.787 148.528 260.597 147.504 260.783C146.48 260.969 145.558 261.518 144.907 262.329C144.256 263.14 143.921 264.158 143.961 265.197C144.002 266.235 144.417 267.224 145.13 267.981C145.843 268.739 146.805 269.213 147.84 269.319C148.875 269.424 149.914 269.152 150.764 268.553L153.936 269.609Z" fill="#F2F2F2"/>
<path d="M182.521 117.539H182.521C180.022 118.05 177.648 119.048 175.535 120.475C173.422 121.902 171.611 123.731 170.205 125.857C168.8 127.983 167.827 130.365 167.343 132.867C166.859 135.368 166.874 137.94 167.385 140.436L171.394 160.003L175.882 159.085L176.199 157.012L177.139 158.829L204.427 153.251L204.744 151.177L205.684 152.994L209.454 152.224L205.445 132.657C204.933 130.161 203.935 127.79 202.506 125.679C201.077 123.569 199.246 121.76 197.117 120.356C194.989 118.952 192.604 117.981 190.1 117.498C187.595 117.014 185.02 117.029 182.521 117.539Z" fill="#2F2E41"/>
<path d="M216.337 177.569L239.646 191.635L236.732 198.425L214.88 188.24L216.337 177.569Z" fill="#9F616A"/>
<path d="M186.715 193.575C186.715 193.575 139.611 193.575 131.841 205.701C124.072 217.827 130.385 234.803 154.665 238.683C178.945 242.563 252.758 244.503 258.585 229.952C264.412 215.401 260.042 207.156 260.042 207.156C260.042 207.156 234.79 189.695 186.715 193.575Z" fill="#6C63FF"/>
<path d="M228.477 205.216L254.214 214.916C254.214 214.916 264.898 207.156 259.556 198.425C254.214 189.695 229.934 139.251 229.934 139.251C229.934 139.251 223.136 129.551 231.876 124.216C240.617 118.88 244.017 127.611 244.017 127.611C244.017 127.611 243.531 129.551 246.93 128.096C250.33 126.641 256.642 131.491 253.243 139.251C249.844 147.012 247.416 148.952 254.7 148.467C257.33 148.292 259.644 146.409 261.527 144.075C265.136 139.6 263.525 135.997 263.252 130.257C262.784 120.426 262.019 114.016 259.556 110.15C256.157 104.814 251.301 100.449 238.675 102.874C226.049 105.299 207.596 117.425 211.967 134.886C216.337 152.347 226.049 171.749 226.049 171.749C226.049 171.749 232.848 198.91 228.477 205.216Z" fill="#6C63FF"/>
<path opacity="0.1" d="M228.477 205.216C224.282 206.37 219.013 206.933 213.341 207.107C203.444 207.413 192.304 206.54 183.408 205.55C173.798 204.479 166.805 203.276 166.805 203.276C170.054 200.249 175.046 199.051 180.912 198.614C188.196 198.071 196.83 198.692 205.168 198.425C208.242 198.318 211.318 198.549 214.341 199.114C223.539 200.865 228.477 205.216 228.477 205.216Z" fill="black"/>
<path d="M186.472 153.075C193.982 153.075 200.069 146.995 200.069 139.494C200.069 131.993 193.982 125.913 186.472 125.913C178.963 125.913 172.875 131.993 172.875 139.494C172.875 146.995 178.963 153.075 186.472 153.075Z" fill="#9F616A"/>
<path d="M184.773 150.407C184.773 150.407 187.201 159.623 184.773 160.108C182.345 160.593 176.517 163.018 176.517 163.018L183.801 165.928L197.398 178.539L209.053 184.359L214.88 182.419V171.749L206.139 158.168C206.139 158.168 200.312 160.108 198.855 153.802C197.398 147.497 194.485 145.072 194.485 145.072L184.773 150.407Z" fill="#9F616A"/>
<path d="M181.373 163.503H175.546C175.546 163.503 165.348 166.898 159.521 174.659C153.694 182.419 144.467 190.18 144.467 190.18C144.467 190.18 138.154 198.91 141.554 211.036C144.953 223.162 149.809 231.892 154.179 229.467C158.55 227.042 147.866 209.581 147.866 209.581L150.78 198.91C150.78 198.91 165.834 181.449 172.147 181.934C178.46 182.419 178.945 187.755 178.945 187.755L192.542 191.635L196.913 182.419L194.485 172.719L181.373 163.503Z" fill="#9F616A"/>
<path d="M216.337 194.06C215.419 195.634 214.746 197.338 214.341 199.114C213.735 201.737 213.4 204.416 213.341 207.107C203.444 207.413 192.304 206.54 183.408 205.55C182.621 203.455 181.757 201.044 180.912 198.614C178.634 192.047 176.517 185.344 176.517 184.359C176.517 182.419 186.715 185.814 189.143 185.329C191.571 184.844 192.542 177.084 189.143 173.204C185.744 169.323 175.789 162.775 175.789 162.775L179.188 161.805C179.188 161.805 186.715 167.383 202.254 176.599C217.794 185.814 211.481 171.264 211.481 171.264L202.497 157.44H206.382C206.382 157.44 213.909 170.293 217.794 176.114C221.679 181.934 220.222 187.755 216.337 194.06Z" fill="#3F3D56"/>
<path d="M196.094 121.172L171.467 126.206L174.56 141.3L199.187 136.266L196.094 121.172Z" fill="#2F2E41"/>
<path d="M249.116 123.003C253.138 123.003 256.4 119.746 256.4 115.727C256.4 111.709 253.138 108.452 249.116 108.452C245.093 108.452 241.831 111.709 241.831 115.727C241.831 119.746 245.093 123.003 249.116 123.003Z" fill="#3F3D56"/>
<path d="M249.116 119.608C251.261 119.608 253 117.87 253 115.727C253 113.584 251.261 111.847 249.116 111.847C246.97 111.847 245.231 113.584 245.231 115.727C245.231 117.87 246.97 119.608 249.116 119.608Z" fill="white"/>
<path d="M35.321 199.708L34.8247 203.536C34.6566 204.831 34.4885 206.128 34.3981 207.432C34.0971 211.768 34.6581 216.121 34.5105 220.465C34.3968 223.809 33.8633 227.151 34.121 230.488C34.349 233.439 35.1899 236.304 36.0261 239.143L37.2213 243.202C37.2311 243.323 37.2687 243.441 37.3313 243.545C37.3939 243.65 37.4798 243.738 37.5822 243.804C37.6847 243.87 37.8009 243.911 37.922 243.925C38.043 243.938 38.1656 243.924 38.2802 243.883L43.5693 243.404C43.2306 241.853 42.8539 240.236 42.6718 238.659C42.5278 237.411 42.4413 236.158 42.351 234.906C42.0696 231.002 41.7509 227.101 41.4323 223.2L40.8725 216.348C40.6297 213.375 40.384 210.385 39.6347 207.498C38.888 204.575 37.4027 201.893 35.321 199.708Z" fill="#6C63FF"/>
<path opacity="0.1" d="M35.321 199.708L34.8247 203.536C34.6566 204.831 34.4885 206.128 34.3981 207.432C34.0971 211.768 34.6581 216.121 34.5105 220.465C34.3968 223.809 33.8633 227.151 34.121 230.488C34.349 233.439 35.1899 236.304 36.0261 239.143L37.2213 243.202C37.2311 243.323 37.2687 243.441 37.3313 243.545C37.3939 243.65 37.4798 243.738 37.5822 243.804C37.6847 243.87 37.8009 243.911 37.922 243.925C38.043 243.938 38.1656 243.924 38.2802 243.883L43.5693 243.404C43.2306 241.853 42.8539 240.236 42.6718 238.659C42.5278 237.411 42.4413 236.158 42.351 234.906C42.0696 231.002 41.7509 227.101 41.4323 223.2L40.8725 216.348C40.6297 213.375 40.384 210.385 39.6347 207.498C38.888 204.575 37.4027 201.893 35.321 199.708Z" fill="black"/>
<path d="M44.7434 330.952C44.432 331.561 44.1609 332.191 43.932 332.836C43.3248 334.616 43.233 336.525 43.1466 338.404C43.1051 338.767 43.1388 339.134 43.2456 339.483C43.5051 340.158 44.2534 340.501 44.9529 340.688C47.8823 341.475 50.9711 340.735 53.9925 340.465C56.9581 340.2 59.9791 340.391 62.8837 339.738C63.313 339.657 63.728 339.513 64.115 339.311C64.8514 338.833 65.4007 338.116 65.6708 337.282C65.7592 337.068 65.8186 336.844 65.8475 336.615C65.9434 335.626 65.0807 334.767 64.141 334.442C63.2012 334.117 62.1795 334.171 61.1903 334.069C59.1553 333.86 57.246 332.987 55.7579 331.585C54.2697 330.183 53.2857 328.331 52.9581 326.314C52.9231 326.098 48.0667 326.225 47.5555 326.505C46.9572 326.833 46.5951 327.651 46.2581 328.204C45.7135 329.098 45.2086 330.014 44.7434 330.952Z" fill="#3F3D56"/>
<path opacity="0.1" d="M44.7434 330.952C44.432 331.561 44.1609 332.191 43.932 332.836C43.3248 334.616 43.233 336.525 43.1466 338.404C43.1051 338.767 43.1388 339.134 43.2456 339.483C43.5051 340.158 44.2534 340.501 44.9529 340.688C47.8823 341.475 50.9711 340.735 53.9925 340.465C56.9581 340.2 59.9791 340.391 62.8837 339.738C63.313 339.657 63.728 339.513 64.115 339.311C64.8514 338.833 65.4007 338.116 65.6708 337.282C65.7592 337.068 65.8186 336.844 65.8475 336.615C65.9434 335.626 65.0807 334.767 64.141 334.442C63.2012 334.117 62.1795 334.171 61.1903 334.069C59.1553 333.86 57.246 332.987 55.7579 331.585C54.2697 330.183 53.2857 328.331 52.9581 326.314C52.9231 326.098 48.0667 326.225 47.5555 326.505C46.9572 326.833 46.5951 327.651 46.2581 328.204C45.7135 329.098 45.2086 330.014 44.7434 330.952Z" fill="black"/>
<path d="M52.7955 331.412C52.4841 332.021 52.213 332.651 51.9841 333.295C51.3768 335.076 51.2851 336.985 51.1987 338.864C51.1572 339.226 51.1909 339.594 51.2976 339.943C51.5572 340.618 52.3055 340.96 53.005 341.148C55.9344 341.935 59.0231 341.194 62.0446 340.924C65.0102 340.66 68.0311 340.851 70.9358 340.198C71.3651 340.117 71.78 339.973 72.1671 339.771C72.9034 339.293 73.4527 338.576 73.7229 337.741C73.8112 337.528 73.8707 337.304 73.8996 337.074C73.9955 336.086 73.1327 335.227 72.193 334.902C71.2533 334.577 70.2316 334.63 69.2423 334.529C67.2074 334.32 65.2981 333.447 63.8099 332.045C62.3218 330.643 61.3378 328.79 61.0102 326.773C60.9751 326.558 56.1187 326.685 55.6076 326.965C55.0093 327.293 54.6472 328.111 54.3101 328.664C53.7655 329.557 53.2607 330.473 52.7955 331.412Z" fill="#3F3D56"/>
<path d="M73.7973 283.532C73.8599 293.272 71.0238 302.793 67.6974 311.949C66.3804 315.574 64.9829 319.166 63.5049 322.728C62.6299 324.838 61.644 327.18 62.5816 329.264C59.8833 328.238 57.1205 327.632 54.2719 328.106C55.3562 325.898 55.2542 323.328 55.3025 320.871C55.3967 317.534 55.7563 314.21 56.3779 310.93C57.3322 305.94 58.9693 301.104 61.2432 296.559C61.7042 295.601 62.0219 294.58 62.1862 293.53C62.4814 291.194 62.3456 288.824 61.7853 286.536C60.7459 281.47 58.7727 276.64 55.9664 272.294C55.9574 272.391 55.9485 272.489 55.9378 272.585C55.768 274.034 55.5238 275.473 55.2059 276.896C54.5689 279.913 53.8263 282.932 53.9373 285.964C54.0567 289.181 53.8571 292.402 53.3414 295.58C53.1776 296.828 52.8522 298.05 52.3734 299.215C52.062 299.912 51.6559 300.568 51.4107 301.29C51.1675 302.125 51.0405 302.989 51.0331 303.858C50.6699 311.193 51.0278 320.579 52.529 327.769C49.9992 327.652 47.4852 328.224 45.2553 329.424C43.4409 324.31 42.285 317.048 41.4208 311.663C40.4421 305.302 40.641 298.815 42.0076 292.525C42.4327 290.427 42.592 288.283 42.4818 286.145C42.2886 281.886 41.24 277.72 40.1986 273.586C39.669 271.488 39.1394 269.389 38.6097 267.29C37.8564 264.3 37.1019 261.309 36.3462 258.318C35.8451 256.329 35.3388 254.297 35.4962 252.25C35.6069 251.128 35.8427 250.022 36.1994 248.953C37.3267 245.313 39.012 241.87 41.1953 238.746C49.8897 239.234 58.6898 238.421 67.3717 237.754C67.7938 237.671 68.232 237.745 68.6028 237.963C68.8975 238.263 69.073 238.66 69.0966 239.08C70.1846 245.234 71.2719 251.387 72.3586 257.54C72.8878 260.11 73.1985 262.72 73.2873 265.342C73.3034 267.955 72.8793 270.559 72.9777 273.17C73.1101 276.687 73.7758 280.013 73.7973 283.532Z" fill="#2F2E41"/>
<path opacity="0.1" d="M55.9378 272.585C55.768 274.034 55.5238 275.473 55.2059 276.896C53.3146 273.629 51.2765 270.444 49.5355 267.095C49.0863 266.232 48.6587 265.358 48.2292 264.486C47.8016 263.613 47.3739 262.741 46.9463 261.869C46.7065 261.379 46.4649 260.888 46.2484 260.386C45.8947 259.662 45.6234 258.902 45.4396 258.118C46.0731 258.002 47.6334 259.707 48.1022 260.152C49.0638 261.099 49.9718 262.099 50.822 263.147C51.8506 264.31 52.7948 265.544 53.6474 266.841C54.737 268.61 55.5119 270.553 55.9378 272.585Z" fill="black"/>
<path d="M63.1828 182.927C63.1828 182.927 58.3516 190.612 59.2463 192.221C60.141 193.829 44.0368 190.791 44.0368 190.791C44.0368 190.791 52.8046 183.106 51.91 179.889C51.0153 176.672 63.1828 182.927 63.1828 182.927Z" fill="#EFB7B9"/>
<path d="M58.8884 185.251C64.9166 185.251 69.8034 180.37 69.8034 174.349C69.8034 168.327 64.9166 163.446 58.8884 163.446C52.8602 163.446 47.9734 168.327 47.9734 174.349C47.9734 180.37 52.8602 185.251 58.8884 185.251Z" fill="#EFB7B9"/>
<path d="M63.3446 190.986C62.1763 189.362 60.5903 188.084 58.7544 187.286C57.6975 186.909 56.6049 186.639 55.4934 186.483L51.1387 185.718C50.0714 185.531 48.9291 185.351 47.939 185.791C47.4329 186.046 46.9722 186.383 46.5752 186.787C45.0615 188.187 43.5948 189.727 41.6971 190.535C41.1776 190.756 40.6342 190.918 40.1155 191.141C37.9922 192.054 36.4047 193.961 35.5028 196.087C34.5565 198.317 34.5291 200.735 34.6038 203.156C34.6015 203.991 34.6837 204.825 34.8493 205.644C35.069 206.423 35.3451 207.186 35.6753 207.925C36.2767 209.504 36.7803 211.119 37.1834 212.76C38.3116 217.074 39.2495 221.431 39.9972 225.832C40.0623 226.465 40.2486 227.079 40.5459 227.641C40.9661 228.201 41.4746 228.689 42.0514 229.086C42.5082 229.464 42.9304 229.882 43.313 230.334C43.4997 230.528 43.6365 230.763 43.7117 231.021C43.853 231.672 43.2772 232.229 42.81 232.704C41.8393 233.693 41.1376 234.914 40.7716 236.249C40.5435 236.523 40.4278 236.874 40.4478 237.229C40.5412 237.476 40.5761 237.74 40.5494 238.002C40.4598 238.242 40.3199 238.459 40.139 238.64C39.9308 238.91 39.7828 239.222 39.7047 239.555C39.6266 239.887 39.6203 240.232 39.6861 240.567C43.0695 242.035 46.6902 242.882 50.3745 243.066C51.2766 243.108 52.1824 243.109 53.0788 243.219C53.7181 243.298 54.3497 243.432 54.9895 243.506C55.9202 243.594 56.8558 243.617 57.7898 243.578C62.648 243.482 67.6488 243.356 72.1099 241.432C72.5301 239.147 71.6248 236.818 71.0569 234.565C70.1537 230.981 69.9261 227.265 69.2541 223.631C68.7942 221.144 68.1262 218.696 67.7431 216.196C67.3601 213.696 67.2702 211.104 67.9584 208.67C68.5682 206.513 68.7522 204.317 69.3843 202.166C70.0163 200.016 70.4593 197.684 69.7457 195.559C68.861 192.924 66.1231 190.84 63.3446 190.986Z" fill="#6C63FF"/>
<path d="M68.7049 168.569C69.2357 166.633 68.1919 164.618 66.9431 163.046C65.6013 161.356 63.8676 159.831 61.7507 159.407C60.0302 159.062 58.2476 159.478 56.4983 159.34C54.9479 159.217 53.4622 158.662 51.9197 158.462C50.5244 158.313 49.1148 158.366 47.7349 158.621C46.4231 158.812 45.1411 159.17 43.92 159.685C39.2736 161.742 36.5511 166.82 35.9194 171.857C35.2877 176.893 36.3954 181.968 37.4966 186.923L38.4919 191.402C39.5279 196.065 40.5674 200.751 40.8446 205.519C41.1218 210.287 40.6046 215.181 38.641 219.536C44.9897 216.13 49.9087 210.567 52.5086 203.854C53.2147 202.01 53.7374 200.097 54.5195 198.284C55.1923 196.724 56.0538 195.247 56.6502 193.657C57.3228 191.86 57.6457 189.951 57.6017 188.033C57.5678 186.592 57.3263 185.158 57.3684 183.717C57.4105 182.275 57.7775 180.772 58.7748 179.729C59.6614 178.803 60.9212 178.358 62.0636 177.775C63.8603 176.853 65.4298 175.545 66.6591 173.945C67.3784 173.009 67.4168 172.609 67.5997 171.529C67.7777 170.478 68.4255 169.588 68.7049 168.569Z" fill="#2F2E41"/>
<path d="M68.72 250.471C68.8306 251.592 68.6268 252.74 68.8722 253.84C69.0566 254.666 69.4852 255.417 69.7372 256.225C69.9874 257.161 70.1161 258.126 70.1202 259.095C70.1566 259.908 70.0941 260.897 69.3743 261.278C69.0582 261.445 68.6789 261.448 68.3499 261.589C68.0208 261.729 67.7385 262.127 67.9269 262.431C68.0854 262.687 68.445 262.69 68.7397 262.75C69.0344 262.81 69.3588 263.115 69.1877 263.363C69.119 263.443 69.0275 263.502 68.9251 263.53C68.6238 263.62 68.3385 263.757 68.0796 263.936C67.9512 264.027 67.8508 264.152 67.7893 264.297C67.7279 264.442 67.7079 264.601 67.7316 264.757C67.7493 264.832 67.7838 264.902 67.8326 264.961C67.8814 265.021 67.9431 265.069 68.0131 265.101C68.0831 265.133 68.1595 265.149 68.2365 265.147C68.3136 265.146 68.3892 265.126 68.4577 265.091C68.3257 265.373 68.2535 265.679 68.2459 265.99C69.3976 266.485 70.6942 265.838 71.7781 265.209C72.2482 264.948 72.702 264.66 73.1371 264.345C74.01 263.671 74.7049 262.795 75.1615 261.793C75.618 260.79 75.8223 259.691 75.7565 258.591C75.7063 258.038 75.6213 257.488 75.5022 256.946C75.3341 256.002 75.1122 255.068 74.8377 254.15C74.5278 253.181 74.1019 252.253 73.7366 251.304C72.9583 249.281 72.4572 247.163 71.7563 245.111C71.7463 245.013 71.7161 244.919 71.6676 244.833C71.6191 244.747 71.5534 244.672 71.4746 244.613C71.3959 244.553 71.3057 244.511 71.2097 244.488C71.1138 244.465 71.0141 244.463 70.917 244.48C70.1273 244.439 69.3357 244.512 68.5667 244.696C68.1019 244.832 67.3396 245.13 67.1313 245.616C66.9436 246.054 67.2582 246.446 67.4578 246.822C68.1114 247.945 68.5401 249.184 68.72 250.471Z" fill="#EFB7B9"/>
<path opacity="0.1" d="M67.9816 195.701C68.2145 195.937 68.4096 196.208 68.5598 196.504C70.1106 199.319 70.1303 202.689 70.2032 205.901C70.2853 209.517 70.4834 213.13 70.6815 216.741L71.274 227.542C71.3306 228.574 71.3874 229.608 71.5323 230.631C72.2293 230.807 72.2581 231.706 72.1773 232.42C71.6784 236.827 70.4369 241.365 71.7371 245.606C71.7867 245.825 71.8914 246.027 72.0411 246.194C71.3858 245.987 70.6841 245.978 70.0235 246.167C69.3754 246.303 68.7523 246.54 68.1065 246.687C67.2847 246.874 66.3532 246.954 65.7925 247.582C65.159 245.676 64.6546 243.73 64.2826 241.756C63.9748 239.963 63.891 238.098 63.1594 236.431C62.8639 235.758 62.4692 235.134 62.109 234.494C60.2142 231.122 59.2864 227.309 58.3797 223.551C57.9726 221.769 57.875 219.93 58.0912 218.115C58.22 217.287 58.2956 216.451 58.3176 215.613C58.2598 214.729 58.1439 213.85 57.9704 212.982C57.5876 210.434 57.7669 207.833 58.4958 205.361C59.1748 203.066 59.7702 200.651 61.1902 198.723C62.6102 196.795 65.5856 195.733 67.9816 195.701Z" fill="black"/>
<path d="M68.5185 195.343C68.7514 195.58 68.9464 195.851 69.0967 196.147C70.6475 198.962 70.6672 202.332 70.7401 205.544C70.8221 209.16 71.0203 212.772 71.2184 216.384L71.8109 227.185C71.8675 228.217 71.9242 229.25 72.0691 230.273C72.7661 230.449 72.7949 231.349 72.7142 232.062C72.2152 236.47 70.9738 241.007 72.2739 245.249C72.3236 245.467 72.4282 245.67 72.5779 245.836C71.9227 245.63 71.221 245.62 70.5604 245.809C69.9123 245.946 69.2891 246.182 68.6433 246.329C67.8216 246.516 66.8901 246.596 66.3294 247.225C65.6959 245.319 65.1915 243.372 64.8195 241.399C64.5117 239.605 64.4279 237.74 63.6963 236.074C63.4008 235.401 63.0061 234.777 62.6459 234.136C60.751 230.765 59.8233 226.952 58.9166 223.194C58.5095 221.411 58.4119 219.573 58.6281 217.758C58.7568 216.929 58.8324 216.094 58.8544 215.256C58.7967 214.372 58.6807 213.493 58.5073 212.624C58.1245 210.076 58.3038 207.475 59.0326 205.004C59.7117 202.708 60.307 200.294 61.7271 198.366C63.1471 196.438 66.1224 195.376 68.5185 195.343Z" fill="#6C63FF"/>
<g opacity="0.1">
<path opacity="0.1" d="M66.9431 163.046C65.6013 161.356 63.8676 159.831 61.7507 159.407C60.0302 159.062 58.2476 159.478 56.4984 159.34C54.9479 159.217 53.4622 158.662 51.9198 158.462C50.5245 158.313 49.1148 158.366 47.7349 158.621C46.4231 158.812 45.1411 159.17 43.92 159.685C43.2601 159.979 42.6304 160.335 42.0396 160.75C43.1282 160.339 44.2576 160.044 45.4087 159.872C46.7886 159.617 48.1983 159.564 49.5936 159.713C51.1361 159.913 52.6217 160.468 54.1722 160.591C55.9214 160.729 57.7041 160.313 59.4245 160.658C61.5415 161.082 63.2752 162.607 64.617 164.297C65.8657 165.869 66.9096 167.884 66.3788 169.82C66.0993 170.839 65.4515 171.729 65.2735 172.78C65.0906 173.86 65.0523 174.26 64.333 175.196C63.4071 176.4 62.2872 177.441 61.019 178.278C61.369 178.112 61.7215 177.949 62.0636 177.775C63.8603 176.853 65.4298 175.545 66.6591 173.945C67.3784 173.009 67.4167 172.609 67.5997 171.529C67.7777 170.478 68.4254 169.588 68.7049 168.569C69.2357 166.633 68.1919 164.618 66.9431 163.046Z" fill="black"/>
<path opacity="0.1" d="M58.7749 179.729C58.9625 179.536 59.1667 179.358 59.3851 179.2C58.3422 179.705 57.245 180.148 56.4487 180.98C55.4513 182.023 55.0844 183.527 55.0423 184.968C55.0001 186.409 55.2416 187.843 55.2756 189.284C55.3196 191.202 54.9967 193.111 54.324 194.908C53.7276 196.498 52.8662 197.975 52.1933 199.535C51.4113 201.348 50.8886 203.261 50.1825 205.105C47.9272 210.924 43.9222 215.902 38.7184 219.355C38.6919 219.415 38.6681 219.476 38.641 219.536C44.9898 216.13 49.9088 210.567 52.5086 203.854C53.2147 202.01 53.7374 200.097 54.5195 198.284C55.1924 196.724 56.0538 195.247 56.6502 193.657C57.3228 191.86 57.6458 189.951 57.6017 188.033C57.5678 186.592 57.3263 185.158 57.3684 183.716C57.4105 182.275 57.7775 180.772 58.7749 179.729Z" fill="black"/>
</g>
<path d="M298.486 339.967C297.966 340.593 297.077 340.719 296.272 340.802C295.232 340.953 294.177 340.973 293.132 340.862C291.891 340.677 291.147 341.382 290.013 340.84C289.327 340.512 288.271 341.168 287.585 340.84C286.644 340.391 283.397 340.298 282.824 339.42C282.252 338.543 282.31 337.157 283.215 336.639C283.472 336.517 283.737 336.413 284.008 336.329C285.524 335.727 288.594 331.182 290.206 330.949C291.006 330.912 291.801 331.099 292.5 331.489C294.09 332.194 296.897 332.751 297.591 334.54C298.131 335.934 299.61 338.605 298.486 339.967Z" fill="#2F2E41"/>
<path d="M309.907 339.607C310.427 340.234 311.316 340.36 312.121 340.442C313.161 340.593 314.216 340.613 315.261 340.502C316.502 340.318 318.015 341.382 319.149 340.84C319.835 340.512 320.891 340.683 321.577 340.355C322.517 339.906 326.938 340.908 327.511 340.031C328.083 339.153 328.025 337.767 327.12 337.249C326.863 337.127 326.598 337.024 326.327 336.939C324.811 336.337 319.799 330.823 318.187 330.59C317.387 330.553 316.592 330.74 315.893 331.13C314.303 331.835 311.496 332.391 310.802 334.18C310.262 335.574 308.783 338.245 309.907 339.607Z" fill="#2F2E41"/>
<path d="M314.928 240.566C315.425 241.519 315.859 242.504 316.227 243.514C320.636 255.163 321.005 267.891 321.187 280.343C321.172 282.367 321.287 284.391 321.533 286.4C321.718 287.675 322.01 288.963 321.822 290.236C321.659 291.338 321.14 292.424 321.347 293.518C321.44 294.009 321.675 294.464 321.768 294.955C321.84 295.493 321.825 296.039 321.724 296.572L321.133 300.964C320.796 303.466 320.019 305.876 320.062 308.4C320.091 310.122 320.12 311.847 320.312 313.558C320.506 315.296 320.869 317.02 320.888 318.769C320.902 320.078 320.722 321.381 320.606 322.685C320.443 324.527 320.406 326.378 320.495 328.225C320.564 329.648 320.728 331.125 321.483 332.334C320.637 333.547 319.799 334.633 318.443 335.226C315.689 336.433 312.529 336.024 309.553 335.592C309.718 335.043 309.973 334.422 309.735 333.9C309.595 333.648 309.423 333.415 309.224 333.206C308.574 332.283 308.123 331.236 307.899 330.13C307.539 328.818 307.178 327.407 307.918 326.148C308.173 325.7 308.286 325.185 308.241 324.672C307.625 316.414 305.785 307.871 307.479 299.767C307.66 298.902 307.875 298.042 307.976 297.165C308.067 295.902 308.083 294.635 308.022 293.37L307.986 291.61C307.898 289.732 307.974 287.806 307.597 285.949C307.327 284.618 306.823 283.281 307.444 281.925C307.58 281.614 307.642 281.276 307.626 280.937C307.61 280.599 307.517 280.268 307.352 279.971C306.045 277.683 304.993 275.259 304.217 272.742C304.055 272.038 303.835 271.349 303.556 270.683C303.177 269.981 302.741 269.312 302.253 268.68C300.778 266.544 299.896 264.065 299.03 261.619C299.123 261.394 299.052 261.082 298.811 261.114C298.573 261.175 298.369 261.327 298.243 261.538C297.057 263.131 296.957 265.255 296.904 267.239C296.814 269.083 296.845 270.93 296.998 272.77C297.1 273.734 297.268 274.69 297.354 275.655C297.468 277.456 297.44 279.263 297.269 281.059L296.663 289.898C296.581 290.629 296.625 291.368 296.794 292.084C297.182 293.323 297.372 294.615 297.355 295.914C297.195 301.253 297.658 306.593 298.732 311.826C299.028 313.27 299.37 314.706 299.621 316.159C300.212 319.584 300.293 323.073 300.373 326.547C300.422 328.684 300.457 330.897 299.614 332.861C299.285 333.466 299.043 334.115 298.896 334.788C298.893 335.136 298.847 335.481 298.759 335.817C298.511 336.452 297.769 336.723 297.102 336.868C295.849 337.141 294.562 337.232 293.283 337.14C292.982 337.135 292.686 337.069 292.412 336.947C291.935 336.7 291.681 336.176 291.318 335.781C290.535 334.926 289.234 334.665 288.52 333.752C287.629 332.61 288.003 330.956 288.534 329.608C289.065 328.261 289.722 326.798 289.265 325.423C288.726 323.804 286.817 322.932 286.305 321.303C287.767 314.737 284.175 307.946 284.483 301.227C284.554 299.661 284.826 298.107 284.832 296.541C284.846 292.505 283.096 288.578 283.384 284.552C284.115 274.321 280.627 264.108 279.149 253.958C278.869 252.443 278.764 250.901 278.837 249.362C279.056 246.822 280.237 244.457 281.657 242.338C282.675 240.82 283.898 239.334 285.584 238.624C286.972 238.039 288.527 238.041 290.033 238.053C293.792 238.082 297.55 238.111 301.308 238.178C303.865 238.142 306.419 238.371 308.93 238.86C310.962 239.324 312.864 240.271 314.928 240.566Z" fill="#2F2E41"/>
<path d="M254.205 193.927C253.841 192.148 254.529 190.244 253.991 188.509C253.797 187.884 253.32 187.233 252.665 187.251C252.028 187.269 251.597 187.892 251.032 188.187C250.122 188.662 249.017 188.23 248.107 187.754C247.198 187.277 246.184 186.738 245.198 187.024C245.081 187.641 245.498 188.23 245.953 188.664C246.455 189.043 246.871 189.525 247.173 190.078C247.321 190.675 247.377 191.291 247.34 191.905C247.443 193.315 248.337 194.529 249.23 195.625C250.669 197.392 252.197 199.084 253.808 200.696C253.806 200.693 256.253 197.669 256.206 197.14C256.161 196.642 255.338 196.176 255.039 195.774C254.629 195.227 254.345 194.596 254.205 193.927Z" fill="#A1616A"/>
<path d="M327.076 231.177C327.294 231.743 327.457 232.328 327.564 232.925C328.195 235.981 328.593 239.079 328.985 242.175C329.09 243.001 329.195 243.828 329.227 244.661C329.338 246.636 328.931 248.607 328.046 250.378C327.147 252.153 325.617 253.53 323.756 254.239C323.183 254.443 322.381 254.48 322.131 253.926C322.042 253.67 322.044 253.391 322.137 253.136C322.363 252.311 322.824 251.572 323.122 250.77C323.566 249.574 323.639 248.272 323.334 247.033C323.217 246.559 322.969 246.03 322.489 245.936C322.728 247.029 322.527 248.171 321.928 249.116C321.792 249.38 321.557 249.579 321.275 249.67C321.076 249.69 320.877 249.642 320.71 249.534C320.543 249.426 320.417 249.265 320.353 249.076C320.236 248.695 320.211 248.292 320.279 247.899C320.433 245.913 320.735 243.942 321.184 242.001C321.719 239.871 322.566 237.77 322.512 235.575C322.462 233.585 321.669 231.632 321.891 229.655C321.894 229.532 321.934 229.414 322.005 229.314C322.074 229.245 322.159 229.192 322.253 229.162C322.809 228.932 323.381 228.743 323.964 228.596C324.309 228.509 325.486 228.1 325.816 228.283C326.084 228.431 326.166 229.317 326.3 229.617C326.536 230.148 326.852 230.64 327.076 231.177Z" fill="#A1616A"/>
<path d="M287.774 172.247C292.266 172.247 295.907 168.61 295.907 164.124C295.907 159.638 292.266 156.001 287.774 156.001C283.283 156.001 279.642 159.638 279.642 164.124C279.642 168.61 283.283 172.247 287.774 172.247Z" fill="#A1616A"/>
<path d="M295.061 170.003C295.06 170.52 295.101 171.037 295.184 171.548C295.296 172.065 295.455 172.571 295.658 173.059C295.93 173.853 296.314 174.605 296.797 175.291C297.289 175.982 298.024 176.46 298.855 176.63C293.297 179.232 287.363 180.945 281.271 181.706C282.231 181.068 283.029 180.217 283.604 179.219C283.909 178.578 284.117 177.895 284.222 177.194C284.74 174.257 284.477 171.236 283.457 168.433C283.356 168.157 283.258 167.818 283.449 167.594C283.53 167.511 283.629 167.447 283.738 167.407C286.153 166.385 288.761 165.899 291.383 165.982C292.053 165.987 292.723 166.017 293.391 166.065C293.75 166.091 294.544 166.015 294.83 166.278C295.171 166.592 295 167.566 295.011 167.991L295.061 170.003Z" fill="#A1616A"/>
<path d="M299.364 175.912C298.168 174.381 296.493 173.294 294.606 172.824C292.719 172.354 290.729 172.529 288.953 173.321C285.082 175.167 283.176 179.599 279.772 182.205C278.997 182.784 278.172 183.292 277.307 183.722C276.796 184.004 276.25 184.22 275.684 184.363C275.048 184.503 274.384 184.484 273.75 184.636C272.543 184.99 271.515 185.788 270.872 186.868C270.553 187.432 270.2 187.977 269.814 188.498C269.458 188.92 269.016 189.261 268.64 189.665C267.286 191.118 266.918 193.204 266.61 195.165C265.55 196.279 264.395 197.297 263.156 198.207C262.766 198.507 262.334 198.746 261.873 198.916C260.682 199.302 259.368 198.811 258.353 198.079C257.338 197.347 256.511 196.381 255.51 195.63C254.591 196.943 253.63 198.26 252.65 199.529C252.502 199.77 252.276 199.955 252.01 200.052C251.826 200.671 252.268 201.311 252.598 201.866L254.371 204.842C254.957 205.926 255.676 206.932 256.512 207.838C257.359 208.749 258.516 209.311 259.757 209.414C260.54 209.407 261.315 209.259 262.046 208.977C265.425 207.841 268.527 206.03 271.742 204.49C272.324 204.158 272.977 203.967 273.646 203.932C273.981 203.923 274.31 204.024 274.582 204.22C274.853 204.415 275.054 204.694 275.151 205.014C275.52 206.873 275.886 208.726 276.393 210.553C276.871 212.275 277.315 214.007 277.725 215.747C277.999 216.812 278.195 217.896 278.311 218.99C278.364 219.61 278.369 220.234 278.375 220.857L278.443 228.388C278.451 229.198 277.988 229.704 277.632 230.433C277.086 231.563 277.004 232.862 277.403 234.052C277.603 234.639 277.916 235.182 278.137 235.762C278.673 237.163 278.652 238.706 278.624 240.206L278.561 243.642C278.544 243.784 278.57 243.928 278.635 244.056C278.845 244.384 279.351 244.192 279.671 243.97L281.28 242.856C283.432 243.153 285.606 243.258 287.777 243.17C293.951 243.081 300.127 243.326 306.287 243.757C308.342 243.901 310.466 244.056 312.409 243.371C313.395 243.024 314.303 242.468 315.311 242.19C315.726 242.125 316.121 241.963 316.462 241.716C317.026 241.195 316.876 240.281 316.646 239.549C316.445 238.909 316.216 238.278 315.961 237.656C315.698 237.085 315.483 236.492 315.319 235.885C315.011 234.514 315.311 232.93 314.457 231.814C312.544 229.316 313.898 225.472 313.095 222.431C312.836 221.447 312.452 220.498 312.208 219.51C312.056 218.89 311.959 218.258 311.863 217.626C311.611 216.26 311.486 214.874 311.49 213.485C311.513 212.79 311.601 212.099 311.688 211.409L312.296 206.619C313.055 208.035 313.583 209.564 313.859 211.147C314.412 213.512 315.093 215.845 315.899 218.135C316.357 219.517 316.815 220.899 317.31 222.268C317.623 223.047 317.864 223.853 318.03 224.676C318.14 225.34 318.143 226.017 318.22 226.685C318.386 228.118 318.888 229.492 319.686 230.696C319.833 230.975 320.077 231.191 320.371 231.304C320.571 231.341 320.776 231.332 320.971 231.279C323.118 230.856 325.196 230.138 327.146 229.146C327.561 228.974 327.922 228.693 328.189 228.332C328.714 227.48 328.127 226.415 327.872 225.447C327.598 224.41 327.662 223.162 326.844 222.467C323.996 220.046 325.41 215.132 323.984 211.678C323.734 211.072 323.443 210.483 323.227 209.863C323.062 209.39 322.942 208.902 322.822 208.416C321.827 204.394 320.762 200.39 319.627 196.404C318.45 192.271 318.576 187.967 317.095 183.933C316.816 183.088 316.453 182.273 316.01 181.501C315.508 180.694 314.838 180.005 314.046 179.48C311.896 178.061 309.726 176.851 307.201 176.336C304.675 175.821 301.941 175.901 299.364 175.912Z" fill="#D0CDE1"/>
<path d="M280.384 166.112C279.291 165.524 279.579 163.927 279.393 162.701C279.011 160.178 276.156 158.681 275.486 156.218C276.256 156.313 277.037 156.202 277.75 155.898C277.888 155.081 277.726 154.241 277.294 153.533C279.642 152.58 281.542 150.711 283.925 149.853C286.923 148.773 290.262 149.436 293.286 150.439C294.794 150.94 296.365 151.59 297.277 152.891C298.279 154.32 298.263 156.2 298.21 157.944C298.125 160.678 298.017 163.51 296.798 165.96C295.246 169.079 290.853 171.968 287.223 171.123C285.713 170.772 285.269 169.825 284.632 168.515C284.236 167.699 284.087 166.752 283.196 166.328C282.324 165.914 281.268 166.588 280.384 166.112Z" fill="#2F2E41"/>
<g opacity="0.1">
<path opacity="0.1" d="M313.362 224.353C313.372 224.568 313.378 224.786 313.38 225.004C313.369 224.789 313.364 224.571 313.362 224.353Z" fill="black"/>
<path opacity="0.1" d="M278.137 232.513C278.673 233.914 278.652 235.457 278.624 236.957C278.617 237.348 278.61 237.739 278.603 238.131C278.568 237.322 278.412 236.523 278.137 235.762C277.916 235.182 277.603 234.639 277.403 234.052C277.059 233.025 277.072 231.913 277.438 230.895C277.638 231.447 277.927 231.964 278.137 232.513Z" fill="black"/>
</g>
<g opacity="0.1">
<path opacity="0.1" d="M277.75 154.717L277.742 154.72C277.668 154.3 277.516 153.897 277.294 153.533C277.432 153.477 277.568 153.417 277.703 153.355C277.81 153.801 277.826 154.264 277.75 154.717Z" fill="black"/>
</g>
<path d="M21.4719 138.158L19.5551 136.43C12.7483 130.188 8.25446 126.137 8.25446 121.09C8.2376 120.13 8.41379 119.176 8.77259 118.285C9.13139 117.394 9.66552 116.584 10.3434 115.903C11.0212 115.222 11.8289 114.683 12.7188 114.32C13.6087 113.956 14.5626 113.774 15.524 113.785C16.6587 113.791 17.7785 114.044 18.8056 114.525C19.8327 115.007 20.7425 115.706 21.4719 116.574C22.2013 115.706 23.1111 115.007 24.1382 114.525C25.1653 114.044 26.2851 113.791 27.4198 113.785C28.3812 113.774 29.3351 113.956 30.225 114.319C31.1149 114.683 31.9226 115.222 32.6005 115.903C33.2783 116.584 33.8124 117.394 34.1712 118.285C34.53 119.176 34.7062 120.13 34.6894 121.09C34.6894 126.137 30.1955 130.188 23.3887 136.43L21.4719 138.158Z" fill="#FF6584"/>
<path d="M24.8712 133.792L22.9544 132.065C16.1475 125.823 11.6537 121.772 11.6537 116.725C11.6368 115.765 11.813 114.811 12.1718 113.92C12.5306 113.029 13.0648 112.219 13.7426 111.538C14.4204 110.856 15.2282 110.318 16.1181 109.954C17.0079 109.59 17.9618 109.409 18.9233 109.42C20.0579 109.426 21.1777 109.678 22.2048 110.16C23.2319 110.642 24.1417 111.341 24.8711 112.209C25.6005 111.341 26.5104 110.642 27.5375 110.16C28.5646 109.678 29.6843 109.426 30.819 109.42C31.7805 109.409 32.7344 109.59 33.6242 109.954C34.5141 110.318 35.3219 110.856 35.9997 111.538C36.6775 112.219 37.2117 113.029 37.5705 113.92C37.9293 114.811 38.1055 115.765 38.0886 116.725C38.0886 121.772 33.5947 125.823 26.7879 132.065L24.8712 133.792Z" stroke="#3F3D56" stroke-width="2" stroke-miterlimit="10"/>
</g>
<defs>
<clipPath id="clip0">
<rect y="0.5" width="476" height="341" fill="white"/>
</clipPath>
</defs>
</svg>
