<svg width="25" height="25" viewBox="0 0 25 25" fill="none" xmlns="http://www.w3.org/2000/svg">
<g clip-path="url(#clip0)">
<path d="M12.8984 0.478027C9.63844 0.478027 9.23144 0.493027 7.95144 0.550027C6.67344 0.610027 5.80344 0.811027 5.03844 1.10803C4.24944 1.41403 3.57944 1.82503 2.91244 2.49203C2.24544 3.15903 1.83344 3.82803 1.52844 4.61803C1.23144 5.38303 1.02944 6.25303 0.970437 7.53103C0.910437 8.81103 0.898438 9.21803 0.898438 12.478C0.898438 15.738 0.913437 16.145 0.970437 17.425C1.03044 18.702 1.23144 19.573 1.52844 20.338C1.82973 21.1389 2.30203 21.8644 2.91244 22.464C3.51171 23.0749 4.23734 23.5472 5.03844 23.848C5.80444 24.144 6.67444 24.347 7.95144 24.406C9.23144 24.466 9.63844 24.478 12.8984 24.478C16.1584 24.478 16.5654 24.463 17.8454 24.406C19.1224 24.346 19.9934 24.144 20.7584 23.848C21.5591 23.5464 22.2845 23.0741 22.8844 22.464C23.4955 21.8649 23.9679 21.1392 24.2684 20.338C24.5644 19.573 24.7674 18.702 24.8264 17.425C24.8864 16.145 24.8984 15.738 24.8984 12.478C24.8984 9.21803 24.8834 8.81103 24.8264 7.53103C24.7664 6.25403 24.5644 5.38203 24.2684 4.61803C23.967 3.81725 23.4947 3.09176 22.8844 2.49203C22.2856 1.88067 21.5598 1.40822 20.7584 1.10803C19.9934 0.811027 19.1224 0.609027 17.8454 0.550027C16.5654 0.490027 16.1584 0.478027 12.8984 0.478027ZM12.8984 2.63803C16.1014 2.63803 16.4834 2.65403 17.7484 2.70903C18.9184 2.76403 19.5534 2.95803 19.9754 3.12403C20.5374 3.34103 20.9354 3.60103 21.3574 4.02003C21.7764 4.44003 22.0364 4.83903 22.2534 5.40103C22.4174 5.82303 22.6134 6.45803 22.6664 7.62803C22.7234 8.89403 22.7364 9.27403 22.7364 12.478C22.7364 15.682 22.7214 16.063 22.6624 17.328C22.6014 18.498 22.4064 19.133 22.2414 19.555C22.0462 20.0758 21.7394 20.5475 21.3424 20.937C20.9546 21.3343 20.4832 21.6404 19.9624 21.833C19.5424 21.997 18.8974 22.193 17.7274 22.246C16.4534 22.303 16.0784 22.316 12.8684 22.316C9.65744 22.316 9.28244 22.301 8.00944 22.242C6.83844 22.181 6.19344 21.986 5.77344 21.821C5.25234 21.6282 4.78111 21.321 4.39444 20.922C3.99302 20.5368 3.68515 20.0647 3.49444 19.542C3.32944 19.122 3.13544 18.477 3.07444 17.307C3.02944 16.047 3.01344 15.658 3.01344 12.463C3.01344 9.26703 3.02944 8.87703 3.07444 7.60203C3.13544 6.43203 3.32944 5.78803 3.49444 5.36803C3.70444 4.79803 3.97344 4.40803 4.39444 3.98703C4.81344 3.56803 5.20444 3.29803 5.77344 3.08903C6.19344 2.92303 6.82444 2.72803 7.99444 2.66803C9.26944 2.62303 9.64444 2.60803 12.8534 2.60803L12.8984 2.63803ZM12.8984 6.31603C12.0892 6.31603 11.288 6.47541 10.5403 6.78508C9.79273 7.09475 9.11344 7.54864 8.54125 8.12084C7.96905 8.69303 7.51516 9.37232 7.20549 10.1199C6.89582 10.8675 6.73644 11.6688 6.73644 12.478C6.73644 13.2872 6.89582 14.0885 7.20549 14.8361C7.51516 15.5837 7.96905 16.263 8.54125 16.8352C9.11344 17.4074 9.79273 17.8613 10.5403 18.171C11.288 18.4806 12.0892 18.64 12.8984 18.64C14.5327 18.64 16.1 17.9908 17.2556 16.8352C18.4112 15.6796 19.0604 14.1123 19.0604 12.478C19.0604 10.8438 18.4112 9.27643 17.2556 8.12084C16.1 6.96524 14.5327 6.31603 12.8984 6.31603ZM12.8984 16.478C10.6884 16.478 8.89844 14.688 8.89844 12.478C8.89844 10.268 10.6884 8.47803 12.8984 8.47803C15.1084 8.47803 16.8984 10.268 16.8984 12.478C16.8984 14.688 15.1084 16.478 12.8984 16.478ZM20.7444 6.07303C20.7305 6.44565 20.5728 6.79839 20.3042 7.0571C20.0357 7.31581 19.6773 7.46035 19.3044 7.46035C18.9316 7.46035 18.5732 7.31581 18.3047 7.0571C18.0361 6.79839 17.8783 6.44565 17.8644 6.07303C17.8644 5.69112 18.0162 5.32485 18.2862 5.05479C18.5563 4.78474 18.9225 4.63303 19.3044 4.63303C19.6863 4.63303 20.0526 4.78474 20.3227 5.05479C20.5927 5.32485 20.7444 5.69112 20.7444 6.07303Z" fill="white"/>
</g>
<defs>
<clipPath id="clip0">
<rect x="0.898438" y="0.478027" width="24" height="24" fill="white"/>
</clipPath>
</defs>
</svg>
