<svg width="115" height="58" viewBox="0 0 115 58" fill="none" xmlns="http://www.w3.org/2000/svg">
<path d="M3.35512 45.5C3.03512 45.5 2.74712 45.388 2.49112 45.164C2.26712 44.908 2.15512 44.62 2.15512 44.3V40.556C2.15512 39.98 2.41112 39.436 2.92312 38.924L14.1551 26.732H3.78712C3.43512 26.732 3.13112 26.62 2.87512 26.396C2.65112 26.172 2.53912 25.884 2.53912 25.532V21.74C2.53912 21.388 2.65112 21.1 2.87512 20.876C3.13112 20.652 3.43512 20.54 3.78712 20.54H23.0831C23.4351 20.54 23.7231 20.652 23.9471 20.876C24.1711 21.1 24.2831 21.388 24.2831 21.74V25.82C24.2831 26.268 24.0591 26.748 23.6111 27.26L12.6671 39.308H24.0431C24.3951 39.308 24.6831 39.42 24.9071 39.644C25.1631 39.868 25.2911 40.156 25.2911 40.508V44.3C25.2911 44.652 25.1631 44.94 24.9071 45.164C24.6831 45.388 24.3951 45.5 24.0431 45.5H3.35512ZM40.98 45.98C37.14 45.98 34.116 44.94 31.908 42.86C29.7 40.78 28.548 37.756 28.452 33.788V32.108C28.58 28.332 29.748 25.388 31.956 23.276C34.196 21.132 37.188 20.06 40.932 20.06C43.652 20.06 45.94 20.62 47.796 21.74C49.684 22.828 51.092 24.332 52.02 26.252C52.98 28.172 53.46 30.38 53.46 32.876V34.028C53.46 34.348 53.348 34.636 53.124 34.892C52.9 35.116 52.612 35.228 52.26 35.228H36.9V35.564C36.964 37.068 37.332 38.284 38.004 39.212C38.676 40.14 39.652 40.604 40.932 40.604C41.732 40.604 42.388 40.444 42.9 40.124C43.412 39.772 43.876 39.356 44.292 38.876C44.58 38.524 44.804 38.316 44.964 38.252C45.156 38.156 45.444 38.108 45.828 38.108H51.78C52.068 38.108 52.308 38.204 52.5 38.396C52.724 38.556 52.836 38.78 52.836 39.068C52.836 39.9 52.356 40.86 51.396 41.948C50.468 43.036 49.108 43.98 47.316 44.78C45.524 45.58 43.412 45.98 40.98 45.98ZM45.012 30.476V30.38C45.012 28.812 44.644 27.58 43.908 26.684C43.204 25.756 42.212 25.292 40.932 25.292C39.684 25.292 38.692 25.756 37.956 26.684C37.252 27.58 36.9 28.812 36.9 30.38V30.476H45.012ZM59.16 45.5C58.808 45.5 58.52 45.388 58.296 45.164C58.072 44.94 57.96 44.652 57.96 44.3V21.74C57.96 21.388 58.072 21.1 58.296 20.876C58.52 20.652 58.808 20.54 59.16 20.54H64.68C65.032 20.54 65.32 20.652 65.544 20.876C65.8 21.1 65.928 21.388 65.928 21.74V23.564C66.792 22.508 67.896 21.66 69.24 21.02C70.616 20.38 72.168 20.06 73.896 20.06C76.712 20.06 79 21.02 80.76 22.94C82.52 24.828 83.4 27.484 83.4 30.908V44.3C83.4 44.62 83.288 44.908 83.064 45.164C82.84 45.388 82.552 45.5 82.2 45.5H76.152C75.832 45.5 75.544 45.388 75.288 45.164C75.064 44.908 74.952 44.62 74.952 44.3V31.196C74.952 29.692 74.584 28.54 73.848 27.74C73.112 26.908 72.056 26.492 70.68 26.492C69.336 26.492 68.28 26.908 67.512 27.74C66.744 28.54 66.36 29.692 66.36 31.196V44.3C66.36 44.62 66.248 44.908 66.024 45.164C65.8 45.388 65.512 45.5 65.16 45.5H59.16Z" fill="#444444"/>
<path d="M89.9557 16.94C89.6037 16.94 89.3157 16.828 89.0917 16.604C88.8677 16.38 88.7557 16.092 88.7557 15.74V11.42C88.7557 11.068 88.8677 10.78 89.0917 10.556C89.3157 10.332 89.6037 10.22 89.9557 10.22H95.7157C96.0677 10.22 96.3557 10.332 96.5797 10.556C96.8037 10.78 96.9157 11.068 96.9157 11.42V15.74C96.9157 16.092 96.8037 16.38 96.5797 16.604C96.3557 16.828 96.0677 16.94 95.7157 16.94H89.9557ZM90.0037 45.5C89.6517 45.5 89.3637 45.388 89.1397 45.164C88.9157 44.94 88.8037 44.652 88.8037 44.3V21.74C88.8037 21.388 88.9157 21.1 89.1397 20.876C89.3637 20.652 89.6517 20.54 90.0037 20.54H95.6677C96.0197 20.54 96.3077 20.652 96.5317 20.876C96.7557 21.1 96.8677 21.388 96.8677 21.74V44.3C96.8677 44.62 96.7557 44.908 96.5317 45.164C96.3077 45.388 96.0197 45.5 95.6677 45.5H90.0037ZM103.69 16.94C103.338 16.94 103.05 16.828 102.826 16.604C102.602 16.38 102.49 16.092 102.49 15.74V11.42C102.49 11.068 102.602 10.78 102.826 10.556C103.05 10.332 103.338 10.22 103.69 10.22H109.45C109.802 10.22 110.09 10.332 110.314 10.556C110.538 10.78 110.65 11.068 110.65 11.42V15.74C110.65 16.092 110.538 16.38 110.314 16.604C110.09 16.828 109.802 16.94 109.45 16.94H103.69ZM103.738 45.5C103.386 45.5 103.098 45.388 102.874 45.164C102.65 44.94 102.538 44.652 102.538 44.3V21.74C102.538 21.388 102.65 21.1 102.874 20.876C103.098 20.652 103.386 20.54 103.738 20.54H109.402C109.754 20.54 110.042 20.652 110.266 20.876C110.49 21.1 110.602 21.388 110.602 21.74V44.3C110.602 44.62 110.49 44.908 110.266 45.164C110.042 45.388 109.754 45.5 109.402 45.5H103.738Z" fill="#6C63FF"/>
<rect x="88.8151" y="20.2395" width="8.03716" height="25.2605" rx="1" fill="#444444"/>
<rect x="102.498" y="20.2395" width="8.12743" height="25.2605" rx="1" fill="#444444"/>
</svg>
