<svg width="208" height="140" viewBox="0 0 208 140" fill="none" xmlns="http://www.w3.org/2000/svg">
<g clip-path="url(#clip0)">
<path opacity="0.1" d="M66.6298 137.691C76.7275 137.691 84.9133 135.777 84.9133 133.415C84.9133 131.053 76.7275 129.139 66.6298 129.139C56.5321 129.139 48.3463 131.053 48.3463 133.415C48.3463 135.777 56.5321 137.691 66.6298 137.691Z" fill="#6C63FF"/>
<path opacity="0.1" d="M109.482 115.763C152.975 115.763 188.233 114.405 188.233 112.73C188.233 111.056 152.975 109.698 109.482 109.698C65.9892 109.698 30.7313 111.056 30.7313 112.73C30.7313 114.405 65.9892 115.763 109.482 115.763Z" fill="#6C63FF"/>
<path opacity="0.1" d="M64.5126 -1.26642C71.5372 -6.26184 82.5611 -7.27622 92.5949 -6.88285C124.115 -5.63354 152.567 6.51355 177.177 20.2523C186.075 25.2259 194.858 30.5855 200.642 37.4349C212.414 51.3776 208.923 70.6946 192.552 82.1806C186.983 86.0888 180.232 89.0846 173.299 91.7417C160.979 96.4639 147.676 100.254 133.688 101.334C123.714 102.102 113.612 101.478 103.699 100.403C75.9906 97.4055 48.7935 90.7728 25.9995 79.4252C16.0023 74.448 6.57989 68.2616 2.45732 60.2121C-1.66525 52.1626 0.974384 41.9586 11.1838 37.1927C15.4045 35.2204 20.4534 34.3317 25.395 33.4957C32.6705 32.2646 40.0624 31.0518 46.6261 28.5495C53.4088 25.9671 61.4372 20.9699 60.0866 15.2551C58.6539 9.11233 57.4972 3.72354 64.5126 -1.26642Z" fill="#6C63FF"/>
<path d="M185.356 12.9823H34.831C31.9557 12.9823 29.6248 14.8429 29.6248 17.1382V108.575C29.6248 110.87 31.9557 112.73 34.831 112.73H185.356C188.231 112.73 190.562 110.87 190.562 108.575V17.1382C190.562 14.8429 188.231 12.9823 185.356 12.9823Z" fill="#474157"/>
<path d="M177.85 21.9806H42.5765V103.35H177.85V21.9806Z" fill="#EDEDF4"/>
<path d="M37.2995 64.4353C38.5243 64.4353 39.5171 63.6428 39.5171 62.6652C39.5171 61.6875 38.5243 60.895 37.2995 60.895C36.0748 60.895 35.082 61.6875 35.082 62.6652C35.082 63.6428 36.0748 64.4353 37.2995 64.4353Z" fill="#E6E8EC"/>
<path d="M183.846 65.7756C185.866 65.7756 187.503 64.4686 187.503 62.8563C187.503 61.244 185.866 59.937 183.846 59.937C181.826 59.937 180.189 61.244 180.189 62.8563C180.189 64.4686 181.826 65.7756 183.846 65.7756Z" fill="#E6E8EC"/>
<path d="M120.05 57.8882C120.078 57.8704 120.112 57.8594 120.148 57.8563C120.184 57.8532 120.22 57.8582 120.252 57.8707C120.284 57.8833 120.312 57.9028 120.331 57.9272C120.35 57.9515 120.36 57.9797 120.36 58.0084V63.2461C120.36 63.5721 120.198 63.8848 119.909 64.1153C119.62 64.3458 119.228 64.4753 118.82 64.4753H105.464C105.056 64.4753 104.664 64.3458 104.376 64.1153C104.087 63.8848 103.924 63.5721 103.924 63.2461V58.0102C103.925 57.9815 103.936 57.9534 103.955 57.9292C103.974 57.905 104.002 57.8855 104.034 57.873C104.067 57.8606 104.103 57.8555 104.139 57.8585C104.175 57.8615 104.209 57.8725 104.237 57.89C104.956 58.3362 105.907 58.9026 109.181 60.8039C109.865 61.1973 111.006 62.0277 112.147 62.0222C113.288 62.0168 114.458 61.1827 115.113 60.8039C118.38 58.9026 119.331 58.3344 120.05 57.8882ZM112.147 61.1973C112.891 61.1973 113.972 60.4488 114.501 60.1373C118.758 57.6697 119.082 57.4548 120.066 56.8411C120.157 56.7833 120.232 56.7097 120.283 56.6258C120.333 56.5419 120.36 56.4499 120.36 56.3566V55.8704C120.36 55.5444 120.198 55.2317 119.909 55.0012C119.62 54.7706 119.228 54.6411 118.82 54.6411H105.464C105.056 54.6411 104.664 54.7706 104.376 55.0012C104.087 55.2317 103.924 55.5444 103.924 55.8704V56.3566C103.925 56.4498 103.952 56.5418 104.002 56.6256C104.053 56.7095 104.127 56.7831 104.219 56.8411C105.202 57.453 105.526 57.6697 109.783 60.1373C110.322 60.4488 111.394 61.2064 112.138 61.1973H112.147Z" fill="#6C63FF"/>
<path opacity="0.2" d="M88.1255 40.2122H75.4772C75.0903 40.2126 74.7195 40.3357 74.4462 40.5542C74.1729 40.7727 74.0193 41.0689 74.0193 41.3777V48.3746C74.0193 48.6834 74.1729 48.9796 74.4462 49.1981C74.7195 49.4166 75.0903 49.5396 75.4772 49.5401H88.1255C88.5126 49.5396 88.8836 49.4167 89.1573 49.1982C89.431 48.9797 89.585 48.6835 89.5856 48.3746V41.3777C89.585 41.0687 89.431 40.7725 89.1573 40.5541C88.8836 40.3356 88.5126 40.2126 88.1255 40.2122ZM88.1255 41.3777V42.3648C87.4411 42.8073 86.3551 43.4975 84.0326 44.949C83.5193 45.2713 82.5063 46.0417 81.7991 46.0417C81.0918 46.0417 80.0789 45.2786 79.5678 44.949C77.243 43.4921 76.1457 42.8073 75.4726 42.3648V41.3741L88.1255 41.3777ZM75.4772 48.3746V43.8636C76.1753 44.3061 77.1632 44.9289 78.6712 45.8668C79.3374 46.2839 80.4964 47.2054 81.8059 47.1999C83.1155 47.1945 84.2539 46.2893 84.9406 45.8668C86.4464 44.9253 87.4342 44.3025 88.1346 43.8636V48.3746H75.4772Z" fill="#6C63FF"/>
<path opacity="0.1" d="M75.8058 59.6658H63.1574C62.9658 59.6658 62.776 59.6959 62.599 59.7545C62.422 59.8131 62.2612 59.899 62.1258 60.0073C61.9904 60.1155 61.883 60.244 61.8099 60.3854C61.7368 60.5268 61.6993 60.6783 61.6996 60.8313V67.8245C61.6996 68.1333 61.8531 68.4295 62.1264 68.6481C62.3998 68.8666 62.7706 68.9896 63.1574 68.9901H75.8058C76.1928 68.9896 76.5639 68.8666 76.8376 68.6482C77.1113 68.4297 77.2653 68.1335 77.2659 67.8245V60.8331C77.2662 60.6799 77.2287 60.5282 77.1554 60.3865C77.0822 60.2449 76.9747 60.1162 76.839 60.0078C76.7034 59.8994 76.5424 59.8134 76.3651 59.7547C76.1878 59.696 75.9977 59.6658 75.8058 59.6658ZM75.8058 60.8313V61.822C75.1213 62.2646 74.0354 62.9548 71.7129 64.4062C71.1995 64.7286 70.1866 65.4989 69.4793 65.4989C68.7721 65.4989 67.7591 64.7359 67.2481 64.4062C64.9233 62.9493 63.8259 62.2646 63.1529 61.822V60.8313H75.8058ZM63.1574 67.8245V63.319C63.8556 63.7615 64.8434 64.3826 66.3515 65.3223C67.0176 65.7411 68.1766 66.6626 69.4862 66.6572C70.7957 66.6517 71.9342 65.7466 72.6209 65.3241C74.1266 64.3826 75.1145 63.7597 75.8149 63.3208V67.8245H63.1574Z" fill="#6C63FF"/>
<path opacity="0.2" d="M89.5902 77.2744H76.9465C76.5594 77.2749 76.1884 77.3979 75.9147 77.6163C75.641 77.8348 75.4869 78.131 75.4863 78.44V85.4313C75.4869 85.7403 75.641 86.0365 75.9147 86.255C76.1884 86.4735 76.5594 86.5964 76.9465 86.5969H89.5993C89.9862 86.5964 90.357 86.4734 90.6303 86.2549C90.9037 86.0363 91.0572 85.7402 91.0572 85.4313V78.44C91.0572 78.2864 91.0192 78.1344 90.9454 77.9927C90.8716 77.8509 90.7634 77.7222 90.6271 77.6139C90.4908 77.5056 90.329 77.4198 90.1511 77.3616C89.9731 77.3033 89.7825 77.2737 89.5902 77.2744ZM89.5902 78.44V79.4307C88.9058 79.8732 87.8198 80.5634 85.4973 82.0149C84.984 82.3372 83.9687 83.1076 83.2638 83.1076C82.5588 83.1076 81.5436 82.3445 81.0302 82.0149C78.7077 80.5634 77.6309 79.8805 76.9465 79.4307V78.44H89.5902ZM76.9465 85.4313V80.9258C77.6446 81.3684 78.6324 81.9912 80.1405 82.9291C80.8044 83.3461 81.9656 84.2676 83.2752 84.2622C84.5847 84.2567 85.7232 83.3516 86.4099 82.9291C87.9156 81.9876 88.9035 81.3647 89.6039 80.9258V85.4313H76.9465Z" fill="#6C63FF"/>
<path opacity="0.2" d="M115.047 28.4785H102.398C102.207 28.4785 102.017 28.5087 101.84 28.5673C101.663 28.6259 101.502 28.7117 101.367 28.82C101.231 28.9283 101.124 29.0568 101.051 29.1982C100.978 29.3396 100.94 29.4911 100.94 29.6441V36.6354C100.94 36.9443 101.094 37.2404 101.367 37.459C101.641 37.6775 102.011 37.8005 102.398 37.801H115.047C115.434 37.8005 115.805 37.6775 116.078 37.4591C116.352 37.2406 116.506 36.9444 116.507 36.6354V29.6441C116.507 29.3349 116.353 29.0385 116.079 28.8199C115.805 28.6013 115.434 28.4785 115.047 28.4785ZM115.047 29.6441V30.6348C114.362 31.0773 113.276 31.7657 110.954 33.219C110.44 33.5413 109.427 34.3117 108.72 34.3117C108.013 34.3117 107 33.5486 106.489 33.219C104.164 31.762 103.067 31.0773 102.382 30.6348V29.6441H115.047ZM102.394 36.6354V32.1299C103.092 32.5725 104.08 33.1935 105.588 34.1332C106.254 34.552 107.413 35.4736 108.722 35.4681C110.032 35.4626 111.17 34.5575 111.857 34.1332C113.363 33.1916 114.351 32.5706 115.051 32.1299V36.6354H102.394Z" fill="#6C63FF"/>
<path opacity="0.2" d="M115.047 88.7695H102.398C102.011 88.77 101.641 88.893 101.367 89.1116C101.094 89.3301 100.94 89.6263 100.94 89.9351V96.9265C100.94 97.2353 101.094 97.5315 101.367 97.75C101.641 97.9685 102.011 98.0915 102.398 98.092H115.047C115.434 98.0915 115.805 97.9686 116.078 97.7501C116.352 97.5316 116.506 97.2354 116.507 96.9265V89.9351C116.506 89.6261 116.352 89.3299 116.078 89.1114C115.805 88.893 115.434 88.77 115.047 88.7695ZM115.047 89.9351V90.9258C114.362 91.3683 113.276 92.0585 110.954 93.51C110.44 93.8323 109.427 94.6027 108.72 94.6027C108.013 94.6027 107 93.8396 106.489 93.51C104.164 92.0531 103.067 91.3683 102.382 90.9258V89.9351H115.047ZM102.398 96.9265V92.4209C103.096 92.8635 104.084 93.4863 105.592 94.4242C106.258 94.8413 107.417 95.7628 108.727 95.7573C110.037 95.7518 111.175 94.8467 111.862 94.4242C113.367 93.4827 114.355 92.8598 115.056 92.4209V96.9265H102.398Z" fill="#6C63FF"/>
<path opacity="0.2" d="M129.687 41.3777V48.3746C129.687 48.6834 129.84 48.9796 130.113 49.1981C130.387 49.4166 130.758 49.5396 131.144 49.5401H143.793C144.18 49.5396 144.551 49.4167 144.825 49.1982C145.098 48.9797 145.252 48.6835 145.253 48.3746V41.3777C145.252 41.0687 145.098 40.7725 144.825 40.5541C144.551 40.3356 144.18 40.2126 143.793 40.2122H131.144C130.758 40.2126 130.387 40.3357 130.113 40.5542C129.84 40.7727 129.687 41.0689 129.687 41.3777ZM143.797 41.3777V42.3648C143.113 42.8073 142.027 43.4975 139.704 44.949C139.191 45.2713 138.176 46.0417 137.471 46.0417C136.766 46.0417 135.751 45.2786 135.24 44.949C132.915 43.4921 131.817 42.8073 131.133 42.3648V41.3741L143.797 41.3777ZM131.144 48.3746V43.8636C131.843 44.3061 132.83 44.9289 134.338 45.8668C135.023 46.2966 136.175 47.2054 137.473 47.1999C138.771 47.1945 139.944 46.2893 140.608 45.8668C142.114 44.9253 143.101 44.3025 143.802 43.8636V48.3746H131.144Z" fill="#6C63FF"/>
<path opacity="0.2" d="M141.153 60.09V67.0814C141.153 67.3905 141.307 67.687 141.581 67.9055C141.855 68.1241 142.226 68.2469 142.613 68.2469H155.264C155.651 68.2464 156.022 68.1235 156.296 67.905C156.569 67.6865 156.723 67.3904 156.724 67.0814V60.09C156.723 59.781 156.569 59.4848 156.296 59.2663C156.022 59.0479 155.651 58.9249 155.264 58.9244H142.613C142.422 58.9244 142.232 58.9546 142.054 59.0132C141.877 59.0717 141.716 59.1576 141.581 59.2658C141.445 59.374 141.338 59.5025 141.264 59.6439C141.191 59.7854 141.153 59.9369 141.153 60.09ZM155.264 60.09V61.0807C154.579 61.5232 153.493 62.2134 151.171 63.6649C150.66 63.9872 149.645 64.7576 148.937 64.7576C148.23 64.7576 147.217 63.9945 146.706 63.6649C144.381 62.208 143.295 61.5232 142.613 61.0807V60.09H155.264ZM142.613 67.0814V62.5795C143.298 63.022 144.297 63.6449 145.807 64.5828C146.492 65.0126 147.632 65.9213 148.94 65.9158C150.247 65.9104 151.411 65.0053 152.074 64.5828C153.58 63.6412 154.57 63.0184 155.268 62.5795V67.085L142.613 67.0814Z" fill="#6C63FF"/>
<path opacity="0.2" d="M128.226 78.44V85.4313C128.226 85.7404 128.38 86.0369 128.654 86.2555C128.928 86.4741 129.299 86.5969 129.687 86.5969H142.337C142.724 86.5964 143.095 86.4734 143.369 86.255C143.643 86.0365 143.797 85.7403 143.797 85.4313V78.44C143.797 78.131 143.643 77.8348 143.369 77.6163C143.095 77.3978 142.724 77.2749 142.337 77.2744H129.687C129.299 77.2744 128.928 77.3972 128.654 77.6158C128.38 77.8344 128.226 78.1308 128.226 78.44ZM142.337 78.44V79.4307C141.653 79.8732 140.567 80.5634 138.244 82.0149C137.731 82.3372 136.718 83.1075 136.011 83.1075C135.303 83.1075 134.291 82.3445 133.779 82.0149C131.455 80.5579 130.357 79.8732 129.687 79.4307V78.44H142.337ZM129.687 85.4313V80.9258C130.382 81.3684 131.37 81.9912 132.881 82.9291C133.565 83.3589 134.706 84.2676 136.013 84.2622C137.32 84.2567 138.484 83.3516 139.148 82.9291C140.653 81.9875 141.641 81.3647 142.342 80.9258V85.4313H129.687Z" fill="#6C63FF"/>
<path d="M100.879 57.0396L100.667 56.9704C100.472 56.7477 100.251 56.5404 100.007 56.3512C100.007 56.3512 94.1965 54.7959 93.0147 54.2223C92.2826 53.8756 91.4475 53.692 90.5963 53.6905L88.4883 53.4046C88.4883 53.4046 87.3042 53.2006 86.7384 53.0403C86.1726 52.8801 85.1414 52.5504 85.1414 52.5504C85.1414 52.5504 83.9072 52.1407 83.6995 51.8948C83.4919 51.649 82.4653 51.445 82.4653 51.445L80.3572 50.1702C80.3572 50.1702 78.6598 49.3507 78.402 48.573C78.1442 47.7954 77.1678 45.6264 73.8779 47.0178C73.8779 47.0178 72.2307 46.6535 71.8246 46.2401C71.4185 45.8267 67.5583 46.2802 67.5583 46.2802L66.356 44.6412C66.2102 43.7238 66.1781 42.7972 66.2602 41.8748C66.2602 41.7874 66.2784 41.6927 66.2898 41.6108C67.3799 40.9434 68.1566 40.0024 68.4947 38.9395C68.8329 37.8766 68.7128 36.7538 68.1538 35.7521C68.1195 35.6902 68.0808 35.6283 68.0443 35.57C68.138 35.4275 68.2048 35.2747 68.2427 35.1165C68.2427 35.0765 68.2587 35.0364 68.2656 34.9963C68.277 34.9032 68.2808 34.8095 68.277 34.7159C68.2755 34.5389 68.2464 34.3627 68.1903 34.1914L68.1424 34.0639C67.9858 33.6814 67.6962 33.3422 67.3074 33.086C66.9264 32.8383 66.4473 32.6689 66.1666 32.3575C65.7537 31.8876 65.8609 31.2229 65.4822 30.7403C65.4444 30.6953 65.4033 30.6521 65.359 30.611L65.3248 30.5819C65.286 30.5491 65.2449 30.52 65.2039 30.4908L65.1788 30.4744C64.6198 30.1102 63.7483 30.0792 63.0205 30.2267C62.1422 30.4089 61.3277 30.7731 60.4288 30.8787C59.7147 30.9552 58.9938 30.8478 58.2751 30.8113C57.5565 30.7749 56.7876 30.8113 56.1967 31.1464C55.4689 31.5525 55.1723 32.301 54.5358 32.7964C53.8993 33.2917 52.8841 33.5249 52.3274 34.1094C52.1268 34.3247 51.9969 34.5766 51.9495 34.8422C51.9021 35.1078 51.9386 35.3787 52.0559 35.6301C52.284 36.0981 52.7837 36.4751 52.8977 36.9687C53.0255 37.515 52.6696 38.1196 52.9092 38.6168C52.9277 38.6524 52.949 38.6871 52.973 38.7206C53.0034 38.7188 53.0339 38.7188 53.0643 38.7206H53.135H53.1533L53.24 38.7334C53.2686 38.7377 53.2969 38.7438 53.3244 38.7516C53.5068 38.8066 53.6707 38.8949 53.803 39.0093C53.9353 39.1237 54.0323 39.2612 54.0864 39.4108C54.2347 39.7987 54.1525 40.2176 54.0864 40.6201C54.0202 41.0225 53.9472 41.445 54.1274 41.8238C54.1355 41.8427 54.1454 41.8609 54.1571 41.8785C54.1725 41.9067 54.1916 41.9336 54.2141 41.9586L54.2278 41.9732C54.2501 41.9976 54.2761 42.0196 54.3054 42.0387C54.4393 42.1011 54.5907 42.1355 54.7457 42.1389C54.7982 42.1389 54.8507 42.1535 54.9009 42.1626C54.951 42.1717 54.9693 42.1772 55.0012 42.1844L55.0491 42.1954C55.0925 42.2063 55.1336 42.2172 55.1769 42.2318H55.1883C55.2339 42.2482 55.2796 42.2627 55.3229 42.281C55.5579 42.3684 55.7688 42.4922 55.9435 42.6452C56.0142 42.7071 56.0804 42.7745 56.1488 42.8382L56.2469 42.9202C56.2821 42.9464 56.3194 42.9708 56.3587 42.993C56.5269 43.0792 56.725 43.1206 56.9245 43.1114C57.1807 43.0987 57.4338 43.0595 57.6774 42.9948L57.6979 43.1478C57.739 43.4392 57.7755 43.727 57.8051 44.0074C57.8051 44.0475 57.8051 44.0857 57.8165 44.124C57.0628 44.6283 56.4423 45.2474 55.9914 45.9451L56.0598 46.1272C56.034 46.1503 56.0112 46.174 55.9914 46.1983V47.016C55.9914 47.016 50.5387 47.7936 49.9205 48.1633C49.3022 48.533 48.1729 48.5712 48.1729 48.5712C48.1729 48.5712 45.0861 48.4492 45.0861 50.7402C45.0861 50.7402 44.9834 51.8038 44.3674 51.8457C43.7514 51.8875 43.4412 52.5413 43.4412 52.5413L40.3042 55.2421L35.7253 58.1887C35.7253 58.1887 33.6925 59.7149 33.1724 60.3486C33.1104 60.4112 33.0689 60.485 33.0515 60.5635C33.0515 60.5635 27.503 65.4934 33.5762 67.5622L33.7655 67.6241L39.0745 70.7984L45.6907 73.7851L45.8891 73.5611L45.9941 73.6175L46.7903 74.0364L47.8078 72.727L47.9424 72.7507C48.3166 72.8199 48.7638 72.9656 48.9691 73.2679C49.2725 73.7159 51.1045 74.6647 52.2202 74.7576L52.1791 74.8559L51.554 76.4458C51.554 76.4458 50.3197 77.5913 50.5775 78.001C50.8353 78.4108 50.1212 81.4394 50.1212 81.4394C50.1212 81.4394 51.2619 81.8036 51.8186 82.0531C51.9262 82.0865 52.0378 82.1109 52.1517 82.126C52.1517 82.2061 52.1312 82.288 52.1198 82.3664C52.102 82.6524 51.979 82.928 51.7661 83.1586C51.1479 83.6484 51.2003 84.6319 51.2003 84.6319C51.2003 84.6319 50.8901 86.0633 51.2003 86.2272C51.5106 86.3911 51.0612 86.759 51.0612 86.759C51.0612 86.759 51.5403 87.9864 51.0612 88.4781C50.5821 88.9699 49.5942 95.5988 51.4239 98.8314C51.4239 98.8314 53.0552 101.614 52.1791 102.598C51.303 103.581 50.192 106.732 50.3539 107.303C50.5159 107.875 50.1144 109.268 50.1144 109.268C50.1144 109.268 50.7828 112.182 50.3197 112.787C49.8566 113.392 48.6223 122.732 50.1144 124.989C50.1144 124.989 48.6223 126.504 47.8512 126.504C47.0801 126.504 48.5197 128.871 49.1356 129.328C49.7516 129.786 50.03 131.987 50.03 131.987L50.1189 132.02C50.144 132.107 50.1737 132.202 50.2034 132.295C50.5296 133.309 51.0886 134.703 51.7091 134.73C52.6856 134.77 56.4408 134.566 56.5937 133.828C56.7465 133.091 56.5412 131.863 57.3123 131.496C58.0835 131.128 60.7596 130.064 59.1147 127.527C58.914 127.509 58.7118 127.505 58.5101 127.513H58.4964L58.8044 122.049L60.0387 114.069C60.0387 114.069 61.1201 111.326 61.2752 110.958C61.4303 110.591 61.0174 109.977 61.0174 109.977L61.3072 107.766C61.3072 107.766 61.1201 105.311 61.7361 104.983C62.3521 104.655 61.9939 103.43 61.9939 103.43C61.9939 103.43 62.5095 101.997 62.5597 101.219C62.6167 100.652 62.7373 100.09 62.9201 99.5398C62.9201 99.5398 63.1255 98.8114 63.4859 97.8225C63.7227 97.0983 63.8754 96.3582 63.9422 95.6116C63.9422 95.6116 65.3293 94.2202 65.1765 93.1148C65.0236 92.0094 65.2791 90.2501 65.7925 90.618C66.3058 90.9859 66.6161 92.257 66.6161 92.257L67.3872 95.6954C67.3872 95.6954 68.7241 99.0918 68.569 99.5835C68.4139 100.075 68.9819 101.875 68.9819 101.875C68.9819 101.875 68.8793 103.962 69.1873 104.453C69.4953 104.945 69.1873 105.927 69.1873 105.927C69.1873 105.927 70.2162 108.014 70.0611 108.423C69.9059 108.833 70.077 111.246 70.077 111.246L70.3713 113.047C70.3713 113.047 70.6793 114.481 70.3713 115.258C70.0633 116.036 71.7174 126.185 72.176 127.005C72.6345 127.824 71.9136 129.5 71.9136 129.5C71.9136 129.5 71.3478 130.851 73.7638 131.867L74.4848 134.2L74.5373 134.213C74.5373 134.295 74.5532 134.38 74.5692 134.464C74.7722 135.542 75.7966 136.649 79.577 135.715C79.577 135.715 80.7177 135.398 81.0166 134.739C81.3154 134.08 83.6904 133.382 83.6904 133.382C83.6904 133.382 85.7711 131.486 83.9482 130.15C83.7067 129.948 83.3931 129.812 83.0504 129.758C82.7078 129.705 82.3528 129.737 82.0341 129.851C81.9606 129.323 82.0711 128.788 82.3535 128.307C82.9193 127.367 81.7877 125.36 81.4295 125.029C81.0713 124.697 81.8858 123.187 81.8858 123.187C81.7309 122.769 81.5419 122.359 81.32 121.96C81.1147 121.672 80.9093 114.224 80.9093 114.224C80.9093 114.224 80.4987 110.132 79.4173 108.412C79.4173 108.412 79.6751 107.185 79.7777 106.653C79.8804 106.121 79.6751 97.2816 79.6751 97.2816C79.6751 97.2816 81.8858 94.3678 80.3435 90.0371C80.3508 89.4061 80.4194 88.7765 80.5489 88.154C80.7542 87.2543 80.2409 85.6572 80.2409 85.6572C80.2409 85.6572 80.8067 83.4062 79.7275 82.7433C79.2713 82.4738 79.0796 81.8564 78.9975 81.2227C78.9975 81.1425 78.9815 81.0624 78.9747 80.9841C80.4165 80.68 81.4706 80.343 81.5778 80.0025C81.9383 78.857 79.5724 73.4464 79.5724 73.4464L76.7183 66.8283C76.7183 66.8283 77.7997 63.7997 77.3366 62.8582C76.8735 61.9166 78.3655 59.5418 78.3655 59.5418C78.3655 59.5418 77.6948 57.9884 78.1579 57.5786C78.1925 57.544 78.2202 57.5053 78.24 57.4639L79.342 58.1104C79.342 58.1104 81.1945 58.5202 81.6417 58.9281C82.0888 59.3361 84.0737 59.2159 84.0737 59.2159C84.0737 59.2159 86.0243 59.1703 87.2677 59.3688C87.6003 59.3991 87.916 59.5018 88.1803 59.6657C88.7986 60.1993 90.8564 60.3941 91.2671 60.1574C91.4222 60.0627 91.7234 60.0645 92.0633 60.1009C92.439 60.1504 92.809 60.2241 93.1698 60.3213L100.014 61.017C100.169 60.9148 100.317 60.8059 100.457 60.691L100.546 60.7456C106.083 63.9636 106.29 60.813 106.29 60.813C106.29 60.813 108.243 61.2209 108.243 60.2667C108.236 59.5072 103.106 57.7608 100.879 57.0396ZM50.0026 70.1045L49.8566 70.0954L49.9547 69.9698L49.4094 69.7658L49.2931 69.7221L49.4984 69.4872L44.0936 66.9066C43.7296 66.7394 43.4412 66.4843 43.2701 66.1781C42.9621 65.6464 41.6251 65.5243 41.6251 65.5243L40.108 64.459C40.108 64.459 41.8829 62.7398 42.3894 62.7398C42.8959 62.7398 43.7788 62.2317 43.7788 62.2317L45.9485 61.0625L45.9895 61.1044C45.9895 61.1044 47.8923 62.9856 48.0428 63.3134C48.1934 63.6413 49.8931 65.0727 49.8931 65.0727C49.8931 65.0727 51.6954 66.8738 52.5167 68.8789C52.8177 69.21 53.1652 69.5125 53.5525 69.7804C52.1426 69.9042 50.4589 70.1446 50.4589 70.1446L50.0026 70.1045Z" fill="url(#paint0_linear)"/>
<path d="M66.68 42.5068C66.4199 45.0746 67.353 47.7026 67.353 47.7026C67.353 47.7026 57.4744 48.1906 58.1862 47.1344C58.2819 46.9618 58.3368 46.7765 58.3482 46.588C58.4005 45.9367 58.3837 45.283 58.298 44.6339C58.2683 44.3553 58.2318 44.0694 58.193 43.778C58.0607 42.8255 57.885 41.8457 57.7367 41.0754C57.7116 40.957 57.6888 40.8423 57.6683 40.7348C57.5291 40.0555 57.4265 39.6075 57.4265 39.6075C57.4265 39.6075 65.0214 37.8246 67.3188 38.4329C67.9667 38.6041 68.1948 38.9628 67.7135 39.6075C67.1487 40.4169 66.8086 41.3138 66.7165 42.2373C66.6914 42.332 66.68 42.4194 66.68 42.5068Z" fill="#BE6F72"/>
<path d="M108.236 60.773C108.236 61.7273 106.302 61.3193 106.302 61.3193C106.302 61.3193 106.096 64.4499 100.614 61.2519C100.475 61.17 100.331 61.0844 100.183 60.9933L99.9548 57.4567V57.2527C99.9548 57.2527 100.343 57.3747 100.952 57.5714C103.156 58.2907 108.236 60.0299 108.236 60.773Z" fill="#BE6F72"/>
<path d="M57.8234 131.521C57.0591 131.885 57.2644 133.107 57.1116 133.838C56.9587 134.568 53.2331 134.774 52.2726 134.734C51.6589 134.706 51.1045 133.322 50.7828 132.315C50.598 131.736 50.4885 131.281 50.4885 131.281C50.4885 131.281 56.6484 129.327 57.1617 128.35C57.4857 127.728 58.396 127.586 59.0074 127.566C59.2068 127.557 59.4066 127.562 59.6052 127.578C61.2364 130.099 58.5854 131.155 57.8234 131.521Z" fill="#464A5F"/>
<path d="M83.9459 133.391C83.9459 133.391 81.6052 134.082 81.2995 134.739C80.9937 135.397 79.8736 135.71 79.8736 135.71C76.1297 136.64 75.1168 135.537 74.916 134.466C74.8385 133.971 74.8788 133.468 75.0346 132.985L80.5352 131.15C80.5352 131.15 81.2812 130.228 82.2873 129.889C82.6045 129.772 82.9597 129.737 83.3031 129.79C83.6464 129.842 83.9606 129.979 84.2015 130.181C86.0061 131.508 83.9459 133.391 83.9459 133.391Z" fill="#464A5F"/>
<path opacity="0.1" d="M59.0074 127.566L58.8911 129.613C57.2644 130.505 57.0659 132.253 57.0659 132.253C56.0784 132.599 55.0139 132.782 53.9357 132.793C52.8575 132.804 51.7876 132.641 50.7897 132.315C50.6049 131.736 50.4954 131.281 50.4954 131.281C50.4954 131.281 56.6553 129.327 57.1686 128.35C57.4857 127.728 58.396 127.595 59.0074 127.566Z" fill="black"/>
<path opacity="0.1" d="M82.3672 130.425C80.4325 135.36 75.6118 134.603 74.916 134.466C74.8385 133.971 74.8788 133.469 75.0346 132.985L80.5352 131.15C80.5352 131.15 81.2812 130.228 82.2874 129.889C82.2897 130.07 82.3165 130.249 82.3672 130.425Z" fill="black"/>
<path d="M82.6227 128.35C82.288 128.921 82.1982 129.565 82.3672 130.181C80.2796 135.506 74.8384 134.204 74.8384 134.204L74.1243 131.887C71.7311 130.871 72.2991 129.53 72.2991 129.53C72.2991 129.53 73.0132 127.862 72.5592 127.05C72.1052 126.238 70.4649 116.156 70.7706 115.384C71.0763 114.612 70.7706 113.189 70.7706 113.189L70.4808 111.399C70.4808 111.399 70.312 109.002 70.4649 108.594C70.6177 108.187 69.6002 106.116 69.6002 106.116C69.6002 106.116 69.9059 105.14 69.6002 104.659C69.2945 104.178 69.3971 102.098 69.3971 102.098C69.3971 102.098 68.8359 100.31 68.9888 99.822C69.1416 99.3339 67.8184 95.9612 67.8184 95.9612L67.0541 92.5465C67.0541 92.5465 66.7484 91.2863 66.2373 90.9202C65.7263 90.5542 65.4753 92.3025 65.6282 93.4006C65.781 94.4988 64.3985 95.8719 64.3985 95.8719C64.3316 96.6137 64.1789 97.3489 63.9422 98.0682C63.5863 99.0426 63.3832 99.7747 63.3832 99.7747C63.2017 100.32 63.0819 100.878 63.0251 101.441C62.9749 102.213 62.4661 103.637 62.4661 103.637C62.4661 103.637 62.822 104.856 62.2106 105.18C61.5992 105.504 61.7862 107.944 61.7862 107.944L61.4988 110.141C61.4988 110.141 61.9049 110.751 61.752 111.115C61.5992 111.479 60.5314 114.211 60.5314 114.211L59.2995 122.131L58.8911 129.368C57.2644 130.261 57.0659 132.009 57.0659 132.009C56.05 132.367 54.9516 132.552 53.8411 132.552C52.7306 132.552 51.6322 132.367 50.6163 132.009C50.6163 132.009 50.3425 129.824 49.7334 129.368C49.1242 128.913 47.696 126.564 48.4603 126.564C49.2246 126.564 50.7007 125.058 50.7007 125.058C49.2246 122.823 50.4452 113.555 50.9037 112.945C51.3623 112.335 50.7007 109.449 50.7007 109.449C50.7007 109.449 51.1068 108.066 50.9402 107.498C50.7737 106.93 51.8711 103.799 52.738 102.823C53.605 101.847 51.992 99.0826 51.992 99.0826C50.1782 95.8719 51.1593 89.2866 51.6338 88.7986C52.1083 88.3105 51.6338 87.0921 51.6338 87.0921C51.6338 87.0921 52.0764 86.7279 51.7684 86.564C51.4604 86.4001 51.7684 84.9796 51.7684 84.9796C51.7684 84.9796 51.7159 84.0035 52.3274 83.5227C52.5393 83.2941 52.6608 83.0201 52.6764 82.736C52.747 82.146 52.747 81.5521 52.6764 80.9622L59.7033 77.6695L68.5119 77.0995L79.3077 79.782C79.2399 80.3879 79.2399 80.9974 79.3077 81.6032C79.3876 82.2315 79.5861 82.8452 80.0287 83.1129C81.0987 83.7649 80.5374 85.9995 80.5374 85.9995C80.5374 85.9995 81.0462 87.5857 80.8431 88.4799C80.7151 89.0982 80.6472 89.7235 80.6401 90.3502C82.1664 94.659 79.9762 97.5456 79.9762 97.5456C79.9762 97.5456 80.1815 106.325 80.0789 106.853C79.9762 107.382 79.723 108.6 79.723 108.6C80.793 110.308 81.1991 114.373 81.1991 114.373C81.1991 114.373 81.4021 121.771 81.6074 122.056C81.8269 122.453 82.0136 122.861 82.1664 123.277C82.1664 123.277 81.3519 124.779 81.7101 125.098C82.0683 125.416 83.1816 127.412 82.6227 128.35Z" fill="#5F5D7E"/>
<path opacity="0.1" d="M67.7021 39.6147C67.1373 40.4241 66.7973 41.321 66.7051 42.2445C66.6914 42.3319 66.6823 42.4266 66.6732 42.5067C65.6511 43.1296 64.0746 42.8145 62.6875 42.8145C62.1992 42.8145 62.3156 42.2408 61.8593 42.1552C60.2235 41.8402 58.5489 42.2135 57.7253 41.0826C57.7002 40.9642 57.6774 40.8495 57.6569 40.742C57.5177 40.0627 57.415 39.6147 57.415 39.6147C57.415 39.6147 65.01 37.8318 67.3074 38.4401C67.9553 38.6113 68.1835 38.9701 67.7021 39.6147Z" fill="black"/>
<path d="M69.0732 38.3983C69.0732 39.0363 68.9157 39.6682 68.6099 40.2577C68.304 40.8472 67.8556 41.3828 67.2904 41.834C66.7252 42.2852 66.0541 42.6431 65.3156 42.8873C64.5772 43.1314 63.7856 43.2571 62.9863 43.2571C62.5069 43.2565 62.0293 43.2119 61.5627 43.1242C60.4509 42.9111 59.4368 42.4525 58.6363 41.8009C57.8358 41.1493 57.2813 40.3309 57.0363 39.4394C56.7913 38.548 56.8656 37.6195 57.2508 36.7602C57.636 35.9009 58.3165 35.1455 59.2144 34.5805C60.1123 34.0155 61.1914 33.6637 62.328 33.5654C63.4647 33.4671 64.6131 33.6262 65.6418 34.0246C66.6704 34.4229 67.5378 35.0444 68.1447 35.8179C68.7515 36.5914 69.0733 37.4856 69.0732 38.3983Z" fill="#BE6F72"/>
<path opacity="0.1" d="M65.9362 45.437C63.5817 44.8596 60.3444 45.8303 58.3413 46.5952C58.3936 45.9439 58.3768 45.2902 58.2911 44.6411C59.6371 43.7433 61.7612 43.0804 64.727 44.2769C64.9985 44.388 65.2769 44.5136 65.5643 44.6539L65.9362 45.437Z" fill="black"/>
<path d="M65.9362 45.5591C62.7787 44.7833 58.031 46.7975 56.8104 47.3584L56.5823 46.7392L56.5161 46.5662C56.5161 46.5662 59.1101 42.1244 64.743 44.399C65.0145 44.5101 65.2928 44.6357 65.5803 44.776L65.9362 45.5591Z" fill="#6C63FF"/>
<path opacity="0.1" d="M79.3054 81.5978C75.9266 82.3154 70.3667 82.8526 70.0451 82.8235C69.5888 82.7834 65.5118 83.5155 65.5118 83.5155C65.6647 83.1076 64.2913 78.7186 64.2913 78.7186L63.3216 83.7595C63.3216 83.7595 54.4833 83.0311 52.6719 82.7288C52.7425 82.1388 52.7425 81.5449 52.6719 80.955L59.6987 77.6623L68.5074 77.0923L79.3032 79.7748C79.2359 80.3814 79.2367 80.9914 79.3054 81.5978Z" fill="black"/>
<path d="M81.8584 80.385C81.5093 81.5195 70.5014 82.6122 70.0451 82.5794C69.5888 82.5467 65.5119 83.2715 65.5119 83.2715C65.6647 82.8635 64.2913 78.4746 64.2913 78.4746L63.3217 83.5228C63.3217 83.5228 52.9343 82.6687 52.3707 82.4301C51.8072 82.1915 50.6893 81.8218 50.6893 81.8218C50.6893 81.8218 51.4011 78.8133 51.1456 78.4072C50.8901 78.0011 52.1129 76.861 52.1129 76.861L52.7335 75.2839L54.6066 70.5198C54.4972 70.4701 54.392 70.4147 54.2917 70.354C53.8313 70.0628 53.4236 69.722 53.0803 69.3415C52.2726 67.3364 50.4817 65.548 50.4817 65.548C50.4817 65.548 48.8026 64.1257 48.6565 63.7997C48.5105 63.4737 46.6192 61.6052 46.6192 61.6052L40.9681 55.7921L44.0731 53.1096C44.0731 53.1096 44.3788 52.4594 44.9857 52.4193C45.5926 52.3793 45.6998 51.3266 45.6998 51.3266C45.6998 49.0502 48.7546 49.1722 48.7546 49.1722C48.7546 49.1722 49.8748 49.1322 50.484 48.7661C51.0931 48.4 56.4956 47.6261 56.4956 47.6261V46.9358C61.0265 42.1389 66.7621 45.2567 66.7621 45.2567L67.9553 46.8958C67.9553 46.8958 71.7721 46.4496 72.1782 46.8557C72.5843 47.2618 74.2156 47.6261 74.2156 47.6261C77.4757 46.2456 78.4408 48.4001 78.6963 49.1722C78.9519 49.9444 80.6333 50.7566 80.6333 50.7566C80.6333 50.7566 78.8994 57.708 78.4408 58.1141C77.9822 58.5202 78.6461 60.0664 78.6461 60.0664C78.6461 60.0664 77.1746 62.4193 77.6309 63.3517C78.0872 64.2841 77.0195 67.2963 77.0195 67.2963L79.8713 73.8816C79.8713 73.8816 82.2143 79.2467 81.8584 80.385Z" fill="#464A5F"/>
<path opacity="0.1" d="M67.9598 47.1344C65.1103 43.6378 56.5001 47.8629 56.5001 47.8629V47.1727C61.0311 42.3757 66.7666 45.4936 66.7666 45.4936L67.9598 47.1344Z" fill="black"/>
<path opacity="0.1" d="M65.9362 45.559C62.7787 44.7832 58.031 46.7974 56.8104 47.3584L56.5093 47.4986V46.8084L56.5754 46.7392C59.3999 43.8053 62.676 43.9091 64.7362 44.399C65.0077 44.5101 65.286 44.6357 65.5735 44.776L65.9362 45.559Z" fill="black"/>
<path d="M67.9598 46.8903C65.1103 43.3955 56.5001 47.6187 56.5001 47.6187V46.9285C61.0311 42.1316 66.7666 45.2494 66.7666 45.2494L67.9598 46.8903Z" fill="#464A5F"/>
<path opacity="0.1" d="M65.8175 73.1896L64.2913 78.4709L64.5833 79.427C64.5833 79.427 66.2236 73.9217 65.8175 73.1896Z" fill="black"/>
<path opacity="0.1" d="M76.8689 64.4098C76.8689 64.4098 76.1046 69.3269 71.1128 70.7511C71.1128 70.7511 75.2376 67.7844 76.8689 64.4098Z" fill="black"/>
<path opacity="0.1" d="M56.1853 68.8006C56.1853 68.8006 62.2448 66.7263 62.2448 67.5804C62.2448 68.4346 56.1853 68.8006 56.1853 68.8006Z" fill="black"/>
<path opacity="0.1" d="M69.1279 64.6138C69.1279 64.6138 73.3555 62.2154 74.2703 62.8254C75.1852 63.4355 69.1279 64.6138 69.1279 64.6138Z" fill="black"/>
<path opacity="0.1" d="M100.614 61.2538C100.475 61.1718 100.331 61.0862 100.183 60.9952L99.9548 57.4585V57.2545C99.9548 57.2545 100.343 57.3765 100.952 57.5732C101.65 58.4 102.38 59.8478 100.614 61.2538Z" fill="black"/>
<path d="M100.089 61.5233L93.3158 60.8331C92.9587 60.7371 92.5925 60.664 92.2208 60.6145C91.8968 60.5781 91.5865 60.5763 91.4314 60.6692C91.0253 60.9132 88.9879 60.7111 88.3765 60.1811C88.1119 60.0179 87.7962 59.9158 87.4639 59.8861C86.2297 59.6912 84.2996 59.7349 84.2996 59.7349C84.2996 59.7349 82.3353 59.8569 81.8904 59.4508C81.4455 59.0447 79.6089 58.6386 79.6089 58.6386L77.6743 57.4985L78.8948 50.427L80.6287 50.7512L82.714 52.0114C82.714 52.0114 83.7338 52.2154 83.9368 52.4594C84.1399 52.7034 85.3627 53.1096 85.3627 53.1096C85.3627 53.1096 86.3803 53.4337 86.9415 53.5976C87.5027 53.7615 88.6731 53.9619 88.6731 53.9619L90.7606 54.2478C91.604 54.2491 92.4314 54.4316 93.1561 54.7759C94.3242 55.3459 100.08 56.8903 100.08 56.8903C100.08 56.8903 103.411 59.3288 100.089 61.5233Z" fill="#464A5F"/>
<path opacity="0.1" d="M93.1447 59.4563C92.956 59.8581 92.6419 60.2148 92.2321 60.4925C91.9081 60.4561 91.5979 60.4542 91.4427 60.5471C91.0366 60.7912 88.9993 60.589 88.3879 60.0609C88.1241 59.8963 87.8081 59.7935 87.4753 59.764C87.3179 58.8534 86.9026 55.1292 90.8359 55.3714C95.2961 55.6446 93.1447 59.4563 93.1447 59.4563Z" fill="black"/>
<path d="M93.1447 59.5783C92.956 59.9801 92.6419 60.3368 92.2321 60.6145C91.9081 60.5781 91.5979 60.5763 91.4427 60.6692C91.0366 60.9132 88.9993 60.7111 88.3879 60.1811C88.1233 60.0179 87.8076 59.9158 87.4753 59.8861C87.3179 58.9846 86.9026 55.2512 90.8359 55.4934C95.2961 55.7666 93.1447 59.5783 93.1447 59.5783Z" fill="#5F5D7E"/>
<path d="M99.0377 59.4398C99.1637 59.4398 99.2658 59.3036 99.2658 59.1357C99.2658 58.9677 99.1637 58.8315 99.0377 58.8315C98.9117 58.8315 98.8095 58.9677 98.8095 59.1357C98.8095 59.3036 98.9117 59.4398 99.0377 59.4398Z" fill="#6C63FF"/>
<path d="M99.4963 59.5619C99.6223 59.5619 99.7244 59.4257 99.7244 59.2577C99.7244 59.0898 99.6223 58.9536 99.4963 58.9536C99.3703 58.9536 99.2681 59.0898 99.2681 59.2577C99.2681 59.4257 99.3703 59.5619 99.4963 59.5619Z" fill="#6C63FF"/>
<path d="M99.9548 59.6766C100.081 59.6766 100.183 59.5405 100.183 59.3725C100.183 59.2045 100.081 59.0684 99.9548 59.0684C99.8288 59.0684 99.7267 59.2045 99.7267 59.3725C99.7267 59.5405 99.8288 59.6766 99.9548 59.6766Z" fill="#6C63FF"/>
<path opacity="0.1" d="M82.9604 52.5359C82.9604 52.5359 83.3414 52.749 82.6364 53.4046C81.9314 54.0602 82.9604 52.5359 82.9604 52.5359Z" fill="black"/>
<path opacity="0.1" d="M86.6084 54.1367C86.6084 54.1367 87.6396 57.138 86.7612 57.657C85.8829 58.176 86.6084 54.1367 86.6084 54.1367Z" fill="black"/>
<path d="M57.0089 84.1438C57.2194 84.1438 57.3899 84.0076 57.3899 83.8397C57.3899 83.6717 57.2194 83.5355 57.0089 83.5355C56.7985 83.5355 56.6279 83.6717 56.6279 83.8397C56.6279 84.0076 56.7985 84.1438 57.0089 84.1438Z" fill="#6C63FF"/>
<path d="M75.2011 83.8197C75.4116 83.8197 75.5821 83.6835 75.5821 83.5156C75.5821 83.3476 75.4116 83.2114 75.2011 83.2114C74.9907 83.2114 74.8201 83.3476 74.8201 83.5156C74.8201 83.6835 74.9907 83.8197 75.2011 83.8197Z" fill="#6C63FF"/>
<path opacity="0.1" d="M54.5632 90.9895C54.5632 90.9895 58.4417 93.8341 63.527 90.9895C63.527 90.9895 57.8896 91.9001 54.5632 90.9895Z" fill="black"/>
<path opacity="0.1" d="M68.8724 91.8473C68.8724 91.8473 75.443 92.1733 77.0719 90.995C78.7009 89.8167 68.8724 91.8473 68.8724 91.8473Z" fill="black"/>
<path opacity="0.1" d="M53.1373 98.4326C53.24 98.6366 55.4302 103.8 58.5352 103.84L53.1373 98.4326Z" fill="black"/>
<path opacity="0.1" d="M79.5678 93.1896C79.5678 93.1896 76.7662 102.827 73.6087 104.084L79.5678 93.1896Z" fill="black"/>
<path opacity="0.1" d="M49.5691 127.376C49.5691 127.376 55.4757 128.351 54.7639 128.799C54.0521 129.247 50.4817 129.123 50.4817 129.123L49.5691 127.376Z" fill="black"/>
<path opacity="0.1" d="M77.8362 125.384C77.8362 125.384 79.9237 127.294 80.6355 126.238C81.3473 125.182 77.8362 125.384 77.8362 125.384Z" fill="black"/>
<path opacity="0.1" d="M74.0673 129.449C74.5236 129.409 76.3601 129.653 77.8362 129.449C79.3123 129.245 74.4141 128.8 73.8118 129.531C73.2095 130.261 74.0673 129.449 74.0673 129.449Z" fill="black"/>
<path opacity="0.1" d="M68.5485 36.4242C68.4851 36.5093 68.4084 36.5877 68.3203 36.6573C68.1173 36.8176 67.864 36.9287 67.6724 37.1017C67.2845 37.4568 67.3188 37.9504 67.3028 38.4402C67.3034 38.6373 67.2782 38.8338 67.2275 39.0267C67.1394 39.3109 66.9575 39.5712 66.7007 39.7803C66.4439 39.9894 66.1216 40.1398 65.7674 40.2159C65.4906 39.7811 65.0535 39.4245 64.5149 39.1942C64.4217 39.1451 64.3115 39.1209 64.2 39.125C64.0706 39.1528 63.9585 39.2176 63.8852 39.3071C63.3991 39.7832 63.0956 40.3612 63.0114 40.9716C62.9692 41.2687 62.9784 41.569 63.0388 41.864C63.0844 42.068 63.381 42.5105 63.2669 42.6999C63.0889 42.984 62.2015 43.0641 61.5604 43.1261C61.3322 43.1461 61.1474 43.1643 61.0265 43.1862C60.1246 43.3464 59.2318 43.5346 58.3481 43.7507L58.1838 43.7871C58.0333 42.6945 57.8188 41.5526 57.6545 40.744C57.255 40.1697 57.0055 39.5368 56.9211 38.8834C56.8367 38.2299 56.9191 37.5697 57.1634 36.9424C57.4078 36.3151 57.8089 35.7339 58.3425 35.2339C58.8762 34.7339 59.5313 34.3255 60.2684 34.0333C61.0054 33.7411 61.809 33.5712 62.6305 33.534C63.4521 33.4967 64.2746 33.5928 65.0484 33.8164C65.8221 34.0401 66.531 34.3867 67.1322 34.8352C67.7334 35.2837 68.2144 35.8249 68.5462 36.426L68.5485 36.4242Z" fill="black"/>
<path d="M63.7414 39.1832C63.8143 39.0933 63.9266 39.0284 64.0563 39.0011C64.1675 38.9963 64.2778 39.0199 64.3711 39.0685C64.9093 39.2997 65.3469 39.656 65.6259 40.0901C65.9789 40.0133 66.2998 39.8625 66.5553 39.6534C66.8108 39.4443 66.9917 39.1845 67.0792 38.9009C67.2686 38.2544 66.9788 37.4786 67.5241 36.9741C67.7089 36.803 67.969 36.6919 68.172 36.5316C68.4485 36.2941 68.62 35.991 68.6602 35.6684C68.7126 35.3171 68.6541 34.9609 68.4899 34.6324C68.3257 34.3038 68.0612 34.0132 67.7203 33.7871C67.3416 33.5395 66.8693 33.3719 66.5796 33.0587C66.1689 32.5925 66.2784 31.9314 65.8951 31.4524C65.4092 30.8496 64.3278 30.764 63.4563 30.9425C62.5847 31.121 61.7817 31.4888 60.8919 31.589C60.1847 31.6655 59.4706 31.5599 58.7588 31.5234C58.0469 31.487 57.2849 31.5234 56.7055 31.8549C55.9845 32.2592 55.6925 33.0022 55.0628 33.4939C54.4331 33.9856 53.4247 34.2224 52.8726 34.7979C52.6744 35.0123 52.5461 35.2628 52.4995 35.5267C52.4529 35.7906 52.4894 36.0596 52.6057 36.3094C52.8338 36.7738 53.3266 37.149 53.4384 37.6389C53.5753 38.2198 53.1441 38.8754 53.516 39.3872C54.0179 39.3398 54.4719 39.6858 54.6179 40.0719C54.7639 40.458 54.6841 40.8732 54.6179 41.2721C54.5518 41.6709 54.481 42.0916 54.659 42.4686C54.6928 42.5508 54.7534 42.6243 54.8347 42.6816C54.9668 42.7439 55.117 42.7778 55.2704 42.78C55.7281 42.8346 56.1477 43.0149 56.4568 43.2899C56.576 43.4195 56.7147 43.5369 56.8697 43.6396C57.2507 43.8472 57.764 43.7415 58.2066 43.6396C59.0903 43.4247 59.9831 43.2365 60.8851 43.075C61.3573 42.9894 62.8882 42.9694 63.1277 42.5888C63.2464 42.4066 62.9498 41.9568 62.8996 41.7528C62.8067 41.3044 62.8339 40.8453 62.9794 40.4058C63.1249 39.9664 63.3854 39.5565 63.7437 39.2032L63.7414 39.1832Z" fill="#464A5F"/>
<path opacity="0.1" d="M53.6278 75.1565C53.4475 75.3094 53.1259 75.3386 52.7403 75.2712L54.6134 70.507C54.504 70.4574 54.3988 70.402 54.2985 70.3413C55.1267 70.2703 55.8522 70.2393 56.0735 70.3249C56.6644 70.5544 54.335 74.5628 53.6278 75.1565Z" fill="black"/>
<path d="M53.4772 75.0344C52.7632 75.6299 49.9433 74.2567 49.5691 73.6885C49.3661 73.388 48.9235 73.2442 48.5539 73.175C48.3607 73.1388 48.1636 73.1174 47.9653 73.1112L49.9524 70.5033L50.5912 70.547L51.0589 70.5798C51.0589 70.5798 55.3366 69.9697 55.9298 70.1992C56.523 70.4287 54.1822 74.4407 53.4772 75.0344Z" fill="#BE6F72"/>
<path opacity="0.1" d="M50.5821 70.5507L48.5447 73.1786C48.3515 73.1424 48.1544 73.1211 47.9561 73.1149L49.9433 70.507L50.5821 70.5507Z" fill="black"/>
<path d="M50.5342 70.416L47.4018 74.4552L46.6147 74.0382L46.1606 73.7996L48.9486 69.8223L49.9935 70.212L50.5342 70.416Z" fill="#6C63FF"/>
<path opacity="0.1" d="M49.9935 70.212L46.6147 74.0382L46.1606 73.7997L48.9486 69.8223L49.9935 70.212Z" fill="black"/>
<path d="M50.0824 69.937L46.3135 74.2058L39.7452 71.2391L34.4979 68.0867L34.3108 68.0248C28.2969 65.9742 33.7838 61.0771 33.7838 61.0771C33.8014 60.9995 33.842 60.9264 33.9024 60.864C34.418 60.2339 36.4326 58.7187 36.4326 58.7187L40.9658 55.7921L42.7909 55.3459L47.0185 61.3211L44.4222 62.7253C44.4222 62.7253 43.5552 63.2315 43.0533 63.2315C42.5514 63.2315 40.7855 64.938 40.7855 64.938L42.289 65.996C42.289 65.996 43.6123 66.1181 43.918 66.6444C44.0864 66.9503 44.3725 67.2054 44.7347 67.3728L50.0824 69.937Z" fill="#464A5F"/>
<path opacity="0.1" d="M37.7581 63.0275C37.7581 63.0275 41.6799 62.5049 41.883 62.7252C42.086 62.9456 37.7581 63.0275 37.7581 63.0275Z" fill="black"/>
<path opacity="0.1" d="M37.7581 64.6138C38.2903 64.7261 38.839 64.7806 39.3894 64.7758C40.3567 64.7758 37.7581 64.6138 37.7581 64.6138Z" fill="black"/>
<path opacity="0.1" d="M34.466 68.0248C28.4521 65.9742 33.9389 61.0771 33.9389 61.0771C33.9565 60.9995 33.9972 60.9264 34.0576 60.864C35.1686 60.7165 36.8569 61.0698 37.1102 64.4863C37.2607 66.5296 36.0196 67.544 34.466 68.0248Z" fill="black"/>
<path d="M34.3131 68.0248C28.2992 65.9742 33.7861 61.0771 33.7861 61.0771C33.8037 60.9995 33.8444 60.9264 33.9047 60.864C35.0158 60.7165 36.7041 61.0698 36.9573 64.4863C37.1079 66.5296 35.8668 67.544 34.3131 68.0248Z" fill="#5F5D7E"/>
<g opacity="0.1">
<path opacity="0.1" d="M53.4042 39.1704C53.4286 39.2456 53.4654 39.3179 53.5137 39.3853C53.6314 39.3747 53.7505 39.3847 53.8628 39.4144C53.738 39.3037 53.5803 39.2198 53.4042 39.1704Z" fill="black"/>
<path opacity="0.1" d="M54.8028 42.5341L54.6796 42.5214C54.7112 42.583 54.7613 42.6374 54.8256 42.6798C54.9577 42.7421 55.1079 42.776 55.2613 42.7781C55.4604 42.8022 55.6536 42.8507 55.834 42.922C55.5448 42.7155 55.1864 42.5807 54.8028 42.5341Z" fill="black"/>
<path opacity="0.1" d="M67.7203 33.7907C67.3416 33.543 66.8693 33.3755 66.5796 33.0623C66.1689 32.596 66.2785 31.935 65.8952 31.456C65.7343 31.2611 65.505 31.1084 65.2358 31.0171C65.3118 31.0758 65.3791 31.1411 65.4366 31.212C65.8244 31.6909 65.7149 32.352 66.121 32.8182C66.4039 33.1369 66.8762 33.3045 67.2618 33.5467C67.6026 33.7727 67.8672 34.0633 68.0314 34.3919C68.1956 34.7205 68.2541 35.0767 68.2017 35.4279C68.1614 35.7505 67.9899 36.0537 67.7135 36.2912C67.5104 36.4514 67.2572 36.5625 67.0655 36.7337C66.5226 37.2382 66.81 38.0085 66.6207 38.6605C66.5429 38.9129 66.391 39.1469 66.1776 39.3432C65.9642 39.5396 65.6953 39.6926 65.3933 39.7896C65.4783 39.8865 65.5546 39.9881 65.6214 40.0937C65.9744 40.0169 66.2953 39.8661 66.5508 39.657C66.8063 39.4479 66.9872 39.1881 67.0747 38.9045C67.264 38.258 66.9743 37.4822 67.5196 36.9777C67.7044 36.8065 67.9644 36.6955 68.1675 36.5352C68.444 36.2977 68.6154 35.9945 68.6557 35.672C68.7087 35.321 68.6508 34.965 68.4875 34.6365C68.3241 34.3079 68.0604 34.0172 67.7203 33.7907Z" fill="black"/>
<path opacity="0.1" d="M63.9126 38.8281C63.8193 38.7796 63.709 38.756 63.5978 38.7607C63.4681 38.788 63.3558 38.853 63.2829 38.9429C62.9246 39.2961 62.6641 39.706 62.5186 40.1455C62.3731 40.5849 62.3459 41.044 62.4388 41.4925C62.4821 41.6983 62.7787 42.1408 62.6669 42.3284C62.4274 42.709 60.8965 42.729 60.4243 42.8146C59.5223 42.9749 58.6295 43.1631 57.7458 43.3792C57.4005 43.4886 57.0246 43.5219 56.6576 43.4757C56.7191 43.5336 56.7896 43.585 56.8675 43.6287C57.2485 43.8363 57.7618 43.7307 58.2044 43.6287C59.0881 43.4138 59.9809 43.2256 60.8828 43.0641C61.3551 42.9785 62.8859 42.9585 63.1255 42.5779C63.2441 42.3958 62.9475 41.9459 62.8974 41.742C62.8045 41.2935 62.8317 40.8344 62.9772 40.395C63.1227 39.9555 63.3832 39.5456 63.7415 39.1924C63.8144 39.1025 63.9266 39.0375 64.0563 39.0102C64.1666 39.0047 64.2763 39.0277 64.3689 39.0758C64.2265 38.9824 64.0738 38.8995 63.9126 38.8281Z" fill="black"/>
</g>
<path opacity="0.1" d="M20.353 130.518C24.5639 130.518 27.9776 130.057 27.9776 129.489C27.9776 128.92 24.5639 128.46 20.353 128.46C16.142 128.46 12.7284 128.92 12.7284 129.489C12.7284 130.057 16.142 130.518 20.353 130.518Z" fill="#6C63FF"/>
<path d="M21.9271 116.495C21.9271 116.495 23.328 117.952 21.2815 120.163C19.235 122.374 17.5468 124.233 18.2289 125.608C18.2289 125.608 21.318 121.51 23.8299 121.452C26.3417 121.394 24.7014 118.959 21.9271 116.495Z" fill="#6C63FF"/>
<path opacity="0.1" d="M21.9272 116.495C22.0496 116.636 22.1464 116.791 22.2146 116.954C24.6649 119.254 25.9722 121.399 23.6154 121.452C21.4184 121.503 18.7856 124.635 18.1559 125.428C18.1765 125.488 18.2016 125.548 18.229 125.61C18.229 125.61 21.318 121.512 23.8299 121.454C26.3418 121.396 24.7014 118.959 21.9272 116.495Z" fill="black"/>
<path d="M24.5303 118.358C24.5303 118.871 24.4573 119.288 24.3683 119.288C24.2793 119.288 24.2063 118.871 24.2063 118.358C24.2063 117.844 24.2976 118.085 24.3865 118.085C24.4755 118.085 24.5303 117.844 24.5303 118.358Z" fill="#FFD037"/>
<path d="M25.4223 118.972C24.8565 119.217 24.3637 119.367 24.3204 119.305C24.277 119.243 24.7036 118.992 25.2694 118.746C25.8352 118.5 25.6116 118.678 25.655 118.746C25.6983 118.813 25.9881 118.726 25.4223 118.972Z" fill="#FFD037"/>
<path d="M14.533 116.495C14.533 116.495 13.1322 117.952 15.1786 120.163C17.2251 122.374 18.9111 124.233 18.2289 125.608C18.2289 125.608 15.1421 121.51 12.6302 121.452C10.1184 121.394 11.7679 118.959 14.533 116.495Z" fill="#6C63FF"/>
<path opacity="0.1" d="M14.533 116.495C14.4105 116.636 14.3137 116.791 14.2455 116.954C11.7952 119.254 10.488 121.403 12.8379 121.452C15.0326 121.503 17.6677 124.635 18.2974 125.428C18.2765 125.489 18.2513 125.55 18.2221 125.61C18.2221 125.61 15.1353 121.512 12.6234 121.454C10.1115 121.396 11.7679 118.959 14.533 116.495Z" fill="black"/>
<path d="M11.9253 118.358C11.9253 118.871 11.9983 119.288 12.0873 119.288C12.1763 119.288 12.2493 118.871 12.2493 118.358C12.2493 117.844 12.158 118.085 12.069 118.085C11.98 118.085 11.9253 117.844 11.9253 118.358Z" fill="#FFD037"/>
<path d="M11.0378 118.972C11.6036 119.217 12.0964 119.367 12.1375 119.305C12.1786 119.243 11.7565 118.992 11.1907 118.746C10.6249 118.5 10.8485 118.678 10.8051 118.746C10.7618 118.813 10.472 118.726 11.0378 118.972Z" fill="#FFD037"/>
<path d="M12.3816 125.409C12.3816 125.409 16.2966 125.313 17.4761 124.643C18.6556 123.972 23.4968 123.171 23.7911 124.247C24.0854 125.324 29.6727 129.594 25.2535 129.623C20.8343 129.653 14.987 129.077 13.8075 128.502C12.628 127.926 12.3816 125.409 12.3816 125.409Z" fill="#5F5D7E"/>
<path opacity="0.2" d="M25.3265 129.257C20.9073 129.285 15.06 128.711 13.8805 128.134C12.9839 127.699 12.6257 126.13 12.5116 125.413H12.3793C12.3793 125.413 12.6279 127.933 13.8052 128.509C14.9824 129.084 20.832 129.66 25.2512 129.631C26.5265 129.631 26.9668 129.267 26.944 128.72C26.7546 129.052 26.2755 129.25 25.3265 129.257Z" fill="black"/>
<path opacity="0.1" d="M161.488 134.879C165.923 134.879 169.518 134.394 169.518 133.796C169.518 133.197 165.923 132.712 161.488 132.712C157.052 132.712 153.457 133.197 153.457 133.796C153.457 134.394 157.052 134.879 161.488 134.879Z" fill="#6C63FF"/>
<path d="M156.097 128.762C156.097 128.762 160.675 128.649 162.056 127.864C163.436 127.079 169.103 126.143 169.445 127.402C169.788 128.66 176.328 133.661 171.156 133.694C165.984 133.726 159.142 133.051 157.764 132.381C156.386 131.71 156.097 128.762 156.097 128.762Z" fill="#5F5D7E"/>
<path opacity="0.2" d="M171.25 133.255C166.078 133.289 159.234 132.612 157.856 131.942C156.806 131.432 156.389 129.602 156.259 128.757H156.106C156.106 128.757 156.395 131.705 157.773 132.375C159.151 133.045 165.987 133.721 171.165 133.688C172.66 133.688 173.175 133.255 173.146 132.627C172.929 133.011 172.361 133.24 171.25 133.255Z" fill="black"/>
<path d="M191.01 139.039C195.84 139.039 199.757 138.51 199.757 137.859C199.757 137.207 195.84 136.679 191.01 136.679C186.179 136.679 182.262 137.207 182.262 137.859C182.262 138.51 186.179 139.039 191.01 139.039Z" fill="#6C63FF"/>
<path d="M194.626 135.928C195.024 135.668 195.315 135.318 195.461 134.923C195.568 134.524 195.356 134.047 194.877 133.9C194.343 133.737 193.77 134.032 193.337 134.333C192.903 134.633 192.406 134.972 191.838 134.908C192.129 134.697 192.347 134.43 192.471 134.131C192.594 133.833 192.619 133.514 192.543 133.206C192.518 133.078 192.45 132.958 192.346 132.86C192.05 132.607 191.511 132.714 191.156 132.914C190.015 133.55 189.709 134.776 189.702 135.881C189.588 135.482 189.684 135.067 189.682 134.659C189.679 134.251 189.538 133.798 189.107 133.577C188.838 133.462 188.536 133.406 188.231 133.413C187.722 133.399 187.156 133.439 186.807 133.736C186.376 134.1 186.488 134.725 186.864 135.131C187.241 135.537 187.811 135.79 188.336 136.07C188.757 136.271 189.116 136.545 189.387 136.872C189.42 136.917 189.446 136.965 189.465 137.016H192.659C193.373 136.726 194.035 136.36 194.626 135.928Z" fill="#6C63FF"/>
</g>
<defs>
<linearGradient id="paint0_linear" x1="69.4838" y1="136.059" x2="69.4838" y2="30.143" gradientUnits="userSpaceOnUse">
<stop stop-color="#808080" stop-opacity="0.25"/>
<stop offset="0.54" stop-color="#808080" stop-opacity="0.12"/>
<stop offset="1" stop-color="#808080" stop-opacity="0.1"/>
</linearGradient>
<clipPath id="clip0">
<rect x="0.595642" y="-6.96118" width="207" height="146" fill="white"/>
</clipPath>
</defs>
</svg>
