<svg width="208" height="146" viewBox="0 0 208 146" fill="none" xmlns="http://www.w3.org/2000/svg">
<g clip-path="url(#clip0)">
<path opacity="0.1" d="M179.474 146C186.044 146 191.371 144.584 191.371 142.838C191.371 141.091 186.044 139.675 179.474 139.675C172.904 139.675 167.577 141.091 167.577 142.838C167.577 144.584 172.904 146 179.474 146Z" fill="#6C63FF"/>
<path opacity="0.1" d="M199.094 129.338C194.568 133.098 188.127 134.654 181.898 135.636L180.85 135.796C174.343 136.768 167.765 137.285 161.164 137.6C157.632 137.771 154.1 137.892 150.569 138L147.801 138.082C144.207 138.189 140.606 138.294 136.999 138.397C133.467 138.497 129.935 138.591 126.403 138.68C121.88 138.79 117.357 138.882 112.833 138.955C109.302 139.011 105.77 139.049 102.238 139.07C97.7134 139.096 93.1902 139.088 88.6682 139.044C85.1339 139.008 81.602 138.946 78.0726 138.858C73.5469 138.742 69.0236 138.571 64.5029 138.346C61.4345 138.196 58.368 138.016 55.3033 137.805L53.9073 137.706C40.7521 136.757 27.3608 135.054 15.8488 129.671L15.5384 129.524C15.3841 129.451 15.2298 129.379 15.0755 129.302C12.9618 128.291 10.9372 127.102 9.02305 125.749C5.61946 123.319 2.80885 120.352 1.32361 116.832C-1.0037 111.311 0.226876 105.106 2.88506 99.7083C5.54324 94.3106 9.53424 89.4378 12.9862 84.3546C13.9974 82.8656 14.9566 81.3208 15.8488 79.7368C21.4254 69.8032 24.1914 58.308 18.3453 48.7355C17.5736 47.515 16.7404 46.3347 15.8488 45.1991C14.4231 43.3378 12.9731 41.4765 11.9935 39.4161C9.70897 34.6215 10.1997 29.2294 11.0325 24.1071C12.1478 17.2967 14.1926 9.96147 20.5834 5.7066C27.2139 1.28794 36.6254 1.5113 44.8546 3.10082C57.6492 5.55584 69.4586 10.6948 81.3796 15.3294C93.3005 19.9639 105.788 24.2021 118.895 24.6581C121.711 24.7545 124.53 24.6519 127.331 24.351C131.065 23.9667 134.749 23.19 138.32 22.0337C143.479 20.3325 148.172 17.7732 151.652 14.2163C159.116 6.61304 173.141 6.03791 183.253 10.6297C192.902 15.0111 199.143 24.284 198.682 33.5456C198.157 43.8552 190.447 52.3315 183.381 61.0255C182.524 62.0789 181.679 63.1361 180.855 64.2008C180.395 64.7952 179.944 65.3908 179.502 65.9876C178.727 67.0411 177.978 68.1002 177.271 69.1722C173.661 74.6686 171.109 81.2705 173.594 87.2042C174.989 90.5266 177.649 93.0617 180.855 95.2747C188.04 100.231 197.957 103.567 202.418 110.506C206.262 116.486 204.838 124.558 199.094 129.338Z" fill="#6C63FF"/>
<g opacity="0.1">
<path opacity="0.1" d="M103.353 102.249C103.361 102.424 103.374 102.595 103.392 102.763C104.838 102.186 106.258 101.565 107.651 100.901C108.394 100.803 109.085 100.464 109.62 99.9373C110.027 99.7325 110.432 99.5185 110.833 99.3044C110.742 99.1119 110.639 98.9254 110.525 98.7461C109.742 97.5083 108.553 96.734 107.242 96.7768C105.931 96.8196 104.798 97.6702 104.097 98.9527C103.559 99.9651 103.302 101.103 103.353 102.249Z" fill="#3F3D56"/>
<path opacity="0.1" d="M103.139 95.7401C103.167 96.8806 103.498 97.9932 104.097 98.9638C104.881 100.198 106.071 100.972 107.381 100.929C107.472 100.929 107.567 100.916 107.651 100.909C108.394 100.81 109.085 100.472 109.619 99.9447C109.982 99.5993 110.288 99.1985 110.525 98.7572C111.049 97.744 111.305 96.6129 111.268 95.4723C111.231 94.3317 110.902 93.2197 110.313 92.2428C109.528 91.005 108.339 90.2307 107.028 90.2735C105.718 90.3163 104.586 91.167 103.885 92.4494C103.348 93.46 103.09 94.5962 103.139 95.7401Z" fill="#3F3D56"/>
<path opacity="0.1" d="M107.167 94.4208C109.411 94.347 111.152 91.9028 111.056 88.9613C110.959 86.0199 109.062 83.6952 106.818 83.7689C104.574 83.8427 102.833 86.287 102.929 89.2284C103.026 92.1698 104.923 94.4946 107.167 94.4208Z" fill="#3F3D56"/>
<path opacity="0.1" d="M106.954 87.9134C109.198 87.8396 110.939 85.3953 110.842 82.4539C110.746 79.5124 108.849 77.1877 106.605 77.2615C104.361 77.3352 102.62 79.7795 102.716 82.721C102.812 85.6624 104.71 87.9871 106.954 87.9134Z" fill="#3F3D56"/>
<path opacity="0.1" d="M106.741 81.4037C108.985 81.33 110.726 78.8857 110.629 75.9442C110.533 73.0028 108.636 70.6781 106.391 70.7518C104.147 70.8256 102.406 73.2699 102.503 76.2113C102.599 79.1528 104.497 81.4775 106.741 81.4037Z" fill="#3F3D56"/>
<path opacity="0.1" d="M120.323 31.0405C120.855 30.3148 121.335 29.553 121.762 28.7604L111.028 27.357L122.576 27.0629C123.604 24.6142 124.123 21.9812 124.1 19.3248C124.077 16.6685 123.513 14.0448 122.442 11.6144L107.216 20.1669L121.157 9.18541C119.738 6.92445 117.87 4.97956 115.669 3.47134C113.468 1.96313 110.981 0.923742 108.362 0.417645C105.743 -0.0884525 103.049 -0.0504725 100.445 0.529229C97.8419 1.10893 95.3851 2.21799 93.2273 3.78764C91.0696 5.3573 89.2569 7.35406 87.9016 9.65413C86.5464 11.9542 85.6775 14.5085 85.3489 17.1587C85.0202 19.8089 85.2388 22.4984 85.9911 25.0605C86.7434 27.6226 88.0133 30.0026 89.7221 32.053C88.8937 33.1827 88.1889 34.3983 87.6198 35.6787L101.712 42.4314L86.774 37.9532C85.8374 41.058 85.6887 44.3476 86.3414 47.5243C86.9941 50.7011 88.4276 53.6648 90.5122 56.1472C88.3496 59.096 87.0593 62.5947 86.789 66.2432C86.5186 69.8917 87.279 73.5428 88.9833 76.779C90.6875 80.0151 93.2669 82.7058 96.4264 84.5434C99.5859 86.3809 103.198 87.2912 106.85 87.1701C110.502 87.049 114.046 85.9014 117.077 83.8586C120.108 81.8157 122.504 78.9601 123.991 75.6181C125.477 72.2761 125.995 68.5826 125.484 64.9601C124.973 61.3375 123.454 57.9319 121.102 55.1328C123.688 51.6107 125.016 47.3208 124.875 42.9517C124.734 38.5826 123.131 34.3877 120.323 31.0405Z" fill="#6C63FF"/>
<path opacity="0.1" d="M85.9524 44.2294C86.0882 48.6012 87.695 52.7988 90.5122 56.1416C88.349 59.09 87.0581 62.5885 86.787 66.237C86.516 69.8854 87.2757 73.5366 88.9794 76.7731C90.6831 80.0096 93.2619 82.7008 96.4211 84.5389C99.5803 86.3771 103.192 87.288 106.844 87.1675C110.496 87.0471 114.04 85.9002 117.072 83.8579C120.103 81.8156 122.5 78.9603 123.987 75.6186C125.474 72.2769 125.992 68.5835 125.482 64.9608C124.972 61.3381 123.454 57.9323 121.102 55.1327C123.602 51.7341 85.8817 42.0424 85.9524 44.2294Z" fill="black"/>
</g>
<g opacity="0.1">
<path opacity="0.1" d="M60.7256 136.535C60.7256 136.658 60.7126 136.781 60.6978 136.908C59.6692 136.498 58.6586 136.06 57.6659 135.592C57.137 135.523 56.6451 135.283 56.2644 134.909C55.9744 134.761 55.6862 134.611 55.4 134.458C55.4646 134.322 55.5378 134.19 55.6193 134.064C56.177 133.181 57.0209 132.631 57.9541 132.66C58.8872 132.69 59.694 133.293 60.1847 134.205C60.5689 134.92 60.7557 135.724 60.7256 136.535Z" fill="#3F3D56"/>
<path opacity="0.1" d="M60.8706 131.903C60.8523 132.714 60.6188 133.506 60.194 134.198C59.6364 135.076 58.7906 135.629 57.8593 135.599L57.6734 135.584C57.1445 135.515 56.6525 135.275 56.2718 134.901C56.0132 134.656 55.7955 134.371 55.6268 134.056C55.2539 133.336 55.0715 132.532 55.0969 131.721C55.1223 130.91 55.3546 130.119 55.7718 129.424C56.3294 128.541 57.1752 127.99 58.1065 128.02C59.0378 128.05 59.8464 128.653 60.3464 129.565C60.7262 130.284 60.9071 131.091 60.8706 131.903Z" fill="#3F3D56"/>
<path opacity="0.1" d="M61.0208 127.279C61.0869 125.186 59.8461 123.448 58.2494 123.398C56.6528 123.347 55.3049 125.003 55.2389 127.096C55.1728 129.189 56.4136 130.926 58.0103 130.977C59.6069 131.027 60.9548 129.372 61.0208 127.279Z" fill="#3F3D56"/>
<path opacity="0.1" d="M61.1653 122.647C61.2313 120.554 59.9905 118.816 58.3939 118.766C56.7973 118.715 55.4494 120.371 55.3833 122.464C55.3173 124.557 56.5581 126.294 58.1547 126.345C59.7513 126.395 61.0992 124.74 61.1653 122.647Z" fill="#3F3D56"/>
<path opacity="0.1" d="M61.3116 118.013C61.3777 115.92 60.1369 114.182 58.5403 114.132C56.9436 114.081 55.5957 115.737 55.5297 117.83C55.4636 119.923 56.7044 121.66 58.3011 121.711C59.8977 121.762 61.2456 120.106 61.3116 118.013Z" fill="#3F3D56"/>
<path opacity="0.1" d="M48.5928 85.8754C48.2138 85.3591 47.8703 84.8174 47.5648 84.2543L55.2011 83.238L46.983 83.0519C46.2486 81.3099 45.877 79.4361 45.891 77.5452C45.9051 75.6544 46.3045 73.7864 47.0648 72.0555L57.9076 78.1288L47.9775 70.3208C48.9824 68.7044 50.3089 67.3124 51.8743 66.2314C53.4397 65.1505 55.2105 64.4037 57.0766 64.0376C58.9427 63.6716 60.8641 63.694 62.7211 64.1036C64.5782 64.5131 66.3311 65.3011 67.8709 66.4183C69.4107 67.5355 70.7044 68.9581 71.6714 70.5976C72.6383 72.237 73.2579 74.0582 73.4916 75.9478C73.7253 77.8374 73.568 79.7549 73.0296 81.581C72.4912 83.4071 71.5832 85.1027 70.362 86.5623C70.9534 87.3655 71.4564 88.2305 71.8621 89.142L61.8391 93.9589L72.4663 90.7576C73.1351 92.9668 73.2437 95.308 72.7822 97.5698C72.3207 99.8316 71.3036 101.943 69.823 103.712C71.3651 105.808 72.2871 108.297 72.4834 110.893C72.6797 113.489 72.1425 116.088 70.9331 118.393C69.7237 120.698 67.891 122.616 65.6445 123.927C63.398 125.238 60.8284 125.89 58.2294 125.807C55.6305 125.725 53.107 124.912 50.9477 123.462C48.7883 122.011 47.0801 119.982 46.0185 117.605C44.9568 115.228 44.5845 112.6 44.9441 110.022C45.3036 107.443 46.3806 105.018 48.0519 103.023C46.209 100.519 45.2605 97.4662 45.3586 94.3566C45.4567 91.247 46.5957 88.2607 48.5928 85.8773V85.8754Z" fill="#6C63FF"/>
<path opacity="0.1" d="M73.0555 95.2301C72.9624 98.3411 71.8234 101.33 69.823 103.712C71.3651 105.808 72.2871 108.297 72.4834 110.893C72.6797 113.489 72.1425 116.088 70.9331 118.393C69.7237 120.698 67.891 122.616 65.6445 123.927C63.398 125.238 60.8284 125.89 58.2294 125.807C55.6305 125.725 53.107 124.912 50.9477 123.462C48.7883 122.011 47.0801 119.982 46.0185 117.605C44.9568 115.228 44.5845 112.6 44.9441 110.022C45.3036 107.443 46.3806 105.018 48.0519 103.023C46.2692 100.604 73.1076 93.6722 73.0555 95.2301Z" fill="black"/>
</g>
<g opacity="0.1">
<path opacity="0.1" d="M157.53 112.33C157.53 112.454 157.517 112.575 157.504 112.702C156.474 112.292 155.464 111.854 154.472 111.386C153.943 111.316 153.45 111.077 153.069 110.703C152.781 110.556 152.491 110.405 152.204 110.252C152.27 110.117 152.343 109.985 152.424 109.858C152.981 108.976 153.825 108.425 154.758 108.454C155.692 108.484 156.498 109.087 156.989 109.999C157.373 110.714 157.56 111.518 157.53 112.33Z" fill="#3F3D56"/>
<path opacity="0.1" d="M157.686 107.697C157.667 108.509 157.433 109.301 157.008 109.992C156.45 110.87 155.606 111.423 154.673 111.393L154.487 111.378C153.958 111.309 153.465 111.069 153.084 110.695C152.826 110.449 152.608 110.164 152.439 109.85C152.066 109.13 151.883 108.326 151.909 107.515C151.934 106.704 152.166 105.913 152.584 105.218C153.141 104.337 153.987 103.784 154.918 103.814C155.85 103.844 156.66 104.447 157.158 105.359C157.539 106.077 157.721 106.884 157.686 107.697Z" fill="#3F3D56"/>
<path opacity="0.1" d="M157.831 103.071C157.897 100.978 156.657 99.2408 155.06 99.1903C153.463 99.1398 152.116 100.795 152.049 102.888C151.983 104.981 153.224 106.719 154.821 106.769C156.417 106.82 157.765 105.164 157.831 103.071Z" fill="#3F3D56"/>
<path opacity="0.1" d="M157.978 98.4393C158.044 96.3464 156.803 94.6089 155.206 94.5583C153.61 94.5078 152.262 96.1635 152.196 98.2564C152.13 100.349 153.371 102.087 154.967 102.137C156.564 102.188 157.912 100.532 157.978 98.4393Z" fill="#3F3D56"/>
<path opacity="0.1" d="M158.124 93.8075C158.19 91.7146 156.949 89.977 155.353 89.9265C153.756 89.876 152.408 91.5317 152.342 93.6245C152.276 95.7174 153.517 97.455 155.114 97.5055C156.71 97.5561 158.058 95.9004 158.124 93.8075Z" fill="#3F3D56"/>
<path opacity="0.1" d="M145.397 61.6695C145.018 61.1538 144.675 60.6121 144.371 60.0483L152.007 59.0414L143.789 58.8422C143.055 57.1002 142.684 55.2265 142.697 53.3358C142.711 51.445 143.11 49.577 143.869 47.8458L154.712 53.9192L144.782 46.1148C145.785 44.4944 147.111 43.0984 148.677 42.0139C150.243 40.9293 152.015 40.1795 153.883 39.8112C155.751 39.4429 157.675 39.464 159.535 39.8732C161.394 40.2824 163.15 41.071 164.692 42.1896C166.233 43.3083 167.528 44.7331 168.496 46.3751C169.463 48.0171 170.083 49.8412 170.315 51.7334C170.547 53.6256 170.387 55.5455 169.846 57.3732C169.304 59.2009 168.392 60.8972 167.166 62.3563C167.757 63.1596 168.259 64.0246 168.665 64.936L158.642 69.753L169.269 66.5516C169.939 68.7604 170.048 71.1016 169.586 73.3633C169.125 75.6249 168.107 77.7356 166.625 79.5042C168.168 81.6001 169.09 84.0883 169.287 86.6844C169.483 89.2804 168.946 91.8794 167.737 94.1842C166.528 96.489 164.695 98.4066 162.449 99.7177C160.203 101.029 157.633 101.681 155.035 101.598C152.436 101.516 149.913 100.703 147.753 99.2527C145.594 97.8022 143.886 95.7726 142.825 93.396C141.763 91.0193 141.391 88.3915 141.751 85.8131C142.111 83.2347 143.188 80.8098 144.86 78.8155C143.017 76.3107 142.069 73.2583 142.167 70.1488C142.265 67.0392 143.404 64.0529 145.401 61.6695H145.397Z" fill="#6C63FF"/>
<path opacity="0.1" d="M169.862 71.0242C169.769 74.1351 168.629 77.1232 166.627 79.5042C168.169 81.6002 169.091 84.0883 169.288 86.6842C169.484 89.2801 168.947 91.879 167.738 94.1836C166.529 96.4882 164.696 98.4057 162.45 99.7167C160.204 101.028 157.634 101.679 155.036 101.597C152.437 101.515 149.914 100.702 147.755 99.2517C145.596 97.8014 143.888 95.7719 142.826 93.3955C141.765 91.019 141.392 88.3914 141.752 85.8131C142.112 83.2348 143.189 80.8098 144.86 78.8155C143.075 76.3977 169.91 69.4645 169.862 71.0242Z" fill="black"/>
</g>
<path d="M36.0622 141.801C41.915 141.801 46.6596 140.888 46.6596 139.761C46.6596 138.634 41.915 137.721 36.0622 137.721C30.2094 137.721 25.4648 138.634 25.4648 139.761C25.4648 140.888 30.2094 141.801 36.0622 141.801Z" fill="#6C63FF"/>
<path d="M35.8856 140.511C36.5673 140.511 37.1199 139.787 37.1199 138.894C37.1199 138 36.5673 137.276 35.8856 137.276C35.2039 137.276 34.6513 138 34.6513 138.894C34.6513 139.787 35.2039 140.511 35.8856 140.511Z" fill="#3F3D56"/>
<path d="M35.8856 138.534C36.5673 138.534 37.1199 137.81 37.1199 136.917C37.1199 136.024 36.5673 135.3 35.8856 135.3C35.2039 135.3 34.6513 136.024 34.6513 136.917C34.6513 137.81 35.2039 138.534 35.8856 138.534Z" fill="#3F3D56"/>
<path d="M35.8856 136.558C36.5673 136.558 37.1199 135.834 37.1199 134.94C37.1199 134.047 36.5673 133.323 35.8856 133.323C35.2039 133.323 34.6513 134.047 34.6513 134.94C34.6513 135.834 35.2039 136.558 35.8856 136.558Z" fill="#3F3D56"/>
<path d="M35.8856 134.581C36.5673 134.581 37.1199 133.857 37.1199 132.964C37.1199 132.07 36.5673 131.346 35.8856 131.346C35.2039 131.346 34.6513 132.07 34.6513 132.964C34.6513 133.857 35.2039 134.581 35.8856 134.581Z" fill="#3F3D56"/>
<path d="M35.8856 132.604C36.5673 132.604 37.1199 131.88 37.1199 130.987C37.1199 130.094 36.5673 129.37 35.8856 129.37C35.2039 129.37 34.6513 130.094 34.6513 130.987C34.6513 131.88 35.2039 132.604 35.8856 132.604Z" fill="#3F3D56"/>
<path d="M35.8856 130.628C36.5673 130.628 37.1199 129.904 37.1199 129.01C37.1199 128.117 36.5673 127.393 35.8856 127.393C35.2039 127.393 34.6513 128.117 34.6513 129.01C34.6513 129.904 35.2039 130.628 35.8856 130.628Z" fill="#3F3D56"/>
<path d="M35.8856 128.651C36.5673 128.651 37.1199 127.927 37.1199 127.034C37.1199 126.14 36.5673 125.416 35.8856 125.416C35.2039 125.416 34.6513 126.14 34.6513 127.034C34.6513 127.927 35.2039 128.651 35.8856 128.651Z" fill="#3F3D56"/>
<path d="M40.5049 113.506C40.6731 113.291 40.8265 113.064 40.964 112.828L37.7221 112.294L41.228 112.322C41.5642 111.589 41.7476 110.795 41.7671 109.989C41.7866 109.182 41.6418 108.38 41.3413 107.632L36.6366 110.076L40.9752 106.876C40.5684 106.173 40.0214 105.562 39.3685 105.08C38.7155 104.598 37.9704 104.256 37.1796 104.074C36.3888 103.893 35.5692 103.877 34.7718 104.026C33.9744 104.176 33.2163 104.489 32.5448 104.944C31.8732 105.4 31.3025 105.989 30.8681 106.675C30.4338 107.361 30.1452 108.13 30.0202 108.932C29.8952 109.735 29.9365 110.555 30.1416 111.34C30.3467 112.126 30.7112 112.862 31.2124 113.5C30.9502 113.835 30.7246 114.197 30.5395 114.58L34.7479 116.769L30.2606 115.261C29.9454 116.194 29.8673 117.19 30.0335 118.161C30.1997 119.131 30.6049 120.045 31.2124 120.819C30.5269 121.692 30.1005 122.741 29.9821 123.845C29.8637 124.949 30.058 126.065 30.5427 127.064C31.0275 128.062 31.7831 128.905 32.7233 129.494C33.6635 130.083 34.7504 130.396 35.8595 130.396C36.9687 130.396 38.0556 130.083 38.9958 129.494C39.936 128.905 40.6916 128.062 41.1764 127.064C41.6611 126.065 41.8554 124.949 41.737 123.845C41.6185 122.741 41.1922 121.692 40.5067 120.819C41.3256 119.775 41.7708 118.487 41.7708 117.16C41.7708 115.833 41.3256 114.544 40.5067 113.5L40.5049 113.506Z" fill="#6C63FF"/>
<path opacity="0.1" d="M29.9483 117.165C29.9462 118.493 30.3915 119.782 31.2124 120.825C30.5269 121.698 30.1005 122.746 29.9821 123.851C29.8637 124.955 30.058 126.07 30.5427 127.069C31.0275 128.068 31.7831 128.91 32.7233 129.5C33.6635 130.089 34.7504 130.401 35.8595 130.401C36.9687 130.401 38.0556 130.089 38.9958 129.5C39.936 128.91 40.6916 128.068 41.1764 127.069C41.6611 126.07 41.8554 124.955 41.737 123.851C41.6185 122.746 41.1922 121.698 40.5067 120.825C41.2967 119.818 29.9483 116.501 29.9483 117.165Z" fill="black"/>
<path d="M64.5029 96.2669V138.332C61.4345 138.181 58.368 138.001 55.3033 137.79L53.9073 137.691V96.2669C53.9073 96.0513 53.9497 95.8378 54.0321 95.6387C54.1145 95.4395 54.2353 95.2585 54.3875 95.1061C54.5398 94.9536 54.7205 94.8327 54.9194 94.7502C55.1183 94.6677 55.3315 94.6252 55.5468 94.6252H62.8633C63.0787 94.6252 63.2918 94.6677 63.4908 94.7502C63.6897 94.8327 63.8704 94.9536 64.0227 95.1061C64.1749 95.2585 64.2957 95.4395 64.3781 95.6387C64.4605 95.8378 64.5029 96.0513 64.5029 96.2669Z" fill="#3F3D56"/>
<path d="M78.0726 138.855V68.1617C78.0726 67.7263 78.2454 67.3087 78.5528 67.0008C78.8603 66.693 79.2773 66.52 79.7121 66.52H87.0287C87.244 66.52 87.4571 66.5625 87.6561 66.645C87.855 66.7275 88.0357 66.8484 88.188 67.0008C88.3402 67.1533 88.461 67.3343 88.5434 67.5334C88.6258 67.7326 88.6682 67.9461 88.6682 68.1617V139.039L78.0726 138.855Z" fill="#3F3D56"/>
<path d="M102.238 139.076V82.8656C102.238 82.4303 102.411 82.0127 102.718 81.7048C103.026 81.397 103.443 81.224 103.877 81.224H111.194C111.629 81.224 112.046 81.397 112.353 81.7048C112.661 82.0127 112.833 82.4303 112.833 82.8656V138.955L102.238 139.076Z" fill="#3F3D56"/>
<path d="M136.999 41.1733V138.397C133.467 138.497 129.935 138.592 126.403 138.68V41.1733C126.403 40.7379 126.576 40.3203 126.883 40.0124C127.191 39.7046 127.608 39.5316 128.043 39.5316H135.359C135.794 39.5316 136.211 39.7046 136.519 40.0124C136.826 40.3203 136.999 40.7379 136.999 41.1733Z" fill="#3F3D56"/>
<path d="M161.164 60.7166V137.587C157.632 137.758 154.1 137.879 150.569 137.987V60.7166C150.569 60.2812 150.741 59.8636 151.049 59.5558C151.356 59.2479 151.773 59.075 152.208 59.075H159.525C159.959 59.075 160.376 59.2479 160.684 59.5558C160.991 59.8636 161.164 60.2812 161.164 60.7166Z" fill="#3F3D56"/>
<path d="M59.298 71.7352L83.4633 44.7468L107.629 58.3341L131.794 16.6416L155.959 36.5572" stroke="#3F3D56" stroke-width="7" stroke-miterlimit="10" stroke-linecap="round"/>
<path d="M59.2051 76.9468C62.0796 76.9468 64.4099 74.6135 64.4099 71.7352C64.4099 68.857 62.0796 66.5237 59.2051 66.5237C56.3305 66.5237 54.0003 68.857 54.0003 71.7352C54.0003 74.6135 56.3305 76.9468 59.2051 76.9468Z" fill="#6C63FF"/>
<path d="M83.3704 49.9584C86.2449 49.9584 88.5752 47.6251 88.5752 44.7468C88.5752 41.8686 86.2449 39.5353 83.3704 39.5353C80.4958 39.5353 78.1656 41.8686 78.1656 44.7468C78.1656 47.6251 80.4958 49.9584 83.3704 49.9584Z" fill="#6C63FF"/>
<path d="M107.536 63.5457C110.41 63.5457 112.741 61.2124 112.741 58.3341C112.741 55.4559 110.41 53.1226 107.536 53.1226C104.661 53.1226 102.331 55.4559 102.331 58.3341C102.331 61.2124 104.661 63.5457 107.536 63.5457Z" fill="#6C63FF"/>
<path d="M131.701 21.8532C134.576 21.8532 136.906 19.5199 136.906 16.6416C136.906 13.7633 134.576 11.4301 131.701 11.4301C128.826 11.4301 126.496 13.7633 126.496 16.6416C126.496 19.5199 128.826 21.8532 131.701 21.8532Z" fill="#6C63FF"/>
<path d="M178.173 66.1515C181.047 66.1515 183.378 63.8182 183.378 60.9399C183.378 58.0617 181.047 55.7284 178.173 55.7284C175.298 55.7284 172.968 58.0617 172.968 60.9399C172.968 63.8182 175.298 66.1515 178.173 66.1515Z" fill="#6C63FF"/>
<path opacity="0.1" d="M43.5311 135.086C45.4488 135.086 47.0035 134.822 47.0035 134.497C47.0035 134.173 45.4488 133.909 43.5311 133.909C41.6134 133.909 40.0587 134.173 40.0587 134.497C40.0587 134.822 41.6134 135.086 43.5311 135.086Z" fill="#6C63FF"/>
<path d="M41.2001 131.767C41.2001 131.767 43.1798 131.705 43.7765 131.279C44.3732 130.853 46.8232 130.349 46.9719 131.028C47.1206 131.707 49.9461 134.423 47.7154 134.442C45.4848 134.46 42.5199 134.092 41.925 133.729C41.3302 133.366 41.2001 131.767 41.2001 131.767Z" fill="#A8A8A8"/>
<path opacity="0.2" d="M47.7507 134.203C45.5201 134.222 42.5571 133.855 41.9604 133.492C41.5068 133.215 41.3265 132.223 41.2651 131.765H41.2001C41.2001 131.765 41.3246 133.364 41.9213 133.727C42.518 134.09 45.4755 134.458 47.7117 134.44C48.3567 134.44 48.5798 134.205 48.5668 133.865C48.4776 134.071 48.2322 134.2 47.7507 134.203Z" fill="black"/>
<path opacity="0.1" d="M197.84 140.565C201.362 140.565 204.217 140.082 204.217 139.486C204.217 138.889 201.362 138.406 197.84 138.406C194.317 138.406 191.462 138.889 191.462 139.486C191.462 140.082 194.317 140.565 197.84 140.565Z" fill="#6C63FF"/>
<path d="M193.562 134.469C193.562 134.469 197.2 134.358 198.297 133.576C199.394 132.794 203.892 131.862 204.163 133.114C204.435 134.367 209.632 139.35 205.524 139.383C201.416 139.417 195.981 138.743 194.886 138.08C193.791 137.418 193.562 134.469 193.562 134.469Z" fill="#A8A8A8"/>
<path opacity="0.2" d="M205.593 138.948C201.485 138.981 196.049 138.307 194.955 137.645C194.122 137.137 193.789 135.313 193.678 134.481H193.557C193.557 134.481 193.787 137.42 194.88 138.086C195.973 138.752 201.412 139.428 205.519 139.389C206.705 139.389 207.114 138.957 207.091 138.332C206.926 138.704 206.474 138.94 205.593 138.948Z" fill="black"/>
<path d="M158.023 64.1356C158.057 64.4616 158.186 64.7703 158.394 65.0235C158.664 65.3287 159.067 65.4683 159.43 65.6507C160.368 66.1315 161.084 66.9563 161.43 67.9531C162.049 69.7623 162.129 71.6757 162.917 73.4215C163.705 75.1674 164.631 76.8444 165.311 78.6331C165.698 79.6475 166.006 80.7028 166.573 81.626C166.848 82.08 167.198 82.4836 167.609 82.8191C167.566 83.4743 167.549 84.122 167.553 84.7771C167.679 84.7747 167.803 84.8041 167.914 84.8627C168.025 84.9213 168.12 85.0071 168.189 85.1122C168.326 85.3244 168.421 85.5615 168.468 85.8102C168.722 86.8655 168.408 87.9897 168.637 89.0506C169.265 92.0017 169.072 95.0688 168.079 97.9177C167.824 98.6399 167.505 101.03 167.776 101.746C168.787 101.644 169.683 102.266 170.629 102.677C170.706 103.239 170.66 103.81 170.496 104.352C170.155 105.333 170.157 106.4 170.163 107.436L170.209 115.116C170.209 116.089 170.222 117.076 170.466 118.019C170.743 119.082 171.325 120.166 171.306 121.264C171.256 123.627 172.371 125.88 172.282 128.225C172.265 128.675 172.204 129.122 172.161 129.569C172.051 130.759 172.081 131.957 172.25 133.14C172.589 135.497 173.483 137.814 173.26 140.183C173.245 140.344 173.191 140.556 173.04 140.617C173.226 140.827 173.423 141.036 173.624 141.235C173.583 141.303 173.528 141.361 173.462 141.404C173.243 141.519 173 141.583 172.752 141.591C172.462 141.598 172.18 141.69 171.94 141.855C171.766 142.022 171.648 142.239 171.602 142.477C171.536 142.711 171.521 142.957 171.56 143.197C171.598 143.438 171.689 143.667 171.825 143.869C171.991 144.078 172.208 144.241 172.455 144.342C173.314 144.714 174.299 144.444 175.195 144.172L178.704 143.108C178.918 143.063 179.116 142.96 179.275 142.81C179.348 142.724 179.396 142.619 179.414 142.508C180.19 142.694 181.041 142.465 181.831 142.229L185.341 141.163C185.555 141.119 185.753 141.016 185.911 140.865C185.974 140.788 186.02 140.698 186.045 140.601C186.069 140.505 186.073 140.404 186.054 140.306C186.08 140.295 186.106 140.288 186.132 140.275C186.4 140.154 186.69 139.917 186.625 139.633C186.579 139.446 186.393 139.338 186.313 139.167C186.275 139.056 186.267 138.937 186.29 138.821C186.313 138.706 186.366 138.599 186.443 138.51C186.58 138.324 186.766 138.17 186.893 137.974C187.298 137.352 187.023 136.535 186.87 135.808C186.541 134.253 186.846 132.63 186.638 131.056C186.567 130.525 186.439 130.004 186.337 129.477C186.12 128.232 185.977 126.976 185.907 125.714C185.774 123.912 185.274 122.137 185.56 120.35C185.699 119.301 185.758 118.243 185.736 117.186C185.757 116.512 185.728 115.837 185.649 115.168C185.577 114.669 185.448 114.18 185.393 113.679C185.347 113.116 185.337 112.551 185.363 111.987C185.388 110.73 185.273 109.474 185.017 108.242C184.645 106.55 183.946 104.931 183.649 103.235C183.749 103.258 183.85 103.28 183.946 103.306C183.958 102.003 182.818 99.1704 182.396 97.9345C182.334 97.7831 182.297 97.6229 182.285 97.4598C182.31 97.2448 182.349 97.0315 182.402 96.8214C182.456 96.371 182.216 95.9429 182.151 95.4925C182.125 95.1756 182.149 94.8568 182.22 94.547C182.519 92.8811 182.891 91.2283 183.262 89.5774C183.424 88.9794 183.48 88.3576 183.428 87.7403C183.385 87.4131 183.412 87.0805 183.508 86.7649C183.604 86.4492 183.767 86.1579 183.985 85.9107C184.149 85.7598 184.288 85.5846 184.398 85.3914C184.46 85.2255 184.488 85.0489 184.48 84.8721C184.473 84.1065 184.36 83.3455 184.145 82.6106C184.472 82.0169 184.593 81.2873 184.688 80.5986C184.896 79.0779 185.104 77.5498 185.097 76.0143C185.114 75.1951 185.001 74.3785 184.762 73.5946C184.588 73.1105 184.376 72.6412 184.127 72.1912C183.149 70.3058 182.214 68.3216 180.98 66.5944C180.608 66.0695 180.842 65.3455 180.868 64.6978C180.896 63.916 180.587 63.1659 180.284 62.4475C180.13 62.0053 179.893 61.5966 179.585 61.2432C179.482 61.1287 179.356 61.0367 179.215 60.9727C179.074 60.9087 178.922 60.8741 178.768 60.871C178.593 60.8924 178.424 60.9512 178.274 61.0433C178.123 61.1355 177.994 61.2589 177.896 61.4052C177.671 61.7118 177.509 62.0599 177.419 62.4296C177.33 62.7992 177.314 63.1829 177.373 63.5586C177.497 64.3107 177.824 65.0144 178.32 65.593C178.559 65.8842 178.833 66.1448 179.136 66.3692C179.443 67.347 179.753 68.3241 180.065 69.3007C180.556 70.8548 181.047 72.4164 181.738 73.8868C181.941 74.3131 182.164 74.7468 182.188 75.2177C182.214 75.7258 182.002 76.2097 181.833 76.6881C181.477 77.6851 181.275 78.7308 181.234 79.7889C181.18 79.8131 181.128 79.8417 181.078 79.8746C180.493 80.258 180.309 81.0937 179.699 81.4362C179.344 81.6353 178.913 81.6223 178.515 81.7135C178.479 81.7135 178.444 81.7321 178.407 81.7433C178.392 81.6688 178.377 81.5962 178.368 81.5199C178.362 81.4723 178.362 81.4242 178.368 81.3766C179.316 80.8548 180.112 80.0954 180.679 79.1729C180.798 79.002 180.89 78.8136 180.952 78.6145C181.002 78.3758 181.011 78.1304 180.98 77.8886C180.949 77.0815 180.833 76.2799 180.636 75.4968C180.437 74.71 180.004 74.0027 179.392 73.4699C179.087 73.2242 178.736 73.04 178.433 72.7924C177.842 72.3141 177.437 71.6068 176.76 71.2513C176.329 71.0413 175.838 70.9919 175.374 71.112C174.911 71.2321 174.505 71.5138 174.23 71.9065C174.14 72.088 174.014 72.249 173.858 72.3792C173.74 72.4353 173.625 72.4974 173.513 72.5653C173.308 72.7291 173.297 73.0437 173.364 73.2987C173.491 73.8226 173.562 74.3586 173.576 74.8975C172.976 75.6025 172.645 76.4978 172.643 77.424C172.641 78.3502 172.968 79.247 173.565 79.9546C173.565 80.3008 173.565 80.647 173.552 80.9932C173.552 81.0583 173.552 81.1253 173.539 81.1905C173.324 81.1157 173.132 80.9876 172.981 80.8182C172.773 80.5576 172.736 80.1742 172.481 79.9602C172.298 79.8393 172.089 79.7628 171.871 79.7368C171.33 79.6137 170.822 79.3729 170.384 79.0314C170.04 78.7652 169.683 78.4246 169.282 78.3465C168.589 77.0452 167.78 75.8092 166.865 74.6537C166.633 74.3801 166.422 74.0896 166.233 73.7845C165.834 73.0865 165.715 72.2657 165.462 71.5007C164.755 69.3565 162.993 67.6367 162.564 65.4181C162.408 64.614 161.898 63.9142 161.549 63.1734C161.313 62.6727 161.053 62.1441 160.58 61.8574C159.973 61.4852 159.132 61.6564 158.627 62.1571C158.382 62.4189 158.2 62.7333 158.096 63.0763C157.991 63.4192 157.966 63.7816 158.023 64.1356ZM180.093 139.459C179.873 139.574 179.631 139.638 179.383 139.646C179.258 139.659 179.134 139.678 179.011 139.705C178.965 139.314 178.939 138.918 178.909 138.533C178.81 137.269 178.613 136.014 178.418 134.762C178.214 133.459 178.117 132.033 177.675 130.782C176.963 128.746 176.241 126.648 176.332 124.491C176.353 124.002 176.414 123.516 176.44 123.028C176.5 121.82 176.331 120.586 176.626 119.412C176.758 118.877 176.983 118.368 177.069 117.824C177.123 117.333 177.129 116.838 177.087 116.346C177.006 114.638 177.148 112.927 177.509 111.256C177.855 111.708 177.968 112.292 178.067 112.853L178.764 116.638C179.178 118.885 179.545 121.267 180.643 123.266C180.489 123.987 180.336 124.755 180.591 125.444C180.701 125.742 180.881 126.002 180.993 126.304C181.179 126.805 181.153 127.356 181.208 127.886C181.329 129.003 181.79 130.101 181.452 131.179C181.104 132.29 180.878 133.436 180.777 134.596C180.759 134.919 180.721 135.24 180.666 135.558C180.606 135.845 180.509 136.117 180.455 136.411C180.381 136.823 180.4 137.247 180.509 137.652C180.593 137.876 180.644 138.111 180.662 138.35C180.662 138.588 180.37 138.76 180.136 138.797C180.205 138.886 180.279 138.972 180.355 139.056C180.31 139.214 180.219 139.354 180.093 139.459Z" fill="url(#paint0_linear)"/>
<path d="M172.752 141.607C172.462 141.615 172.18 141.707 171.94 141.872C171.765 142.037 171.647 142.253 171.602 142.49C171.536 142.722 171.521 142.966 171.56 143.205C171.599 143.444 171.689 143.671 171.825 143.871C171.991 144.079 172.208 144.241 172.455 144.342C173.314 144.714 174.299 144.442 175.195 144.172L178.704 143.115C178.918 143.071 179.116 142.969 179.275 142.819C179.372 142.689 179.425 142.531 179.428 142.369C179.43 142.207 179.382 142.048 179.29 141.914C179.101 141.652 178.844 141.446 178.546 141.321C177.455 140.788 176.225 140.667 175.026 140.645C174.58 140.645 174.139 140.537 173.836 140.881C173.676 141.068 173.706 141.267 173.464 141.425C173.243 141.538 173 141.6 172.752 141.607Z" fill="#3F3D56"/>
<path d="M179.383 139.675C179.092 139.684 178.81 139.776 178.571 139.94C178.396 140.105 178.278 140.321 178.232 140.558C178.166 140.791 178.152 141.035 178.191 141.274C178.229 141.513 178.32 141.74 178.455 141.941C178.622 142.148 178.839 142.31 179.085 142.41C179.946 142.782 180.929 142.512 181.825 142.242L185.335 141.183C185.549 141.139 185.746 141.037 185.906 140.887C186.002 140.757 186.055 140.6 186.058 140.438C186.061 140.276 186.013 140.118 185.921 139.984C185.732 139.722 185.475 139.517 185.177 139.391C184.084 138.858 182.853 138.736 181.654 138.713C181.208 138.713 180.77 138.607 180.465 138.951C180.305 139.138 180.335 139.335 180.093 139.493C179.873 139.607 179.63 139.67 179.383 139.675Z" fill="#3F3D56"/>
<path d="M176.332 101.538C178.401 101.33 180.481 101.271 182.558 101.363C182.695 101.362 182.831 101.383 182.961 101.426C183.418 101.612 183.489 102.212 183.532 102.701C183.718 104.689 184.584 106.541 185.019 108.488C185.274 109.712 185.39 110.961 185.365 112.21C185.34 112.769 185.35 113.328 185.394 113.886C185.45 114.383 185.58 114.87 185.651 115.365C185.729 116.03 185.759 116.7 185.738 117.37C185.76 118.42 185.701 119.469 185.562 120.51C185.275 122.284 185.775 124.046 185.909 125.841C185.976 127.096 186.117 128.345 186.331 129.584C186.434 130.107 186.562 130.624 186.632 131.151C186.841 132.716 186.536 134.328 186.865 135.873C187.017 136.595 187.292 137.407 186.887 138.024C186.761 138.211 186.575 138.369 186.437 138.557C186.36 138.645 186.307 138.751 186.285 138.866C186.262 138.981 186.269 139.099 186.307 139.21C186.387 139.379 186.573 139.491 186.619 139.672C186.692 139.956 186.395 140.189 186.127 140.31C184.11 141.222 181.509 140.58 180.149 138.832C180.383 138.795 180.669 138.626 180.675 138.387C180.657 138.151 180.606 137.917 180.522 137.695C180.413 137.293 180.394 136.872 180.468 136.463C180.522 136.176 180.619 135.904 180.678 135.616C180.734 135.3 180.772 134.98 180.79 134.659C180.891 133.506 181.117 132.368 181.465 131.264C181.803 130.194 181.342 129.111 181.221 127.994C181.166 127.465 181.19 126.92 181.006 126.421C180.894 126.127 180.714 125.863 180.604 125.569C180.349 124.882 180.502 124.119 180.656 123.404C179.558 121.418 179.191 119.051 178.777 116.819L178.08 113.059C177.976 112.501 177.862 111.922 177.522 111.472C177.161 113.131 177.019 114.832 177.1 116.529C177.142 117.018 177.136 117.509 177.082 117.997C176.996 118.537 176.771 119.045 176.639 119.574C176.351 120.741 176.52 121.965 176.453 123.166C176.427 123.652 176.366 124.134 176.345 124.62C176.254 126.764 176.976 128.848 177.688 130.872C178.124 132.113 178.221 133.524 178.431 134.823C178.617 136.068 178.823 137.313 178.922 138.57C179.013 139.724 179.054 140.973 179.771 141.879C179.115 142.305 178.439 142.739 177.671 142.886C176.776 143.026 175.861 142.848 175.083 142.384C174.31 141.921 173.619 141.333 173.039 140.643C173.189 140.591 173.243 140.372 173.258 140.213C173.481 137.857 172.587 135.56 172.249 133.215C172.079 132.04 172.049 130.849 172.159 129.667C172.202 129.223 172.263 128.778 172.28 128.331C172.369 126.003 171.248 123.76 171.289 121.429C171.308 120.337 170.732 119.261 170.449 118.206C170.206 117.275 170.198 116.289 170.193 115.321L170.146 107.689C170.146 106.658 170.146 105.601 170.479 104.628C170.888 103.455 170.419 102.109 170.349 100.87C172.28 101.483 174.313 101.71 176.332 101.538Z" fill="#696791"/>
<path d="M169.706 79.6121C168.924 78.0128 167.97 76.5042 166.86 75.1135C166.628 74.8418 166.416 74.5531 166.228 74.2498C165.828 73.5556 165.709 72.7403 165.456 71.9809C164.75 69.8516 162.988 68.1411 162.558 65.9392C162.402 65.1389 161.893 64.4502 161.543 63.7057C161.307 63.2088 161.047 62.6839 160.575 62.4028C159.967 62.0306 159.127 62.2018 158.621 62.7006C158.378 62.9602 158.197 63.2723 158.094 63.6127C157.99 63.9532 157.966 64.3129 158.023 64.6643C158.057 64.9885 158.187 65.2953 158.394 65.5465C158.664 65.8499 159.067 65.9876 159.43 66.17C160.366 66.6454 161.083 67.4651 161.43 68.4575C162.049 70.2537 162.129 72.1559 162.917 73.8906C163.705 75.6253 164.631 77.2893 165.311 79.0631C165.698 80.07 166.006 81.1105 166.573 82.0411C167.14 82.9717 168.025 83.7516 169.094 83.8912C169.087 83.2165 169.189 82.5452 169.397 81.9034C169.629 81.17 170.042 80.3064 169.706 79.6121Z" fill="#A0616A"/>
<path d="M181.214 81.0044C181.166 79.6883 181.371 78.3753 181.818 77.1367C181.989 76.6621 182.19 76.18 182.173 75.6756C182.149 75.2066 181.926 74.7766 181.723 74.3522C181.024 72.8911 180.534 71.3426 180.05 69.7977L179.121 66.8848C178.818 66.6623 178.544 66.4028 178.305 66.1124C177.809 65.5388 177.482 64.8393 177.359 64.0911C177.299 63.718 177.315 63.3369 177.405 62.97C177.494 62.6031 177.656 62.2578 177.881 61.9543C177.98 61.8085 178.109 61.6856 178.259 61.5938C178.41 61.502 178.578 61.4434 178.753 61.422C178.907 61.4254 179.059 61.4602 179.2 61.5241C179.34 61.5881 179.467 61.68 179.571 61.7943C179.877 62.1445 180.114 62.5501 180.27 62.9892C180.573 63.7039 180.881 64.4484 180.853 65.2227C180.827 65.8667 180.587 66.5852 180.965 67.1082C182.199 68.8243 183.134 70.7954 184.112 72.6697C184.361 73.1163 184.574 73.5825 184.748 74.0637C184.986 74.8436 185.099 75.6567 185.082 76.4722C185.082 77.9966 184.881 79.5154 184.673 81.0268C184.541 81.9741 184.368 83.0053 183.653 83.6325C182.909 82.6796 182.162 81.7489 181.214 81.0044Z" fill="#A0616A"/>
<path d="M176.485 81.7303C178.615 81.7303 180.342 80.0011 180.342 77.8681C180.342 75.7351 178.615 74.006 176.485 74.006C174.355 74.006 172.628 75.7351 172.628 77.8681C172.628 80.0011 174.355 81.7303 176.485 81.7303Z" fill="#A0616A"/>
<path d="M178.353 81.935C178.446 82.633 178.82 83.2584 179.184 83.8615C179.403 84.2337 179.684 84.6302 180.113 84.6711C178.996 85.2584 177.822 85.731 176.609 86.082C176.197 86.2206 175.765 86.2904 175.331 86.2886C174.962 86.261 174.602 86.1684 174.265 86.0149C173.53 85.6944 172.877 85.2109 172.356 84.6008C171.835 83.9908 171.459 83.2702 171.256 82.4934C171.736 82.5062 172.216 82.4694 172.689 82.3836C172.959 82.3628 173.211 82.2389 173.392 82.0374C173.499 81.8487 173.55 81.6327 173.537 81.4157C173.555 80.7717 173.557 80.1259 173.537 79.4819C174.485 79.4214 175.435 79.5388 176.34 79.8281C176.712 79.9491 177.083 80.0942 177.455 80.1892C177.689 80.2487 178.334 80.1892 178.507 80.325C178.792 80.5168 178.288 81.4604 178.353 81.935Z" fill="#A0616A"/>
<path d="M176.658 84.2821C176.7 83.7733 176.901 83.2907 177.233 82.9028C177.565 82.5149 178.01 82.2414 178.505 82.1212C178.903 82.0319 179.335 82.043 179.69 81.8457C180.299 81.5051 180.483 80.675 181.069 80.2934C181.654 79.9119 182.485 80.1241 182.995 80.6061C183.504 81.0882 183.762 81.775 183.971 82.4469C184.281 83.3554 184.45 84.3066 184.471 85.2668C184.478 85.4424 184.451 85.6177 184.389 85.7823C184.279 85.9744 184.139 86.1483 183.976 86.2979C183.758 86.543 183.595 86.8323 183.499 87.1462C183.403 87.46 183.375 87.7909 183.418 88.1164C183.471 88.7294 183.415 89.3469 183.253 89.9404C182.881 91.582 182.509 93.2218 182.21 94.8783C182.14 95.1832 182.117 95.4971 182.141 95.809C182.199 96.2575 182.446 96.6819 182.392 97.1305C182.34 97.3393 182.301 97.5513 182.275 97.7652C182.287 97.927 182.325 98.086 182.387 98.2361C182.809 99.4627 183.948 102.273 183.937 103.572C181.957 103.064 179.039 102.951 176.994 102.941C176.432 102.935 175.87 102.96 175.31 103.016C173.966 103.161 172.591 103.554 171.287 103.191C170.077 102.854 169.007 101.888 167.756 102.009C167.484 101.298 167.804 98.9247 168.059 98.2063C169.051 95.3773 169.244 92.3287 168.616 89.3969C168.388 88.3434 168.702 87.2248 168.447 86.1788C168.401 85.9313 168.306 85.6954 168.168 85.4845C168.099 85.3798 168.004 85.2943 167.893 85.2361C167.782 85.1778 167.658 85.1487 167.533 85.1514C167.509 83.4688 167.665 81.7885 167.997 80.139C168.12 79.5527 168.369 78.8603 168.969 78.7598C169.501 78.6685 169.947 79.119 170.375 79.4484C170.813 79.7882 171.321 80.0271 171.862 80.1483C172.08 80.1742 172.288 80.2507 172.472 80.3716C172.726 80.5838 172.763 80.9654 172.972 81.2241C173.343 81.6875 174.174 81.6484 174.438 82.1826C174.496 82.3417 174.543 82.5047 174.578 82.6703C174.703 82.9877 174.915 83.2628 175.191 83.4632C175.605 83.8529 176.109 84.1343 176.658 84.2821Z" fill="#F86D70"/>
<path d="M173.351 73.7622C173.284 73.5072 173.295 73.2038 173.5 73.0326C173.602 72.9525 173.736 72.9228 173.845 72.8464C174 72.7164 174.126 72.5562 174.217 72.3755C174.494 71.9869 174.9 71.7091 175.363 71.5916C175.825 71.474 176.314 71.5243 176.743 71.7334C177.414 72.0852 177.82 72.7887 178.416 73.2634C178.719 73.5091 179.071 73.6915 179.375 73.9371C179.986 74.4652 180.42 75.1682 180.619 75.951C180.817 76.7284 180.932 77.5245 180.963 78.326C180.995 78.5666 180.985 78.8108 180.935 79.0482C180.873 79.2473 180.781 79.4357 180.662 79.6066C180.048 80.5372 179.24 81.3822 178.227 81.8624C177.214 82.3426 175.981 82.4208 174.981 81.9183C174.88 81.8776 174.794 81.8084 174.732 81.7191C174.675 81.5832 174.661 81.4331 174.693 81.2892C174.747 80.7203 174.635 80.1479 174.369 79.6419C174.184 79.2697 173.905 78.9496 173.756 78.5643C173.618 78.133 173.559 77.6802 173.581 77.2279C173.565 76.0571 173.645 74.8901 173.351 73.7622Z" fill="#2D293D"/>
</g>
<defs>
<linearGradient id="paint0_linear" x1="187.099" y1="102.697" x2="157.998" y2="102.697" gradientUnits="userSpaceOnUse">
<stop stop-color="#808080" stop-opacity="0.25"/>
<stop offset="0.54" stop-color="#808080" stop-opacity="0.12"/>
<stop offset="1" stop-color="#808080" stop-opacity="0.1"/>
</linearGradient>
<clipPath id="clip0">
<rect x="0.0930328" width="207" height="146" fill="white"/>
</clipPath>
</defs>
</svg>
