<svg width="208" height="147" viewBox="0 0 208 147" fill="none" xmlns="http://www.w3.org/2000/svg">
<g clip-path="url(#clip0)">
<path opacity="0.1" d="M107.655 26.6803C94.582 29.0657 81.5273 28.0431 68.9689 26.5557C56.4106 25.0683 43.8834 23.126 30.8049 23.7114C22.3917 24.0872 13.0224 25.8872 7.14808 31.1188C1.49353 36.1507 0.612469 42.941 0.601478 49.0707C0.586825 53.6812 0.956834 58.452 3.98285 62.1251C6.08568 64.6727 9.32234 66.4983 11.7604 68.8501C20.2431 77.019 17.664 89.8816 12.0974 100.818C9.48536 105.948 6.29083 110.994 4.51222 116.246C2.73361 121.497 2.49732 127.124 5.68086 131.407C8.8351 135.653 14.9366 138.047 21.2982 139.287C34.2192 141.807 48.6148 140.242 62.5432 138.122C93.3694 133.412 123.877 126.07 154.318 118.746C165.582 116.034 176.894 113.31 187.746 109.402C193.772 107.226 199.908 104.518 203.801 100.303C208.746 94.9629 208.871 87.6584 204.105 83.293C196.107 75.9746 178.006 77.5985 171.821 69.2318C168.417 64.6252 169.899 58.369 172.608 52.8426C178.417 40.9908 189.643 29.2813 188.189 17.4651C187.185 9.35551 179.527 2.64435 169.262 0.895843C158.502 -0.935734 144.683 2.53754 138.489 10.6985C132.12 19.1068 119.199 24.5679 107.655 26.6803Z" fill="#6C63FF"/>
<path d="M118.452 71.4791H66.5353V84.4604H118.452V71.4791Z" fill="#565661"/>
<path opacity="0.1" d="M118.452 71.4791H66.5353V84.4604H118.452V71.4791Z" fill="black"/>
<path d="M72.7466 84.8877L73.1112 119.543L68.1179 133.155L67.7314 84.8877H72.7466Z" fill="#BCBEC9"/>
<path d="M67.0829 73.9713L117.63 74.2997V83.9678H67.0829V73.9713Z" fill="#565661"/>
<path d="M113.305 84.8877L117.63 85.5463V132.629L113.305 118.228V84.8877Z" fill="#BCBEC9"/>
<path d="M143.633 71.9993H119.273V127.896H143.633V71.9993Z" fill="#EFEFF0"/>
<path d="M141.684 73.552H121.221V116.519H141.684V73.552Z" fill="#565661"/>
<path opacity="0.1" d="M141.684 73.552H121.221V116.519H141.684V73.552Z" fill="black"/>
<path d="M141.684 74.4323H121.221V83.9679H141.684V74.4323Z" fill="#565661"/>
<path d="M141.684 84.8877H121.221V105.142H141.684V84.8877Z" fill="#565661"/>
<path d="M141.684 106.392H121.221V126.646H141.684V106.392Z" fill="#565661"/>
<path opacity="0.1" d="M141.684 106.392H121.221V126.646H141.684V106.392Z" fill="black"/>
<path d="M122.075 131.535C122.803 131.535 123.394 130.721 123.394 129.716C123.394 128.711 122.803 127.896 122.075 127.896C121.347 127.896 120.756 128.711 120.756 129.716C120.756 130.721 121.347 131.535 122.075 131.535Z" fill="#565661"/>
<path d="M140.365 131.622C141.093 131.622 141.684 130.808 141.684 129.803C141.684 128.798 141.093 127.983 140.365 127.983C139.637 127.983 139.046 128.798 139.046 129.803C139.046 130.808 139.637 131.622 140.365 131.622Z" fill="#565661"/>
<path d="M66.3521 133.155H68.1179L67.6325 72.4839H64.9508L66.3521 133.155Z" fill="#EFEFF0"/>
<path d="M117.63 71.9993V132.629H119.273V72.4839L117.63 71.9993Z" fill="#EFEFF0"/>
<path d="M67.7186 83.3745V85.5463H117.63V83.9679L67.7186 83.3745Z" fill="#EFEFF0"/>
<path d="M71.1017 67.9227H134.377L143.572 71.2101V73.1168L64.6467 72.4601V70.5198L71.1017 67.9227Z" fill="white"/>
<path d="M64.6467 70.5199L143.572 71.2102V73.1169L64.6467 72.4603V70.5199Z" fill="#BCBEC9"/>
<path d="M71.796 93.1317L71.4296 93.0723C71.4296 93.0545 71.4296 93.0387 71.4296 93.0229C71.4186 92.9299 71.4058 92.8389 71.393 92.746C71.5432 92.8745 71.6861 93.0031 71.818 93.1317H71.796Z" fill="url(#paint0_linear)"/>
<path d="M63.8353 123.673C64.0734 123.614 64.3152 123.564 64.557 123.529C66.2176 123.273 67.9111 123.543 69.4331 124.304C69.2792 125.526 69.1272 126.79 69.4532 127.971C69.6804 128.802 70.1365 129.554 70.2335 130.42C70.4782 130.465 70.7062 130.583 70.8923 130.761C71.0783 130.938 71.2149 131.168 71.2868 131.425C71.357 131.652 71.3923 131.89 71.3912 132.129C71.3892 132.425 71.3547 132.72 71.2886 133.007C71.2663 133.237 71.162 133.448 70.9978 133.595C70.8336 133.743 70.6225 133.816 70.4094 133.798C68.9916 133.972 67.6013 133.369 66.2825 132.778L63.7181 131.626C63.4177 131.492 63.1155 131.355 62.8279 131.189C62.2824 130.871 61.7981 130.443 61.401 129.929C61.317 129.838 61.258 129.723 61.2306 129.597C61.183 129.249 61.5603 129.041 61.8003 128.806C61.8706 128.734 61.9321 128.653 61.9834 128.565C62.2674 128.102 62.2948 127.463 62.4652 126.917C62.8682 125.621 64.1137 124.787 64.5534 123.523C64.5772 123.454 64.5991 123.384 64.6175 123.313" fill="#A26565"/>
<path opacity="0.1" d="M71.3912 132.129C71.3892 132.425 71.3547 132.72 71.2886 133.007C71.2664 133.237 71.162 133.448 70.9978 133.595C70.8336 133.743 70.6225 133.816 70.4094 133.798C68.9916 133.972 67.6014 133.369 66.2825 132.778L63.7181 131.626C63.4177 131.492 63.1155 131.355 62.8279 131.189C62.2824 130.871 61.7981 130.443 61.401 129.929C61.317 129.838 61.258 129.723 61.2306 129.597C61.183 129.249 61.5603 129.041 61.8003 128.806C61.8706 128.734 61.9321 128.653 61.9834 128.565C62.6905 128.729 63.5679 129.209 64.1083 129.395C64.6495 129.554 65.1692 129.789 65.6542 130.094C66.3283 130.56 66.8137 131.28 67.3852 131.874C67.9567 132.467 68.6949 133.007 69.4917 132.934C69.913 132.865 70.319 132.714 70.6896 132.487L71.3912 132.129Z" fill="black"/>
<path d="M68.389 104.02C68.4366 104.2 68.4323 104.391 68.3767 104.567C68.321 104.744 68.2167 104.898 68.0776 105.009C67.8376 105.169 67.5281 105.148 67.2899 105.322C66.995 105.545 66.9529 105.988 66.9016 106.372C66.7184 107.691 66.1122 108.888 65.5938 110.1C65.0754 111.313 64.6376 112.636 64.8281 113.954C64.9582 114.848 65.3648 115.801 64.9838 116.606C64.8904 116.804 64.7512 116.98 64.6449 117.172C64.1229 118.113 64.4196 119.306 64.3995 120.402C64.4071 120.523 64.3823 120.645 64.328 120.752C64.248 120.853 64.1494 120.935 64.0386 120.993C63.8527 121.141 63.6999 121.332 63.5918 121.552C63.4836 121.772 63.4229 122.016 63.414 122.265C63.3986 122.763 63.4542 123.261 63.5789 123.74C63.599 123.934 63.6783 124.115 63.8042 124.255C63.95 124.359 64.1222 124.411 64.2969 124.405C65.4477 124.506 66.5765 124.802 67.6416 125.283C68.3359 125.596 69.0099 125.987 69.7481 126.138C69.8195 126.162 69.8947 126.17 69.969 126.161C70.0433 126.153 70.1153 126.128 70.1804 126.088C70.2732 125.998 70.3373 125.878 70.3636 125.746C70.6475 124.737 70.9351 123.697 70.838 122.649C70.7959 122.198 70.6841 121.757 70.6548 121.306C70.5266 119.525 71.6421 117.919 71.9957 116.163C72.155 115.372 72.155 114.553 72.2686 113.754C72.5763 111.564 73.6937 109.6 74.1241 107.434C74.184 107.03 74.2772 106.633 74.4025 106.247C74.7231 105.409 75.4649 104.728 75.4814 103.821C75.4916 103.621 75.4429 103.423 75.3422 103.255C75.1695 103.05 74.9401 102.911 74.6883 102.859C73.6932 102.564 72.6802 102.343 71.6568 102.199C71.1877 102.099 70.709 102.063 70.2317 102.092C69.6119 102.17 69.0161 102.398 68.4879 102.756C67.7809 103.227 68.2351 103.34 68.389 104.02Z" fill="#454B69"/>
<path opacity="0.05" d="M68.389 104.02C68.4366 104.2 68.4323 104.391 68.3767 104.567C68.321 104.744 68.2167 104.898 68.0776 105.009C67.8376 105.169 67.5281 105.148 67.2899 105.322C66.995 105.545 66.9529 105.988 66.9016 106.372C66.7184 107.691 66.1122 108.888 65.5938 110.1C65.0754 111.313 64.6376 112.636 64.8281 113.954C64.9582 114.848 65.3648 115.801 64.9838 116.606C64.8904 116.804 64.7512 116.98 64.6449 117.172C64.1229 118.113 64.4196 119.306 64.3995 120.402C64.4071 120.523 64.3823 120.645 64.328 120.752C64.248 120.853 64.1494 120.935 64.0386 120.993C63.8527 121.141 63.6999 121.332 63.5918 121.552C63.4836 121.772 63.4229 122.016 63.414 122.265C63.3986 122.763 63.4542 123.261 63.5789 123.74C63.599 123.934 63.6783 124.115 63.8042 124.255C63.95 124.359 64.1222 124.411 64.2969 124.405C65.4477 124.506 66.5765 124.802 67.6416 125.283C68.3359 125.596 69.0099 125.987 69.7481 126.138C69.8195 126.162 69.8947 126.17 69.969 126.161C70.0433 126.153 70.1153 126.128 70.1804 126.088C70.2732 125.998 70.3373 125.878 70.3636 125.746C70.6475 124.737 70.9351 123.697 70.838 122.649C70.7959 122.198 70.6841 121.757 70.6548 121.306C70.5266 119.525 71.6421 117.919 71.9957 116.163C72.155 115.372 72.155 114.553 72.2686 113.754C72.5763 111.564 73.6937 109.6 74.1241 107.434C74.184 107.03 74.2772 106.633 74.4025 106.247C74.7231 105.409 75.4649 104.728 75.4814 103.821C75.4916 103.621 75.4429 103.423 75.3422 103.255C75.1695 103.05 74.9401 102.911 74.6883 102.859C73.6932 102.564 72.6802 102.343 71.6568 102.199C71.1877 102.099 70.709 102.063 70.2317 102.092C69.6119 102.17 69.0161 102.398 68.4879 102.756C67.7809 103.227 68.2351 103.34 68.389 104.02Z" fill="black"/>
<path d="M64.8043 133.83H63.2418L62.2197 111.155L62.1483 109.865L63.4763 109.361L63.566 110.731L64.8043 133.83Z" fill="#565661"/>
<path opacity="0.1" d="M63.566 110.731L62.2197 111.155L62.1483 109.865L63.4763 109.361L63.566 110.731Z" fill="black"/>
<path d="M84.4092 138.626L81.832 138.963L69.9587 109.865L66.7569 109.612L61.1335 111.384L60.0399 146.028H57.4627L58.4775 110.118L52.3064 110.288L41.294 139.89H38.9512L50.5333 105.294L50.9802 103.961L68.2406 103.322L72.5433 105.927L72.5983 106.077L84.4092 138.626Z" fill="#565661"/>
<path opacity="0.1" d="M72.5983 106.077C68.889 107.284 65.0387 108.601 65.0387 108.601C65.0387 108.601 61.5273 109.924 60.0399 108.601C59.8524 108.443 59.6428 108.318 59.419 108.231C59.612 108.38 59.8204 108.504 60.0399 108.601L50.5333 105.292L50.9784 103.961L68.2406 103.322L72.5433 105.927L72.5983 106.077Z" fill="black"/>
<path d="M55.0411 100.335L62.0695 98.6482C62.0695 98.6482 78.8628 102.023 80.112 103.372C80.112 103.372 66.6781 106.323 65.1944 107.327C63.7107 108.332 54.8836 109.444 55.0411 100.335Z" fill="white"/>
<path d="M52.0188 81.3689C51.4692 83.2499 49.9691 84.945 48.1428 85.0261C48.01 85.0429 47.8754 85.0168 47.7563 84.951C47.5274 84.7967 47.5219 84.4347 47.6153 84.1598C47.7087 83.8848 47.8717 83.6376 47.8974 83.3488C47.9029 83.2899 47.8991 83.2304 47.8864 83.1728C47.8388 82.9374 47.6611 82.7278 47.4523 82.7772C47.5945 82.6543 47.6892 82.4787 47.718 82.2845C47.7467 82.0904 47.7075 81.8916 47.608 81.7269C47.5251 81.6258 47.4503 81.5173 47.3845 81.4025C47.2325 81.0663 47.4688 80.6885 47.5677 80.3285C47.771 79.5373 47.2545 78.7461 47.2123 77.9213C47.1757 77.1836 47.5219 76.4893 47.608 75.7575C47.7454 74.5707 47.1995 73.4334 47.1354 72.2486C47.0914 71.4218 47.2801 70.603 47.4907 69.8058C47.6739 69.0938 47.8809 68.3738 47.8937 67.6301C47.8937 67.0901 47.8076 66.5561 47.7838 66.0181C47.7458 65.5263 47.8286 65.0323 48.0238 64.5861C48.1506 64.3237 48.3666 64.1245 48.6264 64.0303C49.2272 63.8127 49.621 64.1509 49.709 64.766C49.8555 65.8124 49.7712 66.8805 49.9636 67.9308C50.1414 68.9129 50.4108 69.8732 50.7677 70.7968C51.0919 71.6315 51.4857 72.4385 51.7349 73.3029C51.9224 74.0153 52.0565 74.7429 52.136 75.4786C52.3815 77.4546 52.5738 79.4879 52.0188 81.3689Z" fill="#6C63FF"/>
<path d="M93.7382 129.243C93.5065 129.596 93.2084 129.892 92.8633 130.111C92.5183 130.331 92.1342 130.469 91.7362 130.517C90.9412 130.624 90.1151 130.408 89.3439 130.643C89.2245 130.665 89.1118 130.717 89.0159 130.797C88.92 130.877 88.8439 130.981 88.7944 131.1C88.7753 131.261 88.7637 131.423 88.7596 131.585C88.6698 132.113 88.0269 132.232 87.5269 132.228L85.4643 132.214C85.0357 132.214 84.5613 132.188 84.2536 131.868C84.1072 131.693 84.0247 131.466 84.0214 131.231C84.018 130.995 84.094 130.766 84.2352 130.586C84.2992 130.504 84.3777 130.437 84.466 130.388C84.3372 130.342 84.2228 130.258 84.1355 130.146C84.0482 130.034 83.9914 129.898 83.9715 129.753C83.934 129.462 83.947 129.167 84.0099 128.881C84.0099 128.054 84.1931 126.67 84.7316 126.023C85.3929 125.218 86.5395 124.177 87.5378 123.962C87.8749 123.892 88.2225 123.909 88.5527 124.01C88.8828 124.111 89.1865 124.295 89.4392 124.545C89.9118 125.02 90.2561 125.764 90.9046 125.847C91.2581 125.894 91.5988 125.714 91.9486 125.649C92.3463 125.594 92.75 125.673 93.1045 125.875C93.459 126.077 93.7469 126.393 93.9287 126.778C94.0175 126.974 94.0792 127.183 94.1119 127.398C94.2087 128.042 94.0751 128.701 93.7382 129.243Z" fill="#A26565"/>
<path opacity="0.1" d="M93.7382 129.243C93.5065 129.596 93.2084 129.892 92.8633 130.111C92.5183 130.331 92.1342 130.469 91.7362 130.517C90.9412 130.624 90.1151 130.408 89.3439 130.643C89.2245 130.665 89.1118 130.718 89.0159 130.797C88.92 130.877 88.8439 130.981 88.7944 131.1C88.7753 131.261 88.7637 131.423 88.7596 131.585C88.6698 132.113 88.0269 132.232 87.5268 132.228L85.4643 132.214C85.0357 132.214 84.5613 132.188 84.2536 131.868C84.1072 131.693 84.0247 131.466 84.0213 131.231C84.018 130.995 84.094 130.766 84.2352 130.586C85.4259 130.533 86.5963 130.586 87.7833 130.321C88.265 130.216 88.7395 130.078 89.2267 130.005C90.2818 129.842 91.4046 129.981 92.3736 129.498C93.1814 129.103 93.7602 128.298 94.1028 127.4C94.2017 128.042 94.0715 128.701 93.7382 129.243Z" fill="black"/>
<path d="M88.2962 126.116C87.5635 126.729 86.7044 127.208 85.7812 127.259C84.858 127.311 83.878 126.864 83.4256 125.997C82.7644 124.725 83.3505 122.957 82.5409 121.79C82.2881 121.424 81.9236 121.165 81.6562 120.811C81.3887 120.457 81.2349 119.925 81.473 119.549C81.1854 119.668 80.8813 119.367 80.7971 119.047C80.7128 118.726 80.7659 118.382 80.7146 118.058C80.5809 117.197 79.7988 116.646 79.4233 115.882C79.0478 115.119 79.0991 114.128 79.0569 113.224C78.9633 111.021 78.2041 108.913 76.8955 107.221C76.6464 106.9 76.3277 106.574 75.9393 106.59C76.0071 105.866 75.5602 105.173 74.9813 104.809C74.4025 104.446 73.7138 104.323 73.0434 104.252C66.2788 103.532 59.2303 106.247 52.7716 103.963C50.9747 103.328 49.2419 102.266 48.1428 100.6C47.7147 99.9666 47.4085 99.2466 47.242 98.483C47.0756 97.7194 47.0524 96.9275 47.1739 96.154V96.1263C47.4285 94.722 48.1154 94.3758 49.2529 93.735C50.566 92.9853 51.9386 92.3637 53.3541 91.8777C56.1017 90.95 59.0599 90.6158 61.8955 91.2962C63.2198 91.6166 64.4965 92.1467 65.8227 92.4572C66.3447 92.5799 66.8704 92.6669 67.3998 92.7401C68.2223 92.8508 69.0484 92.924 69.8763 93.0269C72.5236 93.356 75.1309 93.9893 77.6538 94.9158C78.5935 95.26 79.5332 95.6536 80.341 96.2766C80.9799 96.7777 81.5202 97.4111 81.9302 98.1398C82.3403 98.8685 82.612 99.6781 82.7295 100.521C82.8065 101.103 82.8083 101.708 82.9255 102.272C83.0366 102.746 83.1837 103.209 83.3652 103.656C84.9303 107.835 86.2092 112.132 87.1916 116.513C87.2473 116.838 87.3506 117.152 87.4975 117.443C87.732 117.852 88.135 118.127 88.3713 118.536C88.9208 119.502 88.3914 120.849 88.8787 121.853C89.0472 122.202 89.3274 122.477 89.496 122.825C90.0455 123.966 89.234 125.331 88.2962 126.116Z" fill="#454B69"/>
<path opacity="0.1" d="M78.936 103.389C79.1964 103.167 79.4211 102.9 79.601 102.598C79.7815 102.295 79.8531 101.932 79.8025 101.576C79.8739 102.026 79.8466 102.488 79.7229 102.925C79.5992 103.362 79.3824 103.761 79.0899 104.091C78.6301 104.6 77.7674 105.098 77.0952 104.924C77.1904 104.343 78.5093 103.781 78.936 103.389Z" fill="black"/>
<path opacity="0.1" d="M67.4914 93.5312C67.4361 93.7433 67.3328 93.9371 67.1908 94.0952C67.0489 94.2534 66.8727 94.3709 66.6781 94.4372C66.2876 94.5661 65.8786 94.6177 65.471 94.5895H65.1047C60.2982 94.4747 55.4405 93.3236 50.7458 94.4213C50.18 94.5473 49.6248 94.7239 49.0862 94.9494C48.4 95.2415 47.7574 95.6414 47.1794 96.1362V96.1085C47.434 94.7042 48.1209 94.358 49.2584 93.7172C50.5704 92.9739 51.941 92.3584 53.3541 91.8777C56.1017 90.95 59.06 90.6158 61.8955 91.2962C63.2198 91.6166 64.4966 92.1467 65.8227 92.4572C66.3448 92.5799 66.8705 92.6669 67.3998 92.7401C67.5025 92.9881 67.5344 93.2636 67.4914 93.5312Z" fill="black"/>
<path d="M67.4914 93.2484C67.4365 93.4609 67.3334 93.6552 67.1914 93.8137C67.0494 93.9723 66.873 94.09 66.6781 94.1563C66.2876 94.2855 65.8785 94.3365 65.471 94.3066H65.1047C60.2982 94.1919 55.4405 93.0407 50.7458 94.1385C50.1802 94.2647 49.6252 94.4407 49.0862 94.6646C48.3676 94.9741 47.6973 95.401 47.0988 95.9305C46.9584 95.5138 46.8185 95.0965 46.6793 94.6785C46.5108 94.18 47.0457 94.0693 47.1482 93.6223C47.216 93.3196 47.1006 92.9755 47.042 92.6531C47.027 92.5741 47.0172 92.4942 47.0127 92.4137C46.9797 91.6997 47.216 91.2883 47.7582 90.9026C49.3665 89.7554 51.3282 88.9681 53.1636 88.3767C54.1394 88.0436 55.1473 87.8326 56.1677 87.7477C57.6111 87.6568 59.0526 87.9455 60.4576 88.3115C62.1849 88.7723 63.8939 89.3815 65.4252 90.3567C66.1762 90.8294 66.9089 91.4228 67.3137 92.2654C67.4753 92.5615 67.538 92.9084 67.4914 93.2484Z" fill="#A26565"/>
<path opacity="0.1" d="M52.0188 81.3689C51.4693 83.2499 49.9691 84.945 48.1429 85.0261C48.01 85.0429 47.8755 85.0167 47.7564 84.9509C47.5274 84.7966 47.5219 84.4347 47.6153 84.1597C47.7088 83.8848 47.8718 83.6376 47.8974 83.3488C47.9029 83.2898 47.8992 83.2303 47.8864 83.1727C48.8554 81.6972 49.7951 80.2058 50.1669 78.4593C50.2422 78.1586 50.2652 77.8454 50.2347 77.5356C50.1853 77.1796 50.0186 76.8572 49.927 76.513C49.7658 75.9038 49.8409 75.259 49.8867 74.628C50.0774 71.8497 49.6477 69.0625 48.6338 66.5007C48.3865 65.8835 48.1044 65.2585 48.0183 64.5999C48.1451 64.3375 48.3611 64.1383 48.621 64.044C49.2218 63.8265 49.6156 64.1647 49.7035 64.7798C49.8501 65.8262 49.7658 66.8943 49.9581 67.9446C50.1359 68.9267 50.4054 69.887 50.7622 70.8106C51.0865 71.6453 51.4803 72.4523 51.7294 73.3166C51.9169 74.0291 52.0511 74.7567 52.1305 75.4924C52.3815 77.4545 52.5738 79.4878 52.0188 81.3689Z" fill="black"/>
<path opacity="0.1" d="M67.4914 93.2484C67.4366 93.4608 67.3334 93.6551 67.1914 93.8137C67.0494 93.9722 66.873 94.09 66.6782 94.1563C66.2877 94.2855 65.8785 94.3364 65.471 94.3066H65.1047C63.5401 93.1845 61.6591 92.6942 59.7927 92.922C59.1955 92.9992 58.5984 93.1495 58.0013 93.0901C56.7941 92.9715 55.816 92.0339 54.7408 91.4346C53.5173 90.7822 52.1411 90.5395 50.789 90.7376C49.4368 90.9356 48.1703 91.5655 47.1519 92.5462L47.0475 92.6451C47.0325 92.5662 47.0227 92.4862 47.0182 92.4058C46.9852 91.6917 47.2215 91.2803 47.7637 90.8946C49.372 89.7474 51.3338 88.9602 53.1692 88.3688C54.1449 88.0357 55.1529 87.8247 56.1732 87.7398C57.6166 87.6488 59.0582 87.9376 60.4631 88.3035C62.1904 88.7644 63.8994 89.3736 65.4307 90.3487C66.1763 90.8294 66.909 91.4227 67.3138 92.2653C67.4753 92.5615 67.538 92.9084 67.4914 93.2484Z" fill="black"/>
<path d="M71.6 71.582L71.5743 71.6532C71.164 72.8024 70.4094 73.7735 69.9258 74.8931C69.3158 76.3112 69.1656 77.9015 69.0301 79.4601C68.9128 80.7952 68.7974 82.1383 68.8909 83.4773C69.1253 86.7765 70.6182 89.9057 71.0175 93.1416C71.1159 93.8889 71.1411 94.6454 71.0926 95.3984C71.0596 95.8751 70.979 96.3874 70.6859 96.7395C70.3929 97.0915 69.8232 97.23 69.5081 96.8918C69.6492 96.601 69.7921 96.3122 69.9349 96.0215C69.0978 95.3193 67.8376 95.8237 66.8595 95.3846C66.429 95.1868 66.0846 94.8307 65.7238 94.5123C64.9002 93.7892 63.9511 93.2512 62.9323 92.9299C61.9134 92.6086 60.8453 92.5104 59.7908 92.6412C59.1937 92.7203 58.5965 92.8706 57.9994 92.8113C56.7923 92.6906 55.8141 91.755 54.7389 91.1557C53.5155 90.5036 52.1395 90.2609 50.7875 90.4586C49.4355 90.6563 48.1689 91.2854 47.1501 92.2654C46.8936 92.5225 46.5493 92.8231 46.2342 92.6609C46.1124 92.5804 46.0141 92.4646 45.9503 92.3267C44.7505 90.1133 45.6334 87.2592 46.9156 85.1032C48.1978 82.9472 49.8958 80.9594 50.4234 78.4613C50.4995 78.1607 50.5225 77.8473 50.4911 77.5376C50.4417 77.1815 50.275 76.8591 50.1834 76.515C50.0222 75.9058 50.0973 75.261 50.1431 74.63C50.3353 71.8513 49.9069 69.0634 48.8939 66.5006C48.6008 65.7629 48.2528 65.0152 48.2528 64.2141C48.2528 62.9522 49.0899 61.9059 49.7823 60.8912C50.5791 59.7242 51.2477 58.4326 52.2569 57.4733C53.2131 56.5615 54.5979 56.0037 55.7812 56.4665C57.7918 55.9394 59.8614 55.7217 61.9285 55.8197C62.6428 55.8553 63.381 55.9364 64.0075 56.3103C64.6779 56.7059 65.1596 57.41 65.819 57.8313C66.3008 58.1418 66.8558 58.2882 67.3797 58.5058C68.8263 59.1159 70.0204 60.2691 70.7427 61.7536C71.4754 63.2865 71.6586 65.0488 71.8198 66.7657C71.9737 68.3817 72.1202 70.0609 71.6 71.582Z" fill="#6C63FF"/>
<path opacity="0.1" d="M68.8908 83.4773C69.1253 86.7765 70.6181 89.9056 71.0175 93.1416C70.2188 92.4117 69.107 91.6779 68.9586 90.8293C68.7937 89.9116 68.2662 88.709 68.1783 87.7813C68.0904 86.8537 68.693 85.7203 68.0611 85.0834C67.7533 84.7729 68.5721 84.8599 68.2717 84.5415C67.5958 83.8314 67.4291 82.7376 67.387 81.7229C67.3155 79.9269 67.5262 78.1112 67.2203 76.3448C67.0371 75.255 66.6543 74.2166 66.3484 73.1584C65.993 71.9261 65.7366 70.6642 65.4801 69.4003C65.2278 68.2766 65.0442 67.1361 64.9306 65.9864C64.8519 64.9974 64.8885 63.9491 65.297 63.0471C65.7055 62.1452 66.5316 61.4133 67.4584 61.4272C70.5577 61.4707 70.0228 66.0081 70.7042 68.1047C70.9772 68.9394 71.3453 69.7464 71.4937 70.6167C71.5478 70.9579 71.5772 71.3031 71.5816 71.6492C71.1713 72.7984 70.4167 73.7696 69.9331 74.8891C69.3231 76.3073 69.1729 77.8975 69.0374 79.4562C68.9128 80.7952 68.7974 82.1382 68.8908 83.4773Z" fill="black"/>
<path d="M70.9057 68.0533C71.1787 68.888 71.5468 69.695 71.6952 70.5653C71.9425 72.023 71.5597 73.5717 71.9755 74.984C72.0837 75.2854 72.1743 75.594 72.2466 75.9077C72.318 76.3567 72.2356 76.8156 72.2356 77.2725C72.2356 78.0083 72.4499 78.7203 72.6404 79.4265C73.2846 81.8261 73.711 84.2877 73.9134 86.7765C73.9437 87.4453 74.0413 88.1085 74.2047 88.7544C74.2816 88.9733 74.3476 89.1965 74.4025 89.423C74.4517 89.7252 74.4634 90.0332 74.4373 90.3388C74.3879 91.308 74.2871 92.2811 74.3878 93.2463C74.4886 94.2116 74.8146 95.1907 75.4869 95.8375C74.8861 95.9779 74.2505 96.1183 73.6643 95.9106C72.84 95.6199 72.3455 94.7239 71.926 93.909C71.3948 92.8686 69.3762 91.931 69.1674 90.7621C69.0044 89.8463 68.4769 88.6437 68.3889 87.714C68.301 86.7844 68.9018 85.655 68.2699 85.0181C67.964 84.7076 68.7828 84.7926 68.4805 84.4762C67.8065 83.7661 67.6398 82.6723 67.5976 81.6556C67.5262 79.8616 67.735 78.0459 67.431 76.2795C67.2478 75.1897 66.865 74.1513 66.5591 73.0911C66.2037 71.8608 65.9473 70.5989 65.6908 69.333C65.4377 68.2095 65.2541 67.069 65.1413 65.9191C65.0625 64.9301 65.0973 63.8798 65.5076 62.9779C65.918 62.0759 66.7441 61.3461 67.6691 61.3579C70.7555 61.4173 70.2243 65.9567 70.9057 68.0533Z" fill="#6C63FF"/>
<path opacity="0.1" d="M62.0732 68.8267C62.3626 69.1926 62.7344 69.5942 63.1722 69.523C63.139 69.5798 63.0864 69.6204 63.0258 69.6359C62.9652 69.6515 62.9013 69.6407 62.848 69.606C62.7429 69.5308 62.6587 69.4262 62.6044 69.3034L61.9779 68.1621C61.8955 68.0138 61.3276 67.1494 61.1884 67.6479C61.1335 67.8595 61.9321 68.6487 62.0732 68.8267Z" fill="black"/>
<path opacity="0.1" d="M61.7361 71.673C61.7181 71.3001 61.5726 70.9477 61.3276 70.684C61.1075 70.4684 60.8505 70.3011 60.5711 70.1915C59.8842 69.8869 59.071 69.6416 58.3254 69.6812C58.5965 70.1084 59.4666 70.3636 59.9026 70.6049C60.5205 70.9491 61.1317 71.3051 61.7361 71.673Z" fill="black"/>
<path opacity="0.1" d="M63.6869 79.7746C63.5606 80.7873 62.7931 81.5547 62.0164 82.1481C61.2398 82.7415 60.3679 83.2518 59.8605 84.1102C59.5088 84.7036 59.3512 85.3919 59.0527 86.011C58.723 86.6934 58.2302 87.267 57.8364 87.9079C57.4426 88.5487 57.1349 89.3142 57.2558 90.0737C57.2575 90.1087 57.2659 90.1429 57.2804 90.1742C57.2949 90.2055 57.3152 90.2332 57.34 90.2557C57.3778 90.2729 57.4189 90.2794 57.4597 90.2746C57.5004 90.2697 57.5393 90.2537 57.5726 90.228C58.3713 89.7771 58.6863 88.7465 59.0215 87.8545C59.3734 86.9541 59.7697 86.0746 60.2085 85.2199C60.4063 84.8243 60.6243 84.3931 60.9925 84.1735C61.2446 84.0601 61.5027 83.963 61.7655 83.8828C62.1382 83.6982 62.4652 83.421 62.7198 83.0738C63.7197 81.7856 64.2418 80.1429 64.1852 78.4632C64.1742 78.1091 64.1559 76.4042 63.6631 76.9303C63.1704 77.4564 63.7712 79.0862 63.6869 79.7746Z" fill="black"/>
<path d="M64.894 40.9337C66.4693 41.6755 67.8248 43.3073 67.7753 45.1566C67.7332 47.099 66.2275 48.9286 66.7459 50.7898C67.0463 51.8698 67.9512 52.5937 68.6674 53.4146C71.3948 56.5318 71.3893 61.9731 68.6527 65.0844C67.605 66.2712 66.2587 67.1158 65.1505 68.2491C61.2434 72.2248 61.0767 79.1021 63.1685 84.4406C61.5658 84.8149 59.9322 85.0137 58.2925 85.034C57.525 85.034 56.5853 84.8935 56.3069 84.1202C56.0504 83.4061 56.49 82.4409 55.9845 81.9128C55.7464 81.6655 55.3892 81.6319 55.0686 81.5746C53.0061 81.2146 51.3136 79.4364 50.5406 77.3418C49.7676 75.2471 49.8079 72.8894 50.2512 70.686C50.5662 69.0937 51.059 67.3413 50.3281 65.9171C49.4122 64.1251 46.7782 63.3696 46.8185 61.3204C46.8515 59.6411 48.685 58.8242 49.7255 57.5762C51.6451 55.2778 50.7311 51.7115 50.7274 48.6141C50.7274 45.8885 51.6103 43.0758 53.4897 41.2601C56.2849 38.5365 61.6683 39.4206 64.894 40.9337Z" fill="#A26565"/>
<g opacity="0.1">
<path opacity="0.1" d="M50.6285 63.8858C49.8244 62.3192 47.7124 61.5439 47.2215 60.0031C46.9759 60.3626 46.8379 60.7946 46.8258 61.2412C46.7855 63.2904 49.4159 64.046 50.3354 65.84C50.6374 66.4751 50.7645 67.1903 50.7018 67.901C50.9912 66.5243 51.2458 65.0883 50.6285 63.8858Z" fill="black"/>
<path opacity="0.1" d="M66.9565 48.2541C67.2862 47.2156 67.7643 46.1673 67.7881 45.0894C67.7915 44.9726 67.7884 44.8557 67.779 44.7393C67.4108 45.93 66.8466 47.0851 66.9565 48.2541Z" fill="black"/>
<path opacity="0.1" d="M50.9436 53.7863C51.5737 51.6363 51.0296 48.97 51.0278 46.5846C51.0278 46.2958 51.0388 46.0051 51.059 45.7163C50.8419 46.6382 50.7324 47.5857 50.7329 48.5369C50.7366 50.2399 51.0132 52.0873 50.9436 53.7863Z" fill="black"/>
<path opacity="0.1" d="M68.9586 63.061C67.9109 64.2477 66.5645 65.0923 65.4563 66.2257C63.4781 68.2372 62.4615 70.9925 62.2068 73.9139C62.6794 71.7382 63.6338 69.7346 65.1633 68.1779C66.2623 67.0505 67.6178 66.2099 68.6655 65.0132C69.9118 63.5466 70.6356 61.6499 70.7079 59.6609C70.3916 60.9319 69.7909 62.0995 68.9586 63.061Z" fill="black"/>
<path opacity="0.1" d="M58.5983 83.0046C57.8309 83.0046 56.8912 82.8622 56.6128 82.0888C56.3563 81.3767 56.7959 80.4115 56.2904 79.8814C56.0522 79.6341 55.6932 79.6005 55.3745 79.5432C53.3138 79.1852 51.6213 77.405 50.8483 75.3123C50.2786 73.7656 50.1559 72.0784 50.2988 70.413C50.2841 70.4782 50.2713 70.5435 50.2585 70.6108C49.8225 72.8142 49.7767 75.1739 50.5479 77.2685C51.3191 79.3632 53.0134 81.1413 55.0741 81.4994C55.4002 81.5567 55.7592 81.5923 55.99 81.8376C56.501 82.3677 56.0559 83.3329 56.3123 84.045C56.5908 84.8183 57.5304 84.9706 58.2979 84.9608C59.9376 84.9404 61.5712 84.7416 63.174 84.3674C62.9479 83.7903 62.7505 83.2007 62.5824 82.6011C61.2669 82.8535 59.9344 82.9885 58.5983 83.0046Z" fill="black"/>
</g>
<path opacity="0.1" d="M64.5973 74.3788C65.0498 74.7467 65.5407 73.3444 65.2604 72.9943C65.1853 73.0852 64.5277 74.3274 64.5973 74.3788Z" fill="black"/>
<path opacity="0.1" d="M66.5261 99.7638C67.0592 99.566 67.6252 99.3682 67.9732 98.8935C68.2608 98.5117 68.4971 96.9966 67.8889 97.7225C67.3724 98.3456 67.1288 99.1664 66.5261 99.7638Z" fill="black"/>
<path opacity="0.1" d="M71.9535 98.1755C71.8894 98.6422 71.7703 99.1269 71.4644 99.4631C71.4076 99.5264 71.2813 99.5659 71.2648 99.4809C71.6064 99.2845 71.924 99.0426 72.2099 98.7609C72.829 98.0983 72.9133 96.4665 71.97 96.0333C71.9608 96.7493 72.0542 97.4476 71.9535 98.1755Z" fill="black"/>
<path d="M78.469 95.2343C78.469 95.2343 73.2705 93.0289 71.3912 93.2563C69.5118 93.4838 73.5196 96.6821 73.5196 96.6821L75.9155 98.4267C75.9155 98.4267 77.3809 97.8333 77.478 97.7878C77.5751 97.7423 78.469 95.2343 78.469 95.2343Z" fill="#454B69"/>
<path d="M42.7008 71.574C42.7008 71.574 46.6061 69.1293 51.7605 72.1674C56.915 75.2055 57.7741 93.0842 57.7741 93.0842C57.7741 93.0842 55.6658 111.299 63.795 107.246C63.795 107.246 78.632 102.272 80.1175 103.368C80.1175 103.368 81.5243 103.368 78.7126 104.042C75.9009 104.716 65.0387 108.433 65.0387 108.433C65.0387 108.433 61.5273 109.758 60.04 108.433C58.5526 107.108 54.3378 108.603 53.7901 99.4927C53.4276 93.7516 52.7758 88.0361 51.8375 82.3716L50.3886 77.7333L42.7008 71.574Z" fill="#565661"/>
<path d="M42.2319 99.744C42.2319 99.744 43.95 81.274 41.1329 74.6103C38.682 68.803 48.1594 71.5187 50.6322 72.3099C51.0149 72.4335 51.3487 72.6909 51.581 73.0418C53.0464 75.267 58.3035 84.1855 56.7538 96.1184C56.7538 96.1184 56.1292 106.746 60.0345 108.431L48.0018 104.246C47.0255 103.906 46.0346 103.623 45.0344 103.378C43.7595 103.065 41.6824 102.177 42.2319 99.744Z" fill="white"/>
<path d="M127.812 134.225H129.375L130.398 111.55L130.468 110.261L129.14 109.756L129.052 111.127L127.812 134.225Z" fill="#565661"/>
<path opacity="0.1" d="M129.052 111.127L130.398 111.55L130.468 110.261L129.14 109.756L129.052 111.127Z" fill="black"/>
<path d="M114.766 125.469C114.728 125.78 114.654 126.084 114.547 126.375C114.436 126.755 114.197 127.077 113.878 127.277C113.664 127.373 113.434 127.422 113.202 127.421C112.339 127.477 111.427 127.463 110.685 126.988C110.369 126.768 110.08 126.507 109.823 126.211C108.156 124.422 106.64 122.476 105.295 120.396C105.069 120.046 104.837 119.632 104.937 119.209C106.68 118.687 108.336 117.869 109.841 116.786C110.049 116.614 110.281 116.48 110.53 116.39C110.955 116.292 111.392 116.275 111.823 116.339C112.239 116.412 112.257 116.426 112.416 116.932C112.68 117.789 112.636 118.713 112.933 119.569C113.121 120.042 113.351 120.495 113.618 120.922C114.384 122.304 114.972 123.936 114.766 125.469Z" fill="#A26565"/>
<path opacity="0.1" d="M114.767 125.469C114.728 125.78 114.654 126.084 114.547 126.375C114.436 126.755 114.197 127.077 113.878 127.277C113.664 127.373 113.434 127.422 113.202 127.421C112.339 127.477 111.427 127.463 110.685 126.988C110.369 126.768 110.08 126.507 109.823 126.211C108.156 124.422 106.64 122.476 105.295 120.396C105.069 120.046 104.837 119.632 104.937 119.209C105.506 119.039 106.066 118.837 106.615 118.604L106.643 118.626C107.205 119.059 107.614 119.68 108.011 120.289L109.293 122.237C109.522 122.62 109.792 122.972 110.097 123.286C110.476 123.614 110.895 123.885 111.341 124.093C111.944 124.407 112.546 124.722 113.173 124.975C113.578 125.151 114.263 125.22 114.767 125.469Z" fill="black"/>
<path d="M115.95 104.347C115.824 104.675 115.67 104.991 115.492 105.29C113.789 108.377 112.476 111.696 111.587 115.158C111.334 115.097 111.191 115.469 111.193 115.751C111.195 116.034 111.193 116.39 110.951 116.493C110.88 116.523 110.799 116.523 110.729 116.556C110.575 116.632 110.532 116.843 110.51 117.025L110.293 118.738C110.218 119.332 110.152 119.974 110.422 120.499C110.607 120.81 110.848 121.079 111.131 121.29L114.706 124.336C114.853 124.46 115.034 124.593 115.21 124.524C115.611 124.365 115.256 123.59 115.576 123.276C115.789 123.06 116.126 123.222 116.421 123.196C116.805 123.165 117.096 122.783 117.194 122.382C117.262 121.973 117.268 121.555 117.214 121.143C117.19 120.956 117.21 120.764 117.272 120.588C117.382 120.4 117.532 120.244 117.71 120.135C118.33 119.645 118.83 118.999 119.166 118.253C119.502 117.507 119.663 116.683 119.635 115.854C119.606 115.602 119.615 115.346 119.661 115.097C119.735 114.868 119.848 114.657 119.992 114.472C121.291 112.575 122.374 110.516 123.449 108.461C124.068 107.274 124.698 106.069 124.914 104.732C124.933 104.683 124.941 104.629 124.937 104.575C124.933 104.522 124.918 104.47 124.892 104.424C124.867 104.378 124.831 104.339 124.79 104.31C124.748 104.281 124.7 104.263 124.65 104.258C124.114 104.077 123.567 103.935 123.013 103.834C121.33 103.466 119.705 102.899 118.067 102.353C116.43 101.807 116.443 102.919 115.95 104.347Z" fill="#454B69"/>
<path d="M108.207 139.022L110.786 139.358L122.658 110.261L125.859 110.008L131.485 111.78L132.576 146.423H135.154L134.139 110.514L140.31 110.684L151.322 140.286H153.665L142.083 105.69L141.638 104.357L124.376 103.718L120.073 106.323L120.018 106.473L108.207 139.022Z" fill="#565661"/>
<path opacity="0.1" d="M120.018 106.473C123.727 107.679 127.578 108.997 127.578 108.997C127.578 108.997 131.089 110.32 132.576 108.997C132.764 108.839 132.974 108.714 133.197 108.627C133.004 108.776 132.796 108.9 132.576 108.997L142.083 105.688L141.643 104.357L124.381 103.718L120.079 106.323L120.018 106.473Z" fill="black"/>
<path d="M137.575 100.731L130.547 99.0437C130.547 99.0437 113.754 102.418 112.504 103.767C112.504 103.767 125.938 106.718 127.422 107.723C128.906 108.728 137.733 109.839 137.575 100.731Z" fill="white"/>
<path d="M111.495 127.845C111.072 128.715 110.03 128.96 109.114 128.974C107.842 128.991 106.579 128.747 105.392 128.256C104.714 127.975 104.064 127.613 103.364 127.408C102.322 127.099 101.166 127.125 100.25 126.506C99.7643 126.156 99.363 125.686 99.0796 125.135C99.0264 125.038 98.9751 124.937 98.9275 124.834C98.4897 123.914 98.2864 122.844 98.53 121.851C98.7737 120.859 99.6584 119.765 100.684 119.781C101.902 119.8 103.355 120.423 104.531 120.746C105.996 121.141 107.462 121.598 108.757 122.435C109.841 123.139 110.799 124.15 111.31 125.384C111.408 125.622 111.489 125.868 111.552 126.12C111.711 126.69 111.748 127.324 111.495 127.845Z" fill="#A26565"/>
<path opacity="0.1" d="M111.495 127.845C111.072 128.715 110.03 128.96 109.114 128.974C107.842 128.991 106.579 128.747 105.392 128.256C104.714 127.975 104.064 127.613 103.364 127.408C102.322 127.099 101.166 127.125 100.25 126.506C99.7643 126.156 99.363 125.686 99.0796 125.135C99.0265 125.038 98.9752 124.937 98.9276 124.834C99.1107 124.85 99.2792 124.87 99.3708 124.88C100.496 124.996 101.569 125.439 102.642 125.774C104.132 126.239 105.671 126.498 107.222 126.545C108.321 126.579 109.467 126.492 110.427 125.912C110.714 125.717 111.011 125.541 111.317 125.384C111.416 125.622 111.496 125.868 111.559 126.12C111.711 126.69 111.748 127.324 111.495 127.845Z" fill="black"/>
<path d="M119.366 90.236C116.985 89.8147 114.56 89.7118 112.145 89.609L109.193 89.4824C108.983 89.4561 108.77 89.4839 108.572 89.5635C108.401 89.682 108.239 89.8142 108.086 89.9591C107.789 90.1766 107.41 90.2004 107.053 90.2221C104.519 90.3729 101.999 90.7259 99.5137 91.2784C98.2315 91.5612 96.8998 91.9311 95.9363 92.8864C94.9179 93.8972 94.471 95.438 94.4362 96.9294C94.4014 98.4207 94.764 99.8864 95.1469 101.318C95.6342 103.042 95.9035 104.829 95.9473 106.631C95.9301 107.131 95.9479 107.632 96.0004 108.128C96.0857 108.603 96.2152 109.067 96.3869 109.513L97.7351 113.4C97.8542 113.74 97.9714 114.078 98.1014 114.41C98.2315 114.743 98.356 115.004 98.4678 115.316C98.6326 115.744 98.7627 116.187 98.8927 116.628L99.7903 119.672L99.9075 120.067C100.232 121.163 100.563 122.279 101.175 123.22C101.787 124.162 102.734 124.921 103.798 124.979C104.142 124.965 104.485 124.975 104.828 125.008C105.119 125.085 105.402 125.196 105.672 125.339C106.471 125.697 107.329 125.878 108.194 125.871C108.991 125.871 109.876 125.631 110.308 124.907C110.546 124.512 110.608 124.025 110.674 123.558C110.79 122.621 110.902 121.642 110.607 120.752C110.423 120.22 110.116 119.763 109.903 119.239C109.607 118.525 109.509 117.735 109.317 116.982C108.901 115.36 108.054 113.905 106.881 112.796C106.464 111.015 106.158 109.206 105.965 107.381C105.938 106.977 105.864 106.578 105.743 106.194C105.529 105.601 105.095 105.12 104.914 104.515C104.743 103.953 104.795 103.304 104.485 102.82C107.062 103.585 109.614 103.413 112.29 103.368C113.147 103.371 114.003 103.318 114.854 103.209C115.251 103.131 115.653 103.084 116.056 103.071C116.884 103.071 117.661 103.466 118.421 103.815C120.569 104.804 122.833 105.581 125.167 105.688C127.576 105.796 129.957 105.185 132.311 104.58C133.346 104.313 134.421 104.024 135.242 103.29C136.062 102.557 136.524 101.233 136.018 100.227C135.634 99.469 134.837 99.0972 134.093 98.7807C132.034 97.9025 129.964 97.0461 127.981 95.9839C124.951 94.3897 122.685 90.8294 119.366 90.236Z" fill="#454B69"/>
<path d="M115.12 81.2878C114.832 81.9603 114.349 82.5101 113.992 83.1431C113.394 84.185 113.197 85.4376 113.442 86.6341C113.571 87.2256 113.824 87.7773 114.181 88.2468C114.538 88.7162 114.99 89.0909 115.503 89.3419C115.96 89.5387 116.441 89.6639 116.932 89.7138C117.576 89.7989 118.263 89.8167 118.833 89.4804C119.259 89.2041 119.609 88.8093 119.846 88.3372C120.339 87.4471 120.619 86.4443 120.875 85.4454C121.35 83.602 121.755 81.711 121.696 79.7984C121.676 79.1397 121.555 78.398 121.049 78.0182C120.788 77.8555 120.499 77.7531 120.199 77.7176L117.783 77.2508C117.316 77.1598 116.501 76.7899 116.096 77.1539C115.692 77.5178 115.66 78.5938 115.591 79.0982C115.481 79.8439 115.413 80.6014 115.12 81.2878Z" fill="#A1616A"/>
<path d="M144.488 73.6371L143.856 79.3573C143.725 80.3776 143.65 81.4052 143.631 82.435C143.631 83.0086 143.647 83.6455 143.296 84.0747C143.124 84.27 142.906 84.4115 142.666 84.4842C141.898 84.7413 141.061 84.5118 140.328 84.1578C139.9 83.96 139.462 83.6732 139.268 83.2123C139.155 82.8928 139.108 82.5506 139.13 82.2095C139.13 78.7976 139.429 75.2392 141.079 72.3316C141.22 72.0463 141.419 71.7989 141.66 71.6077C142.118 71.2912 142.717 71.3803 143.235 71.5523C143.554 71.6572 144.415 71.7739 144.618 72.0804C144.822 72.387 144.532 73.2435 144.488 73.6371Z" fill="#A1616A"/>
<path d="M127.722 52.9516C131.364 52.9516 134.317 49.7636 134.317 45.831C134.317 41.8985 131.364 38.7104 127.722 38.7104C124.08 38.7104 121.128 41.8985 121.128 45.831C121.128 49.7636 124.08 52.9516 127.722 52.9516Z" fill="#A1616A"/>
<path d="M125.958 56.4428C125.935 56.9968 125.795 57.5378 125.55 58.0252C128.917 57.4714 132.275 56.8543 135.624 56.1739C134.513 55.557 133.673 54.4904 133.287 53.2069C133.105 52.5187 133.005 51.8081 132.99 51.0925C132.937 49.9577 132.957 48.8203 133.051 47.6885C131.879 47.821 130.769 48.2957 129.651 48.7032C128.528 49.1131 127.385 49.4584 126.228 49.7376C125.669 49.8721 125.107 49.9868 124.542 50.0937C123.883 50.2202 123.566 50.2183 124.024 50.8433C125.253 52.5127 126.131 54.2098 125.958 56.4428Z" fill="#A1616A"/>
<path d="M127.984 55.4914C127.114 55.6318 126.202 55.7901 125.508 56.3716C125.244 56.6166 124.992 56.8775 124.755 57.1529C123.376 58.5987 121.429 59.1802 119.754 60.2009C119.481 60.3466 119.239 60.5521 119.044 60.8041C118.86 61.0791 118.767 61.4292 118.575 61.7021C118.351 62.0186 117.998 62.2164 117.824 62.5665C117.65 62.9166 117.688 63.2884 117.67 63.6603C117.628 64.4772 117.342 65.2525 117.12 66.0338C116.104 69.7741 116.661 73.9456 115.122 77.4782C115.193 77.6817 115.301 77.8676 115.44 78.0247C115.579 78.1817 115.746 78.3067 115.932 78.392C116.319 78.5426 116.723 78.6364 117.133 78.6709L120.542 79.1278C121.029 79.1931 121.546 79.2544 121.991 79.0348C121.584 80.2469 121.296 81.5019 121.132 82.7791C121.049 83.5598 120.92 84.3341 120.747 85.0972C120.278 86.8378 119.099 88.2877 117.701 89.2786C117.525 89.3782 117.376 89.5263 117.27 89.7078C117.087 90.1034 117.358 90.5465 117.551 90.9342C118.109 92.0576 118.032 93.4066 118.025 94.6804C118.018 95.9542 118.137 97.3526 118.961 98.2664C119.448 98.8064 120.115 99.0991 120.764 99.378L126.096 101.678C126.976 102.083 127.883 102.414 128.81 102.667C130.215 103.013 131.675 103 133.117 102.932C134.069 102.889 135.021 102.823 135.971 102.735C136.349 102.733 136.72 102.628 137.049 102.428C137.333 102.186 137.551 101.866 137.681 101.502C138.423 99.7598 138.672 97.7264 139.823 96.2667C140.612 95.2639 141.838 94.4628 141.927 93.1514C141.97 92.4987 141.7 91.8638 141.697 91.2091C141.697 90.4041 142.087 89.6386 142.063 88.8356C142.013 87.5281 140.872 86.5313 140.691 85.2377C140.229 81.9583 141.772 78.6828 142.719 75.528C142.889 74.9642 143.109 74.3412 143.611 74.0999C144.113 73.8586 144.82 73.9852 144.999 73.4511C145.452 72.1101 145.56 70.5376 145.501 69.1115C145.468 68.2867 145.197 67.4797 145.228 66.6529C145.25 66.0714 145.422 65.5057 145.468 64.9262C145.538 64.0499 145.323 63.1797 145.102 62.3331C145.038 62.0309 144.942 61.7375 144.816 61.4588C144.681 61.206 144.521 60.9694 144.34 60.7527L143.448 59.6075C143.03 59.0715 142.589 58.5157 141.982 58.2447C141.786 57.7205 141.16 57.3586 140.711 57.0698C140.259 56.7926 139.791 56.5449 139.312 56.3281L134.267 53.9229C134.079 53.8204 133.877 53.7496 133.668 53.7132C133.361 53.7021 133.056 53.7699 132.778 53.911C131.239 54.5697 129.633 55.2263 127.984 55.4914Z" fill="#6C63FF"/>
<path d="M122.641 47.0693C122.447 46.3315 121.951 45.6946 121.875 44.9312C121.808 44.2527 122.084 43.596 122.242 42.9354C122.399 42.2748 122.394 41.4678 121.908 41.0287C121.828 40.9535 121.725 40.8863 121.696 40.7755C121.637 40.5777 121.822 40.3977 121.879 40.1979C121.983 39.8023 121.531 39.3652 121.696 38.9855C121.789 38.7778 122.024 38.7046 122.229 38.6393C123.013 38.3881 123.808 37.8303 123.978 36.966C124.592 37.2429 125.246 36.7227 125.717 36.2183C126.187 35.7139 126.766 35.1384 127.415 35.2907L127.27 35.6091C128.27 35.2171 129.363 35.2039 130.371 35.5715H130.063C130.947 35.5877 131.804 35.9009 132.516 36.4675C132.437 36.4675 132.43 36.5941 132.461 36.6653C132.717 37.3121 133.377 37.6543 134.012 37.8145C134.395 37.9134 134.811 37.9846 135.091 38.2813C135.372 38.578 135.377 39.1971 135.007 39.3395C135.762 39.6567 136.476 40.0754 137.134 40.5856C137.317 40.73 137.524 40.9258 137.5 41.179C137.474 41.3061 137.436 41.43 137.387 41.5489C137.35 41.76 137.363 41.9777 137.425 42.1818L137.628 43.0877C137.852 44.0945 138.028 45.307 137.348 46.0368C137.602 46.5501 137.697 47.1382 137.617 47.7139C137.538 48.2897 137.289 48.8224 136.907 49.2332C136.961 49.4099 136.979 49.5969 136.961 49.782C136.943 49.967 136.889 50.1459 136.803 50.3068C136.716 50.4677 136.599 50.607 136.459 50.7154C136.319 50.8239 136.16 50.8992 135.991 50.9362C136.216 51.316 136.009 51.8579 135.654 52.0953C135.298 52.3326 134.851 52.3346 134.437 52.2931C134.023 52.2515 133.604 52.1507 133.19 52.2179C132.587 52.3188 131.998 52.7618 131.417 52.5641C131.2 52.4641 130.993 52.3437 130.796 52.2041C130.389 51.9687 129.917 51.9153 129.466 51.8085C128.698 51.6302 127.969 51.2945 127.317 50.8195C126.886 50.5394 126.542 50.126 126.33 49.6327C125.927 48.533 126.605 47.0911 125.892 46.1951C125.475 45.6729 124.647 45.665 124.18 46.112C123.947 46.3355 123.916 46.8063 123.674 46.9744C123.337 47.0665 122.988 47.0986 122.641 47.0693Z" fill="#464353"/>
<path opacity="0.1" d="M113.68 103.785C113.42 103.562 113.195 103.295 113.015 102.994C112.835 102.691 112.763 102.327 112.814 101.971C112.742 102.422 112.77 102.884 112.893 103.321C113.017 103.757 113.234 104.157 113.526 104.487C113.986 104.995 114.849 105.494 115.521 105.32C115.426 104.738 114.107 104.177 113.68 103.785Z" fill="black"/>
<path d="M149.916 71.9697C149.916 71.9697 146.01 69.5249 140.856 72.563C135.701 75.6012 134.842 93.4798 134.842 93.4798C134.842 93.4798 136.951 111.695 128.821 107.642C128.821 107.642 113.984 102.667 112.499 103.763C112.499 103.763 111.092 103.763 113.904 104.438C116.715 105.112 127.578 108.829 127.578 108.829C127.578 108.829 131.089 110.154 132.576 108.829C134.064 107.503 138.279 108.999 138.826 99.8883C139.189 94.1473 139.841 88.4318 140.779 82.7673L142.228 78.129L149.916 71.9697Z" fill="#565661"/>
<path d="M150.384 100.14C150.384 100.14 148.666 81.6696 151.483 75.0059C153.934 69.1987 144.457 71.9144 141.984 72.7056C141.601 72.8291 141.268 73.0866 141.035 73.4374C139.57 75.6626 134.313 84.5811 135.863 96.5141C135.863 96.5141 136.487 107.142 132.582 108.827L144.615 104.641C145.591 104.301 146.582 104.018 147.582 103.773C148.857 103.461 150.934 102.573 150.384 100.14Z" fill="white"/>
<path opacity="0.1" d="M181.929 136.055C191.786 136.055 199.777 134.669 199.777 132.96C199.777 131.25 191.786 129.864 181.929 129.864C172.071 129.864 164.08 131.25 164.08 132.96C164.08 134.669 172.071 136.055 181.929 136.055Z" fill="#6C63FF"/>
<path d="M182.502 73.6588H181.354V101.581H182.502V73.6588Z" fill="#535461"/>
<path d="M189.721 101.496L189.649 102.754L189.547 104.535L189.505 105.274L189.404 107.054L189.36 107.794L189.257 109.574L188.1 129.763C188.047 130.63 187.691 131.442 187.104 132.036C186.517 132.629 185.742 132.959 184.938 132.96H178.917C178.112 132.959 177.337 132.627 176.75 132.031C176.163 131.435 175.809 130.62 175.759 129.751L174.598 109.561L174.497 107.78L174.455 107.041L174.351 105.26L174.309 104.521L174.208 102.741L174.135 101.483C174.122 101.241 174.155 101 174.231 100.773C174.308 100.546 174.426 100.338 174.579 100.162C174.733 99.9864 174.917 99.846 175.122 99.7496C175.327 99.6531 175.549 99.6028 175.772 99.6016H188.085C188.31 99.6029 188.532 99.6539 188.738 99.7513C188.943 99.8487 189.128 99.9904 189.282 100.168C189.435 100.345 189.553 100.555 189.628 100.783C189.704 101.012 189.735 101.254 189.721 101.496Z" fill="#565661"/>
<path d="M189.649 102.754L189.547 104.529H174.311L174.208 102.754H189.649Z" fill="#9D9CB5"/>
<path d="M189.505 105.27L189.404 107.047H174.455L174.353 105.27H189.505Z" fill="#9D9CB5"/>
<path d="M189.36 107.786L189.257 109.56H174.6L174.497 107.786H189.36Z" fill="#9D9CB5"/>
<path d="M172.453 84.1241C179.143 89.3498 181.929 97.5227 181.929 97.5227C181.929 97.5227 173.869 97.224 167.178 91.9983C160.486 86.7726 157.704 78.6017 157.704 78.6017C157.704 78.6017 165.765 78.9004 172.453 84.1241Z" fill="#6C63FF"/>
<path d="M157.704 78.6017C157.704 78.6017 166.07 83.6158 168.755 87.7675C171.44 91.9192 181.929 97.5227 181.929 97.5227" stroke="#535461" stroke-width="2" stroke-miterlimit="10"/>
<path d="M176.771 73.5975C180.412 76.4399 181.929 80.8902 181.929 80.8902C181.929 80.8902 177.533 80.7261 173.9 77.8838C170.268 75.0414 168.753 70.5911 168.753 70.5911C168.753 70.5911 173.131 70.7533 176.771 73.5975Z" fill="#6C63FF"/>
<path d="M168.753 70.5911C168.753 70.5911 173.307 73.3206 174.767 75.5794C176.227 77.8383 181.938 80.8902 181.938 80.8902" stroke="#535461" stroke-width="2" stroke-miterlimit="10"/>
<path d="M187.219 80.6627C183.037 85.6254 182.152 92.111 182.152 92.111C182.152 92.111 188.049 90.5485 192.227 85.5838C196.405 80.6192 197.293 74.1355 197.293 74.1355C197.293 74.1355 191.401 75.7 187.219 80.6627Z" fill="#6C63FF"/>
<path d="M197.297 74.1376C197.297 74.1376 191.849 79.2248 190.465 82.7298C189.08 86.2347 182.152 92.1112 182.152 92.1112" stroke="#535461" stroke-width="2" stroke-miterlimit="10"/>
<path d="M102.617 68.7159V69.1669H90.2324V68.801C90.5719 68.6634 90.8933 68.4786 91.1885 68.2511C91.7144 67.8445 92.143 67.3083 92.4386 66.687C92.7342 66.0658 92.8884 65.3774 92.8884 64.6789C92.8886 64.314 92.8461 63.9504 92.762 63.597C92.6122 62.9609 92.3324 62.369 91.9432 61.8648C91.554 61.3607 91.0652 60.957 90.5126 60.6835H102.532C101.98 60.957 101.491 61.3607 101.102 61.8648C100.713 62.369 100.433 62.9609 100.283 63.597C100.2 63.9505 100.158 64.3141 100.158 64.6789C100.158 65.3772 100.312 66.0656 100.607 66.6869C100.903 67.3081 101.331 67.8444 101.856 68.2511C102.094 68.4342 102.349 68.59 102.617 68.7159Z" fill="#DFE6F5"/>
<path opacity="0.1" d="M102.532 60.6835C101.98 60.957 101.491 61.3607 101.102 61.8648C100.713 62.369 100.433 62.9609 100.283 63.597H92.7619C92.6122 62.9609 92.3324 62.369 91.9432 61.8648C91.5539 61.3607 91.0651 60.957 90.5126 60.6835H102.532Z" fill="black"/>
<path d="M76.0529 58.3793V60.919C76.0529 62.3193 77.0018 63.4566 78.1741 63.4566H114.609C115.781 63.4566 116.732 62.3193 116.732 60.919V58.3793H76.0529Z" fill="#DFE6F5"/>
<path opacity="0.1" d="M102.617 68.7159V69.1669H90.2324V68.801C90.5719 68.6634 90.8933 68.4786 91.1885 68.2511H101.856C102.094 68.4342 102.349 68.59 102.617 68.7159Z" fill="black"/>
<path d="M106.088 68.3916H86.7612C86.4183 68.3916 86.1403 68.6914 86.1403 69.0611C86.1403 69.4309 86.4183 69.7307 86.7612 69.7307H106.088C106.431 69.7307 106.709 69.4309 106.709 69.0611C106.709 68.6914 106.431 68.3916 106.088 68.3916Z" fill="#DFE6F5"/>
<path d="M116.732 30.5634C116.732 30.2625 116.677 29.9645 116.57 29.6864C116.464 29.4084 116.307 29.1558 116.11 28.9431C115.913 28.7304 115.679 28.5617 115.421 28.4467C115.164 28.3317 114.888 28.2727 114.609 28.273H78.1741C77.8954 28.2727 77.6195 28.3318 77.362 28.4468C77.1046 28.5618 76.8707 28.7305 76.6736 28.9432C76.4766 29.156 76.3204 29.4086 76.2139 29.6866C76.1074 29.9646 76.0527 30.2626 76.0529 30.5634V58.8737H116.732V30.5634Z" fill="#474157"/>
<path d="M115.622 31.586V55.9148C115.622 56.063 115.595 56.2098 115.543 56.3468C115.491 56.4838 115.414 56.6084 115.317 56.7133C115.22 56.8182 115.105 56.9014 114.978 56.9582C114.851 57.0149 114.715 57.0442 114.578 57.0442H78.2071C78.0698 57.0442 77.9339 57.0149 77.8071 56.9582C77.6803 56.9014 77.5651 56.8182 77.4681 56.7133C77.3712 56.6084 77.2943 56.4838 77.2419 56.3468C77.1896 56.2098 77.1627 56.063 77.163 55.9148V31.586C77.1621 31.3881 77.2101 31.1935 77.3022 31.0223C77.3939 30.8508 77.5258 30.7084 77.6846 30.6095C77.8435 30.5105 78.0237 30.4585 78.2071 30.4586H114.578C114.855 30.4586 115.12 30.5774 115.316 30.7888C115.512 31.0003 115.622 31.287 115.622 31.586Z" fill="#4C4C78"/>
<path d="M96.3924 29.8929C96.6626 29.8929 96.8815 29.6565 96.8815 29.3648C96.8815 29.0731 96.6626 28.8367 96.3924 28.8367C96.1223 28.8367 95.9034 29.0731 95.9034 29.3648C95.9034 29.6565 96.1223 29.8929 96.3924 29.8929Z" fill="white"/>
<path d="M96.3924 62.3271C97.0591 62.3271 97.5995 61.7436 97.5995 61.0237C97.5995 60.3038 97.0591 59.7202 96.3924 59.7202C95.7257 59.7202 95.1853 60.3038 95.1853 61.0237C95.1853 61.7436 95.7257 62.3271 96.3924 62.3271Z" fill="white"/>
<path d="M115.622 31.586H77.1666C77.1666 31.287 77.2766 31.0003 77.4724 30.7888C77.6682 30.5774 77.9338 30.4586 78.2107 30.4586H114.578C114.855 30.4586 115.12 30.5774 115.316 30.7888C115.512 31.0003 115.622 31.287 115.622 31.586Z" fill="#C8CAD7"/>
<path d="M78.207 31.3051C78.3517 31.3051 78.469 31.1784 78.469 31.0222C78.469 30.866 78.3517 30.7394 78.207 30.7394C78.0623 30.7394 77.9451 30.866 77.9451 31.0222C77.9451 31.1784 78.0623 31.3051 78.207 31.3051Z" fill="#EDEDF4"/>
<path d="M78.991 31.3051C79.1357 31.3051 79.2529 31.1784 79.2529 31.0222C79.2529 30.866 79.1357 30.7394 78.991 30.7394C78.8463 30.7394 78.7291 30.866 78.7291 31.0222C78.7291 31.1784 78.8463 31.3051 78.991 31.3051Z" fill="#EDEDF4"/>
<path d="M79.775 31.3051C79.9197 31.3051 80.0369 31.1784 80.0369 31.0222C80.0369 30.866 79.9197 30.7394 79.775 30.7394C79.6303 30.7394 79.5131 30.866 79.5131 31.0222C79.5131 31.1784 79.6303 31.3051 79.775 31.3051Z" fill="#EDEDF4"/>
</g>
<defs>
<linearGradient id="paint0_linear" x1="71.3802" y1="92.9398" x2="71.8051" y2="92.9398" gradientUnits="userSpaceOnUse">
<stop stop-color="#808080" stop-opacity="0.25"/>
<stop offset="0.54" stop-color="#808080" stop-opacity="0.12"/>
<stop offset="1" stop-color="#808080" stop-opacity="0.1"/>
</linearGradient>
<clipPath id="clip0">
<rect x="0.593018" y="0.423462" width="207" height="146" fill="white"/>
</clipPath>
</defs>
</svg>
