<svg width="25" height="25" viewBox="0 0 25 25" fill="none" xmlns="http://www.w3.org/2000/svg">
<g clip-path="url(#clip0)">
<path d="M24.3524 5.19411C23.4539 5.58972 22.502 5.85085 21.5274 5.96911C22.5535 5.35236 23.3218 4.38516 23.6904 3.24611C22.7394 3.80111 21.6854 4.20511 20.5634 4.43011C19.8232 3.63854 18.8423 3.11353 17.7731 2.93661C16.7039 2.75969 15.6061 2.94076 14.6504 3.4517C13.6946 3.96264 12.9343 4.77486 12.4875 5.76223C12.0407 6.74961 11.9324 7.85688 12.1794 8.91211C8.08944 8.71911 4.46444 6.75511 2.03844 3.78611C1.59723 4.53592 1.3671 5.39114 1.37244 6.26111C1.37244 7.97111 2.24244 9.47411 3.56044 10.3571C2.7793 10.3322 2.01541 10.121 1.33244 9.74111V9.80211C1.33199 10.9385 1.72471 12.0401 2.44394 12.9199C3.16318 13.7997 4.16465 14.4036 5.27844 14.6291C4.55674 14.8225 3.80085 14.8515 3.06644 14.7141C3.38269 15.692 3.99627 16.5469 4.82159 17.1594C5.64691 17.772 6.64283 18.1117 7.67044 18.1311C5.92993 19.497 3.7809 20.2383 1.56844 20.2361C1.17844 20.2361 0.789438 20.2131 0.398438 20.1691C2.65415 21.6134 5.27695 22.3801 7.95544 22.3781C17.0094 22.3781 21.9544 14.8821 21.9544 8.39211C21.9544 8.18311 21.9544 7.97211 21.9394 7.76211C22.9054 7.06696 23.7387 6.20392 24.3994 5.21411L24.3524 5.19411Z" fill="white"/>
</g>
<defs>
<clipPath id="clip0">
<rect x="0.398438" y="0.625" width="24" height="24" fill="white"/>
</clipPath>
</defs>
</svg>
